/* XPM */
static char *result[] = {
/* columns rows colors chars-per-pixel */
"128 128 23 1 ",
"  c #C8800D",
". c #C9800D",
"X c #CA800C",
"o c #C8800E",
"O c #C9800E",
"+ c #C9810E",
"@ c #CB820E",
"# c #CE840E",
"$ c #D0860E",
"% c #D3870F",
"& c #D6890F",
"* c #D88B0F",
"= c #DB8C0F",
"- c #DE8E10",
"; c #E09010",
": c #E39110",
"> c #E59310",
", c #E89511",
"< c #EB9611",
"1 c #ED9811",
"2 c #F09A11",
"3 c #F39C12",
"4 c None",
/* pixels */
"44444444444444444444444444444444444444444444444444444444444444444444444444444444444444444444444444444444444444444444444444444444",
"44444444444444444444444444444444444444444444444444444444444444444444444444444444444444444444444444444444444444444444444444444444",
"44444444444444444444444444444444444444444444444444444444444444444444444444444444444444444444444444444444444444444444444444444444",
"44444444444444444444444444444444444444444444444444444444444444444444444444444444444444444444444444444444444444444444444444444444",
"44444444444444444444444444444444444444444444444444444444444444444444444444444444444444444444444444444444444444444444444444444444",
"44444444444444444444444444444444444444444444444444444444444444444444444444444444444444444444444444444444444444444444444444444444",
"44444444444444444444444444444444444444444444444444444444444444444444444444444444444444444444444444444444444444444444444444444444",
"44444444444444444444444444444444444444444444444444444444444444444444444444444444444444444444444444444444444444444444444444444444",
"44444444444444444444444444444444444444444444444444444444444444444444444444444444444444444444444444444444444444444444444444444444",
"44444444444444444444444444444444444444444444444444444444444444444444444444444444444444444444444444444444444444444444444444444444",
"44444444444444444444444444444444444444444444444444444444444444444444444444444444444444444444444444444444444444444444444444444444",
"44444444444444444444444444444444444444444444444444444444444444444444444444444444444444444444444444444444444444444444444444444444",
"44444444444444444444444444444444444444444444444444444444444444444444444444444444444444444444444444444444444444444444444444444444",
"44444444444444444444444444444444444444444444444444444444444444444444444444444444444444444444444444444444444444444444444444444444",
"44444444444444444444444444444444444444444444444444444444444444444444444444444444444444444444444444444444444444444444444444444444",
"44444444444444444444444444444444444444444444444444444444444444444444444444444444444444444444444444444444444444444444444444444444",
"44444444444444444444444444444444444444444444444444444444444444444444444444444444444444444444444444444444444444444444444444444444",
"44444444444444444444444444444444444444444444444444444444444444444444444444444444444444444444444444444444444444444444444444444444",
"44444444444444444444444444444444444444444444444444444444444444444444444444444444444444444444444444444444444444444444444444444444",
"44444444444444444444444444444444444444444444444444444444444444444444444444444444444444444444444444444444444444444444444444444444",
"44444444444444444444444444444444444444444444444444444444444444444444444444444444444444444444444444444444444444444444444444444444",
"44444444444444444444444444444444444444444444444444444444444444444444444444444444444444444444444444444444444444444444444444444444",
"44444444444444444444444444444444444444444444444444444444444444444444444444444444444444444444444444444444444444444444444444444444",
"44444444444444444444444444444444444444444444444444444444444444444444444444444444444444444444444444444444444444444444444444444444",
"44444444444444444444444444444444444444444444444444444444444444444444444444444444444444444444444444444444444444444444444444444444",
"44444444444444444444444444444444444444444444444444444444444444444444444444444444444444444444444444444444444444444444444444444444",
"44444444444444444444444444444444444444444444444444444444444444444444444444444444444444444444444444444444444444444444444444444444",
"44444444444444444444444444444444444444444444444444444444444444444444444444444444444444444444444444444444444444444444444444444444",
"44444444444444444444444444444444444444444444444444444444444444444444444444444444444444444444444444444444444444444444444444444444",
"44444444444444444444444444444444444444444444444444444444444444444444444444444444444444444444444444444444444444444444444444444444",
"44444444444444444444444444444444444444444444444444444444444444444444444444444444444444444444444444444444444444444444444444444444",
"44444444444444444444444444444444444444444444444444444444444444444444444444444444444444444444444444444444444444444444444444444444",
"44444444444444444444444444444444444444444444444444444444444444444444444444444444444444444444444444444444444444444444444444444444",
"44444444444444444444444444444444444444444444444444444444444444444444444444444444444444444444444444444444444444444444444444444444",
"44444444444444444444444444444444444444444444444444444444444444444444444444444444444444444444444444444444444444444444444444444444",
"44444444444444444444444444444444444444444444444444444444444444444444444444444444444444444444444444444444444444444444444444444444",
"44444444444444444444444444444444444444444444444444444444444          44444444444444444444444444444444444444444444444444444444444",
"4444444444444444444444444444444444444444444444444444444 ++++++++++++++++ 4444444444444444444444444444444444444444444444444444444",
"4444444444444444444444444444444444444444444444444444XO+++++++++++++++++++++ 4444444444444444444444444444444444444444444444444444",
"44444444444444444444444444444444444444444444444444X++++++++++++++++++++++++++.44444444444444444444444444444444444444444444444444",
"4444444444444444444444444444444444444444444444444O+++++++#*;,,,,,,,,;*#++++++++4444444444444444444444444444444444444444444444444",
"44444444444444444444444444444444444444444444444 ++++++#;1333333333333331;#++++++o44444444444444444444444444444444444444444444444",
"4444444444444444444444444444444444444444444444O+++++$,33333333333333333333,$+++++O4444444444444444444444444444444444444444444444",
"444444444444444444444444444444444444444444444O++++@>333333333333333333333333>@+++++444444444444444444444444444444444444444444444",
"44444444444444444444444444444444444444444444o++++*2333333333333333333333333332*+++++44444444444444444444444444444444444444444444",
"4444444444444444444444444444444444444444444O++++-333333333333333333333333333333-++++O4444444444444444444444444444444444444444444",
"444444444444444444444444444444444444444444 ++++:33333333333333333333333333333333:++++o444444444444444444444444444444444444444444",
"44444444444444444444444444444444444444444X++++*3333333333333333333333333333333333*++++.44444444444444444444444444444444444444444",
"44444444444444444444444444444444444444444++++*3333333333332>=%%%%%%=>2333333333333*++++44444444444444444444444444444444444444444",
"4444444444444444444444444444444444444444o+++$233333333331*@++++++++++@*133333333332$+++O4444444444444444444444444444444444444444",
"444444444444444444444444444444444444444X+++@<3333333332*++++++++++++++++*2333333333<@+++.444444444444444444444444444444444444444",
"444444444444444444444444444444444444444++++;333333333<$++++++++++++++++++$<333333333;++++444444444444444444444444444444444444444",
"44444444444444444444444444444444444444 +++#3333333331@++++++++++++++++++++@<333333333#+++ 44444444444444444444444444444444444444",
"44444444444444444444444444444444444444O+++:333333332$++++++++++++++++++++++@<33333333:++++44444444444444444444444444444444444444",
"44444444444444444444444444444444444444+++#333333333%+++++++++#:,,>%+++++++++#233333333#+++44444444444444444444444444444444444444",
"4444444444444444444444444444444444444O+++;33333333-+++++++++@133333$+++++++++=33333333;+++O4444444444444444444444444444444444444",
"4444444444444444444444444444444444444++++133333331++++++++++:333333>++++++++++,33333331++++4444444444444444444444444444444444444",
"4444444444444444444444444444444444444+++$33333333*++++++++++33333333++++++++++&33333333$+++4444444444444444444444444444444444444",
"4444444444444444444444444444444444444+++=33333332+++++++++++33333333+++++++++++13333333=+++4444444444444444444444444444444444444",
"444444444444444444444444444444444444 +++>3333333:+++++++++++33333333+++++++++++;3333333>+++ 444444444444444444444444444444444444",
"444444444444444444444444444444444444O+++,3333333&+++++++++++33333333+++++++++++&3333333,+++O444444444444444444444444444444444444",
"444444444444444444444444444444444444++++33333333$+++++++++++33333333+++++++++++#33333333++++444444444444444444444444444444444444",
"444444444444444444444444444444444444++++33333333++++++++++++33333333++++++++++++33333333++++444444444444444444444444444444444444",
"444444444444444444444444444444444444++++33333333++++++++++++33333333++++++++++++33333333++++444444444444444444444444444444444444",
"444444444444444444444444444444444444++++33333333++++++++++++33333333++++++++++++33333333++++444444444444444444444444444444444444",
"444444444444444444444444444444444444++++33333333++++++++++++33333333++++++++++++33333333++++444444444444444444444444444444444444",
"444444444444444444444444444444444444++++23333333$+++++++++++33333333+++++++++++$33333332++++444444444444444444444444444444444444",
"444444444444444444444444444444444444 +++,3333333&+++++++++++33333333+++++++++++%3333333,+++ 444444444444444444444444444444444444",
"444444444444444444444444444444444444 +++:3333333;+++++++++++33333333+++++++++++;3333333:+++ 444444444444444444444444444444444444",
"4444444444444444444444444444444444444+++-33333331+++++++++++33333333+++++++++++<3333333-+++4444444444444444444444444444444444444",
"4444444444444444444444444444444444444+++$33333333%++++++++++33333333++++++++++#33333333$+++4444444444444444444444444444444444444",
"4444444444444444444444444444444444444++++23333333,++++++++++<3333331++++++++++:33333332++++4444444444444444444444444444444444444",
"4444444444444444444444444444444444444O+++;33333333&+++++++++&333333*+++++++++#33333333;+++o4444444444444444444444444444444444444",
"44444444444444444444444444444444444444+++%333333331@+++++++++&<332=++++++++++,33333333%+++X4444444444444444444444444444444444444",
"44444444444444444444444444444444444444++++,33333333>++++++++++++++++++++++++-33333333,++++44444444444444444444444444444444444444",
"44444444444444444444444444444444444444 +++%333333333:++++++++++++++++++++++*333333333%+++O44444444444444444444444444444444444444",
"444444444444444444444444444444444444444++++>333333333<@++++++++++++++++++@:333333333>++++444444444444444444444444444444444444444",
"444444444444444444444444444444444444444 +++@23333333332%++++++++++++++++#<3333333332@+++o444444444444444444444444444444444444444",
"4444444444444444444444444444444444444444++++*33333333333>#++++++++++++#;23333333333*++++4444444444444444444444444444444444444444",
"4444444444444444444444444444444444444444X++++-333333333333,=$++++++$=>333333333333-++++.4444444444444444444444444444444444444444",
"44444444444444444444444444444444444444444O++++:3333333333333333333333333333333333:++++O44444444444444444444444444444444444444444",
"444444444444444444444444444444444444444444O++++-33333333333333333333333333333333-+++++444444444444444444444444444444444444444444",
"4444444444444444444444444444444444444444444+++++*333333333333333333333333333333*+++++4444444444444444444444444444444444444444444",
"44444444444444444444444444444444444444444444+++++*1333333333333333333333333331*+++++ 4444444444444444444444444444444444444444444",
"444444444444444444444444444444444444444444444O++++@>333333333333333333333333>@+++++444444444444444444444444444444444444444444444",
"4444444444444444444444444444444444444444444444O+++++%<33333333333333333333<%++++++4444444444444444444444444444444444444444444444",
"44444444444444444444444444444444444444444444444 ++++++&>3333333333333333>&++++++o44444444444444444444444444444444444444444444444",
"444444444444444444444444444444444444444444444444XO+++++++*:<33333333<:*++++++++.444444444444444444444444444444444444444444444444",
"44444444444444444444444444444444444444444444444444O++++++++++++++++++++++++++O44444444444444444444444444444444444444444444444444",
"4444444444444444444444444444444444444444444444444444O++++++++++++++++++++++o4444444444444444444444444444444444444444444444444444",
"444444444444444444444444444444444444444444444444444444 O+++++++++++++++++.444444444444444444444444444444444444444444444444444444",
"4444444444444444444444444444444444444444444444444444444444 o++++++++O 4444444444444444444444444444444444444444444444444444444444",
"44444444444444444444444444444444444444444444444444444444444444444444444444444444444444444444444444444444444444444444444444444444",
"44444444444444444444444444444444444444444444444444444444444444444444444444444444444444444444444444444444444444444444444444444444",
"44444444444444444444444444444444444444444444444444444444444444444444444444444444444444444444444444444444444444444444444444444444",
"44444444444444444444444444444444444444444444444444444444444444444444444444444444444444444444444444444444444444444444444444444444",
"44444444444444444444444444444444444444444444444444444444444444444444444444444444444444444444444444444444444444444444444444444444",
"44444444444444444444444444444444444444444444444444444444444444444444444444444444444444444444444444444444444444444444444444444444",
"44444444444444444444444444444444444444444444444444444444444444444444444444444444444444444444444444444444444444444444444444444444",
"44444444444444444444444444444444444444444444444444444444444444444444444444444444444444444444444444444444444444444444444444444444",
"44444444444444444444444444444444444444444444444444444444444444444444444444444444444444444444444444444444444444444444444444444444",
"44444444444444444444444444444444444444444444444444444444444444444444444444444444444444444444444444444444444444444444444444444444",
"44444444444444444444444444444444444444444444444444444444444444444444444444444444444444444444444444444444444444444444444444444444",
"44444444444444444444444444444444444444444444444444444444444444444444444444444444444444444444444444444444444444444444444444444444",
"44444444444444444444444444444444444444444444444444444444444444444444444444444444444444444444444444444444444444444444444444444444",
"44444444444444444444444444444444444444444444444444444444444444444444444444444444444444444444444444444444444444444444444444444444",
"44444444444444444444444444444444444444444444444444444444444444444444444444444444444444444444444444444444444444444444444444444444",
"44444444444444444444444444444444444444444444444444444444444444444444444444444444444444444444444444444444444444444444444444444444",
"44444444444444444444444444444444444444444444444444444444444444444444444444444444444444444444444444444444444444444444444444444444",
"44444444444444444444444444444444444444444444444444444444444444444444444444444444444444444444444444444444444444444444444444444444",
"44444444444444444444444444444444444444444444444444444444444444444444444444444444444444444444444444444444444444444444444444444444",
"44444444444444444444444444444444444444444444444444444444444444444444444444444444444444444444444444444444444444444444444444444444",
"44444444444444444444444444444444444444444444444444444444444444444444444444444444444444444444444444444444444444444444444444444444",
"44444444444444444444444444444444444444444444444444444444444444444444444444444444444444444444444444444444444444444444444444444444",
"44444444444444444444444444444444444444444444444444444444444444444444444444444444444444444444444444444444444444444444444444444444",
"44444444444444444444444444444444444444444444444444444444444444444444444444444444444444444444444444444444444444444444444444444444",
"44444444444444444444444444444444444444444444444444444444444444444444444444444444444444444444444444444444444444444444444444444444",
"44444444444444444444444444444444444444444444444444444444444444444444444444444444444444444444444444444444444444444444444444444444",
"44444444444444444444444444444444444444444444444444444444444444444444444444444444444444444444444444444444444444444444444444444444",
"44444444444444444444444444444444444444444444444444444444444444444444444444444444444444444444444444444444444444444444444444444444",
"44444444444444444444444444444444444444444444444444444444444444444444444444444444444444444444444444444444444444444444444444444444",
"44444444444444444444444444444444444444444444444444444444444444444444444444444444444444444444444444444444444444444444444444444444",
"44444444444444444444444444444444444444444444444444444444444444444444444444444444444444444444444444444444444444444444444444444444",
"44444444444444444444444444444444444444444444444444444444444444444444444444444444444444444444444444444444444444444444444444444444",
"44444444444444444444444444444444444444444444444444444444444444444444444444444444444444444444444444444444444444444444444444444444",
"44444444444444444444444444444444444444444444444444444444444444444444444444444444444444444444444444444444444444444444444444444444",
"44444444444444444444444444444444444444444444444444444444444444444444444444444444444444444444444444444444444444444444444444444444",
"44444444444444444444444444444444444444444444444444444444444444444444444444444444444444444444444444444444444444444444444444444444"
};
