/* XPM */
static char *result[] = {
/* columns rows colors chars-per-pixel */
"128 128 38 1 ",
"  c #C9810E",
". c #CB820E",
"X c #CE840E",
"o c #D0860E",
"O c #D3870F",
"+ c #D6890F",
"@ c #D88B0F",
"# c #DB8C0F",
"$ c #DE8E10",
"% c #E09010",
"& c #E39110",
"* c #E59310",
"= c #E89511",
"- c #EB9611",
"; c #ED9811",
": c #F09A11",
"> c #F39C12",
", c #F39D17",
"< c #F39F1C",
"1 c #F3A121",
"2 c #F3A327",
"3 c #F3A52C",
"4 c #F3A731",
"5 c #F3A936",
"6 c #F3AB3C",
"7 c #F3AC41",
"8 c #F3AE46",
"9 c #F3B04B",
"0 c #F3B251",
"q c #F3B456",
"w c #F3B65B",
"e c #F3B860",
"r c #F2BA65",
"t c #F3BA65",
"y c #F2B966",
"u c #F3B966",
"i c #F3BA66",
"p c None",
/* pixels */
"pppppppppppppppppppppppppppppppppppppppppppppppppppppppppppppppppppppppppppppppppppppppppppppppppppppppppppppppppppppppppppppppp",
"pppppppppppppppppppppppppppppppppppppppppppppppppppppppppppppppppppppppppppppppppppppppppppppppppppppppppppppppppppppppppppppppp",
"pppppppppppppppppppppppppppppppppppppppppppppppppppppppppppppppppppppppppppppppppppppppppppppppppppppppppppppppppppppppppppppppp",
"pppppppppppppppppppppppppppppppppppppppppppppppppppppppppppppppppppppppppppppppppppppppppppppppppppppppppppppppppppppppppppppppp",
"pppppppppppppppppppppppppppppppppppppppppppppppppppppppppppppppppppppppppppppppppppppppppppppppppppppppppppppppppppppppppppppppp",
"pppppppppppppppppppppppppppppppppppppppppppppppppppppppppppppppppppppppppppppppppppppppppppppppppppppppppppppppppppppppppppppppp",
"pppppppppppppppppppppppppppppppppppppppppppppppppppppppppppppppppppppppppppppppppppppppppppppppppppppppppppppppppppppppppppppppp",
"pppppppppppppppppppppppppppppppppppppppppppppppppppppppppppppppppppppppppppppppppppppppppppppppppppppppppppppppppppppppppppppppp",
"pppppppppppppppppppppppppppppppppppppppppppppppppppppppppppppppppppppppppppppppppppppppppppppppppppppppppppppppppppppppppppppppp",
"pppppppppppppppppppppppppppppppppppppppppppppppppppppppppppppppppppppppppppppppppppppppppppppppppppppppppppppppppppppppppppppppp",
"pppppppppppppppppppppppppppppppppppppppppppppppppppppppppppppppppppppppppppppppppppppppppppppppppppppppppppppppppppppppppppppppp",
"pppppppppppppppppppppppppppppppppppppppppppppppppppppppppppppppppppppppppppppppppppppppppppppppppppppppppppppppppppppppppppppppp",
"pppppppppppppppppppppppppppppppppppppppppppppppppppppppppppppppppppppppppppppppppppppppppppppppppppppppppppppppppppppppppppppppp",
"pppppppppppppppppppppppppppppppppppppppppppppppppppppppppppppppppppppppppppppppppppppppppppppppppppppppppppppppppppppppppppppppp",
"pppppppppppppppppppppppppppppppppppppppppppppppppppppppppppppppppppppppppppppppppppppppppppppppppppppppppppppppppppppppppppppppp",
"pppppppppppppppppppppppppppppppppppppppppppppppppppppppppppppppppppppppppppppppppppppppppppppppppppppppppppppppppppppppppppppppp",
"pppppppppppppppppppppppppppppppppppppppppppppppppppppppppppppppppppppppppppppppppppppppppppppppppppppppppppppppppppppppppppppppp",
"pppppppppppppppppppppppppppppppppppppppppppppppppppppppppppppppppppppppppppppppppppppppppppppppppppppppppppppppppppppppppppppppp",
"pppppppppppppppppppppppppppppppppppppppppppppppppppppppppppppppppppppppppppppppppppppppppppppppppppppppppppppppppppppppppppppppp",
"pppppppppppppppppppppppppppppppppppppppppppppppppppppppppppppppppppppppppppppppppppppppppppppppppppppppppppppppppppppppppppppppp",
"pppppppppppppppppppppppppppppppppppppppppppppppppppppppppppppppppppppppppppppppppppppppppppppppppppppppppppppppppppppppppppppppp",
"pppppppppppppppppppppppppppppppppppppppppppppppppppppppppppppppppppppppppppppppppppppppppppppppppppppppppppppppppppppppppppppppp",
"pppppppppppppppppppppppppppppppppppppppppppppppppppppppppppppppppppppppppppppppppppppppppppppppppppppppppppppppppppppppppppppppp",
"pppppppppppppppppppppppppppppppppppppppppppppppppppppppppppppppppppppppppppppppppppppppppppppppppppppppppppppppppppppppppppppppp",
"pppppppppppppppppppppppppppppppppppppppppppppppppppppppppppppppppppppppppppppppppppppppppppppppppppppppppppppppppppppppppppppppp",
"pppppppppppppppppppppppppppppppppppppppppppppppppppppppppppppppppppppppppppppppppppppppppppppppppppppppppppppppppppppppppppppppp",
"pppppppppppppppppppppppppppppppppppppppppppppppppppppppppppppppppppppppppppppppppppppppppppppppppppppppppppppppppppppppppppppppp",
"pppppppppppppppppppppppppppppppppppppppppppppppppppppppppppppppppppppppppppppppppppppppppppppppppppppppppppppppppppppppppppppppp",
"pppppppppppppppppppppppppppppppppppppppppppppppppppppppppppppppppppppppppppppppppppppppppppppppppppppppppppppppppppppppppppppppp",
"pppppppppppppppppppppppppppppppppppppppppppppppppppppppppppppppppppppppppppppppppppppppppppppppppppppppppppppppppppppppppppppppp",
"pppppppppppppppppppppppppppppppppppppppppppppppppppppppppppppppppppppppppppppppppppppppppppppppppppppppppppppppppppppppppppppppp",
"pppppppppppppppppppppppppppppppppppppppppppppppppppppppppppppppppppppppppppppppppppppppppppppppppppppppppppppppppppppppppppppppp",
"pppppppppppppppppppppppppppppppppppppppppppppppppppppppppppppppppppppppppppppppppppppppppppppppppppppppppppppppppppppppppppppppp",
"pppppppppppppppppppppppppppppppppppppppppppppppppppppppppppppppppppppppppppppppppppppppppppppppppppppppppppppppppppppppppppppppp",
"pppppppppppppppppppppppppppppppppppppppppppppppppppppppppppppppppppppppppppppppppppppppppppppppppppppppppppppppppppppppppppppppp",
"pppppppppppppppppppppppppppppppppppppppppppppppppppppppppppppppppppppppppppppppppppppppppppppppppppppppppppppppppppppppppppppppp",
"ppppppppppppppppppppppppppppppppppppppppppppppppppppppppppprttttttttrppppppppppppppppppppppppppppppppppppppppppppppppppppppppppp",
"ppppppppppppppppppppppppppppppppppppppppppppppppppppppptiiiiiiiiiiiiiiiitppppppppppppppppppppppppppppppppppppppppppppppppppppppp",
"ppppppppppppppppppppppppppppppppppppppppppppppppppppuriiiiiiiiiiiiiiiiiiiiirpppppppppppppppppppppppppppppppppppppppppppppppppppp",
"ppppppppppppppppppppppppppppppppppppppppppppppppppuiiiiiiiiiiiiiiiiiiiiiiiiiiupppppppppppppppppppppppppppppppppppppppppppppppppp",
"pppppppppppppppppppppppppppppppppppppppppppppppppriiiiiiiw852222222258wiiiiiiiippppppppppppppppppppppppppppppppppppppppppppppppp",
"ppppppppppppppppppppppppppppppppppppppppppppppptiiiiiiw5<>>>>>>>>>>>>>><5wiiiiiiyppppppppppppppppppppppppppppppppppppppppppppppp",
"pppppppppppppppppppppppppppppppppppppppppppppptiiiiiq2>>>>>>>>>>>>>>>>>>>>2qiiiiirpppppppppppppppppppppppppppppppppppppppppppppp",
"pppppppppppppppppppppppppppppppppppppppppppppriiiie3>>>>>>>>>>>>>>>>>>>>>>>>3eiiiiippppppppppppppppppppppppppppppppppppppppppppp",
"ppppppppppppppppppppppppppppppppppppppppppppyiiii8,>>>>>>>>>>>>>>>>>>>>>>>>>>,8iiiiipppppppppppppppppppppppppppppppppppppppppppp",
"ppppppppppppppppppppppppppppppppppppppppppptiiii6>>>>>>>>>>>>>>>>>>>>>>>>>>>>>>6iiiirppppppppppppppppppppppppppppppppppppppppppp",
"pppppppppppppppppppppppppppppppppppppppppptiiii4>>>>>>>>>>>>>>>>>>>>>>>>>>>>>>>>4iiiiypppppppppppppppppppppppppppppppppppppppppp",
"pppppppppppppppppppppppppppppppppppppppppuiiii8>>>>>>>>>>>>>>>>>>>>>>>>>>>>>>>>>>8iiiiuppppppppppppppppppppppppppppppppppppppppp",
"pppppppppppppppppppppppppppppppppppppppppiiii8>>>>>>>>>>>>:*#OOOOOO#*:>>>>>>>>>>>>8iiiippppppppppppppppppppppppppppppppppppppppp",
"ppppppppppppppppppppppppppppppppppppppppyiiiq,>>>>>>>>>>;@.          .@;>>>>>>>>>>,qiiirpppppppppppppppppppppppppppppppppppppppp",
"pppppppppppppppppppppppppppppppppppppppuiiie1>>>>>>>>>:@                @:>>>>>>>>>1eiiiuppppppppppppppppppppppppppppppppppppppp",
"pppppppppppppppppppppppppppppppppppppppiiii5>>>>>>>>>-o                  o->>>>>>>>>5iiiippppppppppppppppppppppppppppppppppppppp",
"ppppppppppppppppppppppppppppppppppppppriiiw>>>>>>>>>;.                    .->>>>>>>>>wiiirpppppppppppppppppppppppppppppppppppppp",
"ppppppppppppppppppppppppppppppppppppppriii4>>>>>>>>:o                      .->>>>>>>>4iiiipppppppppppppppppppppppppppppppppppppp",
"ppppppppppppppppppppppppppppppppppppppiiiw>>>>>>>>>O         X&==*O         X:>>>>>>>>wiiipppppppppppppppppppppppppppppppppppppp",
"ppppppppppppppppppppppppppppppppppppptiii5>>>>>>>>$         .;>>>>>o         #>>>>>>>>5iiitppppppppppppppppppppppppppppppppppppp",
"pppppppppppppppppppppppppppppppppppppiiii<>>>>>>>;          &>>>>>>*          =>>>>>>><iiiippppppppppppppppppppppppppppppppppppp",
"pppppppppppppppppppppppppppppppppppppiiiq>>>>>>>>@          >>>>>>>>          +>>>>>>>>qiiippppppppppppppppppppppppppppppppppppp",
"pppppppppppppppppppppppppppppppppppppiii7>>>>>>>:           >>>>>>>>           ;>>>>>>>7iiippppppppppppppppppppppppppppppppppppp",
"pppppppppppppppppppppppppppppppppppptiii3>>>>>>>&           >>>>>>>>           %>>>>>>>3iiitpppppppppppppppppppppppppppppppppppp",
"pppppppppppppppppppppppppppppppppppptiii2>>>>>>>+           >>>>>>>>           +>>>>>>>2iiitpppppppppppppppppppppppppppppppppppp",
"ppppppppppppppppppppppppppppppppppppiiii>>>>>>>>o           >>>>>>>>           X>>>>>>>>iiiipppppppppppppppppppppppppppppppppppp",
"ppppppppppppppppppppppppppppppppppppiiii>>>>>>>>            >>>>>>>>            >>>>>>>>iiiipppppppppppppppppppppppppppppppppppp",
"ppppppppppppppppppppppppppppppppppppiiii>>>>>>>>            >>>>>>>>            >>>>>>>>iiiipppppppppppppppppppppppppppppppppppp",
"ppppppppppppppppppppppppppppppppppppiiii>>>>>>>>            >>>>>>>>            >>>>>>>>iiiipppppppppppppppppppppppppppppppppppp",
"ppppppppppppppppppppppppppppppppppppiiii>>>>>>>>            >>>>>>>>            >>>>>>>>iiiipppppppppppppppppppppppppppppppppppp",
"ppppppppppppppppppppppppppppppppppppiiii,>>>>>>>o           >>>>>>>>           o>>>>>>>,iiiipppppppppppppppppppppppppppppppppppp",
"pppppppppppppppppppppppppppppppppppptiii2>>>>>>>+           >>>>>>>>           O>>>>>>>2iiitpppppppppppppppppppppppppppppppppppp",
"pppppppppppppppppppppppppppppppppppptiii4>>>>>>>%           >>>>>>>>           %>>>>>>>4iiitpppppppppppppppppppppppppppppppppppp",
"pppppppppppppppppppppppppppppppppppppiii6>>>>>>>;           >>>>>>>>           ->>>>>>>6iiippppppppppppppppppppppppppppppppppppp",
"pppppppppppppppppppppppppppppppppppppiiiq>>>>>>>>O          >>>>>>>>          X>>>>>>>>qiiippppppppppppppppppppppppppppppppppppp",
"pppppppppppppppppppppppppppppppppppppiiii,>>>>>>>=          ->>>>>>;          &>>>>>>>,iiiippppppppppppppppppppppppppppppppppppp",
"ppppppppppppppppppppppppppppppppppppptiii5>>>>>>>>+         +>>>>>>@         X>>>>>>>>5iiiyppppppppppppppppppppppppppppppppppppp",
"ppppppppppppppppppppppppppppppppppppppiii0>>>>>>>>;.         +->>:#          =>>>>>>>>0iiiuppppppppppppppppppppppppppppppppppppp",
"ppppppppppppppppppppppppppppppppppppppiiii2>>>>>>>>*                        $>>>>>>>>2iiiipppppppppppppppppppppppppppppppppppppp",
"pppppppppppppppppppppppppppppppppppppptiii0>>>>>>>>>&                      @>>>>>>>>>0iiitpppppppppppppppppppppppppppppppppppppp",
"pppppppppppppppppppppppppppppppppppppppiiii3>>>>>>>>>-.                  .&>>>>>>>>>3iiiippppppppppppppppppppppppppppppppppppppp",
"ppppppppppppppppppppppppppppppppppppppptiiie,>>>>>>>>>:O                X->>>>>>>>>,eiiiyppppppppppppppppppppppppppppppppppppppp",
"ppppppppppppppppppppppppppppppppppppppppiiii8>>>>>>>>>>>*X            X%:>>>>>>>>>>8iiiipppppppppppppppppppppppppppppppppppppppp",
"ppppppppppppppppppppppppppppppppppppppppuiiii6>>>>>>>>>>>>=#o      o#*>>>>>>>>>>>>6iiiiupppppppppppppppppppppppppppppppppppppppp",
"ppppppppppppppppppppppppppppppppppppppppptiiii4>>>>>>>>>>>>>>>>>>>>>>>>>>>>>>>>>>4iiiirppppppppppppppppppppppppppppppppppppppppp",
"ppppppppppppppppppppppppppppppppppppppppppriiii6>>>>>>>>>>>>>>>>>>>>>>>>>>>>>>>>6iiiiipppppppppppppppppppppppppppppppppppppppppp",
"pppppppppppppppppppppppppppppppppppppppppppiiiii8>>>>>>>>>>>>>>>>>>>>>>>>>>>>>>8iiiiippppppppppppppppppppppppppppppppppppppppppp",
"ppppppppppppppppppppppppppppppppppppppppppppiiiii8<>>>>>>>>>>>>>>>>>>>>>>>>>><8iiiiirppppppppppppppppppppppppppppppppppppppppppp",
"pppppppppppppppppppppppppppppppppppppppppppppriiiie3>>>>>>>>>>>>>>>>>>>>>>>>3eiiiiippppppppppppppppppppppppppppppppppppppppppppp",
"ppppppppppppppppppppppppppppppppppppppppppppppriiiii01>>>>>>>>>>>>>>>>>>>>10iiiiiipppppppppppppppppppppppppppppppppppppppppppppp",
"ppppppppppppppppppppppppppppppppppppppppppppppptiiiiii93>>>>>>>>>>>>>>>>39iiiiiiyppppppppppppppppppppppppppppppppppppppppppppppp",
"ppppppppppppppppppppppppppppppppppppppppppppppppuriiiiiii841>>>>>>>>148iiiiiiiiupppppppppppppppppppppppppppppppppppppppppppppppp",
"pppppppppppppppppppppppppppppppppppppppppppppppppptiiiiiiiiiiiiiiiiiiiiiiiiiirpppppppppppppppppppppppppppppppppppppppppppppppppp",
"pppppppppppppppppppppppppppppppppppppppppppppppppppptiiiiiiiiiiiiiiiiiiiiiiypppppppppppppppppppppppppppppppppppppppppppppppppppp",
"pppppppppppppppppppppppppppppppppppppppppppppppppppppprriiiiiiiiiiiiiiiiiupppppppppppppppppppppppppppppppppppppppppppppppppppppp",
"pppppppppppppppppppppppppppppppppppppppppppppppppppppppppptyiiiiiiiirtpppppppppppppppppppppppppppppppppppppppppppppppppppppppppp",
"pppppppppppppppppppppppppppppppppppppppppppppppppppppppppppppppppppppppppppppppppppppppppppppppppppppppppppppppppppppppppppppppp",
"pppppppppppppppppppppppppppppppppppppppppppppppppppppppppppppppppppppppppppppppppppppppppppppppppppppppppppppppppppppppppppppppp",
"pppppppppppppppppppppppppppppppppppppppppppppppppppppppppppppppppppppppppppppppppppppppppppppppppppppppppppppppppppppppppppppppp",
"pppppppppppppppppppppppppppppppppppppppppppppppppppppppppppppppppppppppppppppppppppppppppppppppppppppppppppppppppppppppppppppppp",
"pppppppppppppppppppppppppppppppppppppppppppppppppppppppppppppppppppppppppppppppppppppppppppppppppppppppppppppppppppppppppppppppp",
"pppppppppppppppppppppppppppppppppppppppppppppppppppppppppppppppppppppppppppppppppppppppppppppppppppppppppppppppppppppppppppppppp",
"pppppppppppppppppppppppppppppppppppppppppppppppppppppppppppppppppppppppppppppppppppppppppppppppppppppppppppppppppppppppppppppppp",
"pppppppppppppppppppppppppppppppppppppppppppppppppppppppppppppppppppppppppppppppppppppppppppppppppppppppppppppppppppppppppppppppp",
"pppppppppppppppppppppppppppppppppppppppppppppppppppppppppppppppppppppppppppppppppppppppppppppppppppppppppppppppppppppppppppppppp",
"pppppppppppppppppppppppppppppppppppppppppppppppppppppppppppppppppppppppppppppppppppppppppppppppppppppppppppppppppppppppppppppppp",
"pppppppppppppppppppppppppppppppppppppppppppppppppppppppppppppppppppppppppppppppppppppppppppppppppppppppppppppppppppppppppppppppp",
"pppppppppppppppppppppppppppppppppppppppppppppppppppppppppppppppppppppppppppppppppppppppppppppppppppppppppppppppppppppppppppppppp",
"pppppppppppppppppppppppppppppppppppppppppppppppppppppppppppppppppppppppppppppppppppppppppppppppppppppppppppppppppppppppppppppppp",
"pppppppppppppppppppppppppppppppppppppppppppppppppppppppppppppppppppppppppppppppppppppppppppppppppppppppppppppppppppppppppppppppp",
"pppppppppppppppppppppppppppppppppppppppppppppppppppppppppppppppppppppppppppppppppppppppppppppppppppppppppppppppppppppppppppppppp",
"pppppppppppppppppppppppppppppppppppppppppppppppppppppppppppppppppppppppppppppppppppppppppppppppppppppppppppppppppppppppppppppppp",
"pppppppppppppppppppppppppppppppppppppppppppppppppppppppppppppppppppppppppppppppppppppppppppppppppppppppppppppppppppppppppppppppp",
"pppppppppppppppppppppppppppppppppppppppppppppppppppppppppppppppppppppppppppppppppppppppppppppppppppppppppppppppppppppppppppppppp",
"pppppppppppppppppppppppppppppppppppppppppppppppppppppppppppppppppppppppppppppppppppppppppppppppppppppppppppppppppppppppppppppppp",
"pppppppppppppppppppppppppppppppppppppppppppppppppppppppppppppppppppppppppppppppppppppppppppppppppppppppppppppppppppppppppppppppp",
"pppppppppppppppppppppppppppppppppppppppppppppppppppppppppppppppppppppppppppppppppppppppppppppppppppppppppppppppppppppppppppppppp",
"pppppppppppppppppppppppppppppppppppppppppppppppppppppppppppppppppppppppppppppppppppppppppppppppppppppppppppppppppppppppppppppppp",
"pppppppppppppppppppppppppppppppppppppppppppppppppppppppppppppppppppppppppppppppppppppppppppppppppppppppppppppppppppppppppppppppp",
"pppppppppppppppppppppppppppppppppppppppppppppppppppppppppppppppppppppppppppppppppppppppppppppppppppppppppppppppppppppppppppppppp",
"pppppppppppppppppppppppppppppppppppppppppppppppppppppppppppppppppppppppppppppppppppppppppppppppppppppppppppppppppppppppppppppppp",
"pppppppppppppppppppppppppppppppppppppppppppppppppppppppppppppppppppppppppppppppppppppppppppppppppppppppppppppppppppppppppppppppp",
"pppppppppppppppppppppppppppppppppppppppppppppppppppppppppppppppppppppppppppppppppppppppppppppppppppppppppppppppppppppppppppppppp",
"pppppppppppppppppppppppppppppppppppppppppppppppppppppppppppppppppppppppppppppppppppppppppppppppppppppppppppppppppppppppppppppppp",
"pppppppppppppppppppppppppppppppppppppppppppppppppppppppppppppppppppppppppppppppppppppppppppppppppppppppppppppppppppppppppppppppp",
"pppppppppppppppppppppppppppppppppppppppppppppppppppppppppppppppppppppppppppppppppppppppppppppppppppppppppppppppppppppppppppppppp",
"pppppppppppppppppppppppppppppppppppppppppppppppppppppppppppppppppppppppppppppppppppppppppppppppppppppppppppppppppppppppppppppppp",
"pppppppppppppppppppppppppppppppppppppppppppppppppppppppppppppppppppppppppppppppppppppppppppppppppppppppppppppppppppppppppppppppp",
"pppppppppppppppppppppppppppppppppppppppppppppppppppppppppppppppppppppppppppppppppppppppppppppppppppppppppppppppppppppppppppppppp",
"pppppppppppppppppppppppppppppppppppppppppppppppppppppppppppppppppppppppppppppppppppppppppppppppppppppppppppppppppppppppppppppppp",
"pppppppppppppppppppppppppppppppppppppppppppppppppppppppppppppppppppppppppppppppppppppppppppppppppppppppppppppppppppppppppppppppp",
"pppppppppppppppppppppppppppppppppppppppppppppppppppppppppppppppppppppppppppppppppppppppppppppppppppppppppppppppppppppppppppppppp"
};
