/* XPM */
static char *result[] = {
/* columns rows colors chars-per-pixel */
"128 128 90 1 ",
"  c #259656",
". c #219853",
"X c #23A258",
"o c #25A95C",
"O c #28B462",
"+ c #2FB467",
"@ c #36B46D",
"# c #3DB573",
"$ c #518A72",
"% c #558975",
"& c #5F867B",
"* c #4CB67E",
"= c #2ECC71",
"- c #2ECD71",
"; c #2ECE72",
": c #39C777",
"> c #33C974",
", c #3FC47A",
"< c #2ED073",
"1 c #2FD174",
"2 c #2FD274",
"3 c #2FD475",
"4 c #30D576",
"5 c #30D777",
"6 c #30D877",
"7 c #31D978",
"8 c #31DB79",
"9 c #31DC7A",
"0 c #32DD7A",
"q c #32DF7B",
"w c #33E17C",
"e c #32E17D",
"r c #33E27C",
"t c #32E27D",
"y c #33E27D",
"u c #44C27E",
"i c #6E8385",
"p c #7F989A",
"a c #4ABF81",
"s c #53B684",
"d c #50BD84",
"f c #5AB789",
"g c #55BA88",
"h c #5BB88B",
"j c #61B58E",
"k c #62B78F",
"l c #72AE98",
"z c #77AB9C",
"x c #7DA99F",
"c c #66B392",
"v c #6CB095",
"b c #69B795",
"n c #70B89A",
"m c #77B8A0",
"M c #39DF81",
"N c #46DA89",
"B c #4DD88D",
"V c #5AD395",
"C c #67CE9D",
"Z c #60D099",
"A c #6ECCA1",
"S c #74C9A5",
"D c #83A6A2",
"F c #89A4A6",
"G c #8AA5A7",
"H c #8BA6A8",
"J c #8CA8AA",
"K c #8DA9AB",
"L c #8EABAD",
"P c #90ACAE",
"I c #86B9AB",
"U c #91AEB0",
"Y c #92AFB1",
"T c #8DBAB1",
"R c #93B0B2",
"E c #94B2B4",
"W c #96B3B5",
"Q c #97B5B7",
"! c #94BAB7",
"~ c #98B6B8",
"^ c #95BDB9",
"/ c #99B8BA",
"( c #9BBABC",
") c #9BBBBD",
"_ c #9CBBBC",
"` c #9CBABD",
"' c #9CBBBD",
"] c #81C4AD",
"[ c #88C2B1",
"{ c None",
/* pixels */
"{{{{{{{{{{{{____''''''''''''''''''''''''''''''''''''''''''''''''''''''''''''''''''''''Cyyyyyyyyyyyyyyyyyyyyyyyyyrrrr{{{{{{{{{{{{",
"{{{{{{{{(''''''''''''''''''''''''''''''''''''''''''''''''''''''''''''''''''''''''''''[yyyyyyyyyyyyyyyyyyyyyyyyyyyyyyyyyw{{{{{{{{",
"{{{{{{`'''''''''''''''''''''''''''''''''''''''''''''''''''''''''''''''''''''''''''''^Nyyyyyyyyyyyyyyyyyyyyyyyyyyyyyyyyyyye{{{{{{",
"{{{{)'''''''''''''''''''''''''''''''''''''''''''''''''''''''''''''''''''''''''''''''Zyyyyyyyyyyyyyyyyyyyyyyyyyyyyyyyyyyyyyyt{{{{",
"{{{`''''''/RPKKKFFFFFFFFFFFFFFFFFFFFFFFFFFFFFFFFFFFFFFFFFFFFFFFFFFFFFFFFFFFFFFFFFFFl============================11136qyyyyyyt{{{",
"{{{'''''QKFFFFFFFFFFFFFFFFFFFFFFFFFFFFFFFFFFFFFFFFFFFFFFFFFFFFFFFFFFFFFFFFFFFFFFFFD>==================================19yyyyy{{{",
"{{'''''UFFFFFFFFFFFFFFFFFFFFFFFFFFFFFFFFFFFFFFFFFFFFFFFFFFFFFFFFFFFFFFFFFFFFFFFFFFu=====================================4yyyye{{",
"{{''''PFFFFFFFFFFFFFFFFFFFFFFFFFFFFFFFFFFFFFFFFFFFFFFFFFFFFFFFFFFFFFFFFFFFFFFFFFFh=======================================3yyyy{{",
"{''''WFFFFFFFFFFFFFFFFFFFFFFFFFFFFFFFFFFFFFFFFFFFFFFFFFFFFFFFFFFFFFFFFFFFFFFFFFFl=========================================8yyye{",
"{''''HFFFFFFFFFFFFFFFFFFFFFFFFFFFFFFFFFFFFFFFFFFFFFFFFFFFFFFFFFFFFFFFFFFFFFFFFFD>=========================================;yyyy{",
")'''WFFFFFFFFFFFFFFFFFFFFFFFFFFFFFFFFFFFFFFFFFFFFFFFFFFFFFFFFFFFFFFFFFFFFFFFFFFu===========================================8yyyt",
"_'''PFFFFFFFFFFFFFFFFFFFFFFFFFFFFFFFFFFFFFFFFFFFFFFFFFFFFFFFFFFFFFFFFFFFFFFFFFh============================================3yyyr",
"''''JFFFFFFFFFFFFFFFFFFFFFFFFFFFFFFFFFFFFFFFFFFFFFFFFFFFFFFFFFFxlllllllllllllc=============================================<yyye",
"''''FFFFFFFFFFFFFFFFFFFFFFFFFFFFFFFFFFFFFFFFFFFFFFFFFFFFFFFFFFc>============================================================yyyy",
"''''FFFFFFFFFFFFFFFFFFFFFFFFFFFFFFFFFFFFFFFFFFFFFFFFFFFFFFFFDd==============================================================yyyy",
"''''FFFFFFFFFFFFFFFFFFFFFFFFFFFFFFFFFFFFFFFFFFFFFFFFFFFFFFFz,===============================================================yyyy",
"''''FFFFFFFFFFFFFFFFFFFFFFFFFFFFFFFFFFFFFFFFFFFFFFFFFFFFFFj>================================================================yyyy",
"''''FFFFFFFFFFFFFFFFFFFFFFFFFFFFFFFFFFFFFFFFFFFFFFFFFFFFDa==================================================================yyyy",
"''''FFFFFFFFFFFFFFFFFFFFFFFFFFFFFFFFFFFFFFFFFFFFFFFFFFFz:===================================================================yyyy",
"''''FFFFFFFFFFFFFFFFFFFFFFFFFFFFFFFFFFFFFFFFFFFFFFFFFFj=====================================================================yyyy",
"''''FFFFFFFFFFFFFFFF''''''''''''''''''''piiiiiiii& ....................................XOOOOOOOOOOOOOOOOOOOO================yyyy",
"''''FFFFFFFFFFFFFFFF'''''''''''''''''''''piiiiii& ....................................XOOOOOOOOOOOOOOOOOOOOO================yyyy",
"''''FFFFFFFFFFFFFFFF''''''''''''''''''''''piiii% ....................................XOOOOOOOOOOOOOOOOOOOOOO================yyyy",
"''''FFFFFFFFFFFFFFFF'''''''''''''''''''''''pii$.....................................XOOOOOOOOOOOOOOOOOOOOOOO================yyyy",
"''''FFFFFFFFFFFFFFFF''''''''''''''''''''''''p$.....................................XOOOOOOOOOOOOOOOOOOOOOOOO================yyyy",
"''''FFFFFFFFFFFFFFFF''''''''''''''''''''''''nX....................................XOOOOOOOOOOOOOOOOOOOOOOOOO================yyyy",
"''''FFFFFFFFFFFFFFFF'''''''''''''''''''''''sOOX..................................XOOOOOOOOOOOOOOOOOOOOOOOOOO================yyyy",
"''''FFFFFFFFFFFFFFFF'''''''''''''''''''''!sOOOOX................................XOOOOOOOOOOOOOOOOOOOOOOOOOOO================yyyy",
"''''FFFFFFFFFFFFFFFF''''''''''''''''''''!#OOOOOOX..............................XOOOOOOOOOOOOOOOOOOOOOOOOOOOO================yyyy",
"''''FFFFFFFFFFFFFFFF*n!''''''''''''''''I#OOOOOOOOX............................XOOOOOOOOOOOOOOOOOOOOOOOOOOOOO================yyyy",
"''''FFFFFFFFzFFFFFFFOOO#bT''''''''''''I+OOOOOOOOOOX..........................XOOOOOOOOOOOOOOOOOOOOOOOOOOOOOO================yyyy",
"''''FFFFFFz:=:jDFFFFOOOOOO#kI''''''''n+OOOOOOOOOOOOX........................XOOOOOOOOOOOOOOOOOOOOOOOOOOOOOOO================yyyy",
"''''FFFFFg=====>dxFFOOOOOOOOO@fI''''nOOOOOOOOOOOOOOOX......................XOOOOOOOOOOOOOOOOOOOOOOOOOOOOOOOO================yyyy",
"''''FFFz:=========ucOOOOOOOOOOOO+smsOOOOOOOOOOOOOOOOOX....................XOOOOOOOOOOOOOOOOOOOOOOOOOOOOOOOOO================yyyy",
"''''FFg=============OOOOOOOOOOOOOOOOOOOOOOOOOOOOOOOOOOX..................XOOOOOOOOOOOOOOOOOOOOOOOOOOOOOOOOOO================yyyy",
"''''z:==============OOOOOOOOOOOOOOOOOOOOOOOOOOOOOOOOOOOX................XOOOOOOOOOOOOOOOOOOOOOOOOOOOOOOOOOOO================yyyy",
"'''C================OOOOOOOOOOOOOOOOOOOOOOOOOOOOOOOOOOOOX..............XOOOOOOOOOOOOOOOOOOOOOOOOOOOOOOOOOOOO================yyyy",
"'^By================OOOOOOOOOOOOOOOOOOOOOOOOOOOOOOOOOOOOOX............XOOOOOOOOOOOOOOOOOOOOOOOOOOOOOOOOOOOOO================yyyy",
"]Myy================OOOOOOOOOOOOOOOOOOOOOOOOOOOOOOOOOOOOOOX..........XOOOOOOOOOOOOOOOOOOOOOOOOOOOOOOOOOOOOOO================yyyy",
"yyyy================OOOOOOOOOOOOOOOOOOOOOOOOOOOOOOOOOOOOOOo..........oOOOOOOOOOOOOOOOOOOOOOOOOOOOOOOOOOOOOOO================yyyy",
"yyyy================oOOOOOOOOOOOOOOOOOOOOOOOOOOOOOOOOOOOOo............oOOOOOOOOOOOOOOOOOOOOOOOOOOOOOOOOOOOOo================yyyy",
"yyyy================.oOOOOOOOOOOOOOOOOOOOOOOOOOOOOOOOOOOo..............oOOOOOOOOOOOOOOOOOOOOOOOOOOOOOOOOOOo.================yyyy",
"yyyy================..oOOOOOOOOOOOOOOOOOOOOOOOOOOOOOOOOo................oOOOOOOOOOOOOOOOOOOOOOOOOOOOOOOOOo..================yyyy",
"yyyy================...oOOOOOOOOOOOOOOOOOOOOOOOOOOOOOOo..................oOOOOOOOOOOOOOOOOOOOOOOOOOOOOOOo...================yyyy",
"yyyy================....oOOOOOOOOOOOOOOOOOOOOOOOOOOOOo.........XX.........oOOOOOOOOOOOOOOOOOOOOOOOOOOOOo....================yyyy",
"yyyy================.....oOOOOOOOOOOOOOOOOOOOOOOOOOOo.........XOOX.........oOOOOOOOOOOOOOOOOOOOOOOOOOOo.....================yyyy",
"yyyy================......oOOOOOOOOOOOOOOOOOOOOOOOOo.........XOOOOX.........oOOOOOOOOOOOOOOOOOOOOOOOOo......================yyyy",
"yyyy================.......oOOOOOOOOOOOOOOOOOOOOOOo.........XOOOOOOX.........oOOOOOOOOOOOOOOOOOOOOOOo.......================yyyy",
"yyyy================........oOOOOOOOOOOOOOOOOOOOOo.........XOOOOOOOOX.........oOOOOOOOOOOOOOOOOOOOOo........================yyyy",
"yyyy================.........oOOOOOOOOOOOOOOOOOOo.........XOOOOOOOOOOX.........oOOOOOOOOOOOOOOOOOOo.........================yyyy",
"yyyy================..........oOOOOOOOOOOOOOOOOo.........XOOOOOOOOOOOOX.........oOOOOOOOOOOOOOOOOo..........================yyyy",
"yyyy================...........oOOOOOOOOOOOOOOo.........XOOOOOOOOOOOOOOX.........oOOOOOOOOOOOOOOo...........================yyyy",
"yyyy================............oOOOOOOOOOOOOo.........XOOOOOOOOOOOOOOOOX.........oOOOOOOOOOOOOo............================yyyy",
"yyyy================.............oOOOOOOOOOOo.........XOOOOOOOOOOOOOOOOOOX.........oOOOOOOOOOOo.............================yyyy",
"yyyy================..............oOOOOOOOOo.........XOOOOOOOOOOOOOOOOOOOOX.........oOOOOOOOOo..............================yyyy",
"yyyy================...............oOOOOOOo.........XOOOOOOOOOOOOOOOOOOOOOOX.........oOOOOOOo...............================yyyy",
"yyyy================................oOOOOo.........XOOOOOOOOOOOOOOOOOOOOOOOOX.........oOOOOo................================yyyy",
"yyyy================.................oOOo.........XOOOOOOOOOOOOOOOOOOOOOOOOOOX.........oOOo.................================yyyy",
"yyyy================..................oo.........XOOOOOOOOOOOOOOOOOOOOOOOOOOOOX.........oo..................================yyyy",
"yyyy================............................XOOOOOOOOOOOOOOOOOOOOOOOOOOOOOOX............................================yyyy",
"yyyy================...........................XOOOOOOOOOOOOOOOOOOOOOOOOOOOOOOOOX...........................================yyyy",
"yyyy================..........................XOOOOOOOOOOOOOOOOOOOOOOOOOOOOOOOOOOX..........................================yyyy",
"yyyy================.........................XOOOOOOOOOOOOOOOOOOOOOOOOOOOOOOOOOOOOX.........................================yyyy",
"yyyy================........................XOOOOOOOOOOOOOOOOOOOOOOOOOOOOOOOOOOOOOOX........................================yyyy",
"yyyy================........................oOOOOOOOOOOOOOOOOOOOOOOOOOOOOOOOOOOOOOOo........................================yyyy",
"yyyy================.........................oOOOOOOOOOOOOOOOOOOOOOOOOOOOOOOOOOOOOo.........................================yyyy",
"yyyy================..........................oOOOOOOOOOOOOOOOOOOOOOOOOOOOOOOOOOOo..........................================yyyy",
"yyyy================...........................oOOOOOOOOOOOOOOOOOOOOOOOOOOOOOOOOo...........................================yyyy",
"yyyy================............................oOOOOOOOOOOOOOOOOOOOOOOOOOOOOOOo............................================yyyy",
"yyyy================..................XX.........oOOOOOOOOOOOOOOOOOOOOOOOOOOOOo.........XX..................================yyyy",
"yyyy================.................XOOX.........oOOOOOOOOOOOOOOOOOOOOOOOOOOo.........XOOX.................================yyyy",
"yyyy================................XOOOOX.........oOOOOOOOOOOOOOOOOOOOOOOOOo.........XOOOOX................================yyyy",
"yyyy================...............XOOOOOOX.........oOOOOOOOOOOOOOOOOOOOOOOo.........XOOOOOOX...............================yyyy",
"yyyy================..............XOOOOOOOOX.........oOOOOOOOOOOOOOOOOOOOOo.........XOOOOOOOOX..............================yyyy",
"yyyy================.............XOOOOOOOOOOX.........oOOOOOOOOOOOOOOOOOOo.........XOOOOOOOOOOX.............================yyyy",
"yyyy================............XOOOOOOOOOOOOX.........oOOOOOOOOOOOOOOOOo.........XOOOOOOOOOOOOX............================yyyy",
"yyyy================...........XOOOOOOOOOOOOOOX.........oOOOOOOOOOOOOOOo.........XOOOOOOOOOOOOOOX...........================yyyy",
"yyyy================..........XOOOOOOOOOOOOOOOOX.........oOOOOOOOOOOOOo.........XOOOOOOOOOOOOOOOOX..........================yyyS",
"yyyy================.........XOOOOOOOOOOOOOOOOOOX.........oOOOOOOOOOOo.........XOOOOOOOOOOOOOOOOOOX.........================yMS'",
"yyyy================........XOOOOOOOOOOOOOOOOOOOOX.........oOOOOOOOOo.........XOOOOOOOOOOOOOOOOOOOOX........================M[''",
"yyyy================.......XOOOOOOOOOOOOOOOOOOOOOOX.........oOOOOOOo.........XOOOOOOOOOOOOOOOOOOOOOOX.......===============>['''",
"yyyy================......XOOOOOOOOOOOOOOOOOOOOOOOOX.........oOOOOo.........XOOOOOOOOOOOOOOOOOOOOOOOOX......==============>z''''",
"yyyy================.....XOOOOOOOOOOOOOOOOOOOOOOOOOOX.........oOOo.........XOOOOOOOOOOOOOOOOOOOOOOOOOOX.....=============,DF''''",
"yyyy================....XOOOOOOOOOOOOOOOOOOOOOOOOOOOOX.........oo.........XOOOOOOOOOOOOOOOOOOOOOOOOOOOOX....============,DFF''''",
"yyyy================...XOOOOOOOOOOOOOOOOOOOOOOOOOOOOOOX..................XOOOOOOOOOOOOOOOOOOOOOOOOOOOOOOX...===========uDFFF''''",
"yyyy================..XOOOOOOOOOOOOOOOOOOOOOOOOOOOOOOOOX................XOOOOOOOOOOOOOOOOOOOOOOOOOOOOOOOOX..==========dFFFFF''''",
"yyyy================.XOOOOOOOOOOOOOOOOOOOOOOOOOOOOOOOOOOX..............XOOOOOOOOOOOOOOOOOOOOOOOOOOOOOOOOOOX.==========FFFFFF''''",
"yyyy================XOOOOOOOOOOOOOOOOOOOOOOOOOOOOOOOOOOOOX............XOOOOOOOOOOOOOOOOOOOOOOOOOOOOOOOOOOOOX==========FFFFFF''''",
"yyyy================OOOOOOOOOOOOOOOOOOOOOOOOOOOOOOOOOOOOOOX..........XOOOOOOOOOOOOOOOOOOOOOOOOOOOOOOOOOOOOOO==========FFFFFF''''",
"yyyy================OOOOOOOOOOOOOOOOOOOOOOOOOOOOOOOOOOOOOOo..........oOOOOOOOOOOOOOOOOOOOOOOOOOOOOOOOOOOOOOO==========FFFFFF''''",
"yyyy================OOOOOOOOOOOOOOOOOOOOOOOOOOOOOOOOOOOOOo............oOOOOOOOOOOOOOOOOOOOOOOOOOOOOOOOOOOOOO==========FFFFFF''''",
"yyyy================OOOOOOOOOOOOOOOOOOOOOOOOOOOOOOOOOOOOo..............oOOOOOOOOOOOOOOOOOOOOOOOOOOOOOOOOOOOO==========FFFFFF''''",
"yyyy================OOOOOOOOOOOOOOOOOOOOOOOOOOOOOOOOOOOo................oOOOOOOOOOOOOOOOOOOOOOOOOOOOOOOOOOOO==========FFFFFF''''",
"yyyy================OOOOOOOOOOOOOOOOOOOOOOOOOOOOOOOOOOo..................oOOOOOOOOOOOOOOOOOOOOOOOOOOOOOOOOOO==========FFFFFF''''",
"yyyy================OOOOOOOOOOOOOOOOOOOOOOOOOOOOOOOOOo....................oOOOOOOOOOOOOOOOOOOOOOOOOOOOOOOOOO==========FFFFFF''''",
"yyyy================OOOOOOOOOOOOOOOOOOOOOOOOOOOOOOOOo......................oOOOOOOOOOOOOOOOOOOOOOOOOOOOOOOOO==========FFFFFF''''",
"yyyy================OOOOOOOOOOOOOOOOOOOOOOOOOOOOOOOo........................oOOOOOOOOOOOOOOOOOOOOOOOOOOOOOOO==========FFFFFF''''",
"yyyy================OOOOOOOOOOOOOOOOOOOOOOOOOOOOOOo..........................oOOOOOOOOOOOOOOOOOOOOOOOOOOOOOO==========FFFFFF''''",
"yyyy================OOOOOOOOOOOOOOOOOOOOOOOOOOOOOo............................oOOOOOOOOOOOOOOOOOOOOOOOOOOOOO==========FFFFFF''''",
"yyyy================OOOOOOOOOOOOOOOOOOOOOOOOOOOOo..............................oOOOOOOOOOOOOOOOOOOOOOOOOOOOO==========FFFFFF''''",
"yyyy================OOOOOOOOOOOOOOOOOOOOOOOOOOOo................................oOOOOOOOOOOOOOOOOOOOOOOOOOOO==========FFFFFF''''",
"yyyy================OOOOOOOOOOOOOOOOOOOOOOOOOOo..................................oOOOOOOOOOOOOOOOOOOOOOOOOOO==========FFFFFF''''",
"yyyy================OOOOOOOOOOOOOOOOOOOOOOOOOo....................................oOOOOOOOOOOOOOOOOOOOOOOOOO==========FFFFFF''''",
"yyyy================OOOOOOOOOOOOOOOOOOOOOOOOo......................................oOOOOOOOOOOOOOOOOOOOOOOOO==========FFFFFF''''",
"yyyy================OOOOOOOOOOOOOOOOOOOOOOOo........................................oOOOOOOOOOOOOOOOOOOOOOOO==========FFFFFF''''",
"yyyy================OOOOOOOOOOOOOOOOOOOOOOo..........................................oOOOOOOOOOOOOOOOOOOOOOO=========cFFFFFF''''",
"yyyy================OOOOOOOOOOOOOOOOOOOOOo............................................oOOOOOOOOOOOOOOOOOOOOO========cFFFFFFF''''",
"yyyy================OOOOOOOOOOOOOOOOOOOOo..............................................oOOOOOOOOOOOOOOOOOOOO=======cFFFFFFFF''''",
"yyyy=============================================================================================================>vFFFFFFFFF''''",
"yyyy============================================================================================================>zFFFFFFFFFF''''",
"yyyy===========================================================================================================>zFFFFFFFFFFF''''",
"yyyy==========================================================================================================>zFFFFFFFFFFFF''''",
"yyyy=========================================================================================================>zFFFFFFFFFFFFF''''",
"yyyy========================================================================================================>zFFFFFFFFFFFFFF''''",
"eyyy;======================================================================================================>zFFFFFFFFFFFFFFH''''",
"ryyy1==============================================================================jlhd,==================,xFFFFFFFFFFFFFFFK'''_",
"tyyy5============================================================================>vFFFFFFljgu============,DFFFFFFFFFFFFFFFFY'''_",
"{yyy0===========================================================================>zFFFFFFFFFFFFzchu>=====,DFFFFFFFFFFFFFFFFF~'''{",
"{yyyy1=========================================================================>zFFFFFFFFFFFFFFFFFFxvhaaDFFFFFFFFFFFFFFFFFK''''{",
"{eyyy9========================================================================:zFFFFFFFFFFFFFFFFFFFFFFFFFFFFFFFFFFFFFFFFFFQ'''`{",
"{{yyyy4======================================================================,DFFFFFFFFFFFFFFFFFFFFFFFFFFFFFFFFFFFFFFFFFFU''''{{",
"{{eyyyy3====================================================================,DFFFFFFFFFFFFFFFFFFFFFFFFFFFFFFFFFFFFFFFFFFP'''''{{",
"{{{yyyyy8-=================================================================aDFFFFFFFFFFFFFFFFFFFFFFFFFFFFFFFFFFFFFFFFFGW'''''{{{",
"{{{tyyyyyy72-=============================================================dFFFFFFFFFFFFFFFFFFFFFFFFFFFFFFFFFFFFFFFFGLE''''''`{{{",
"{{{{tyyyyyyyyyyyyyyyyyyyyyyyyyyyyyyyyyyyyyyyyyyyyyyyyyyyyyyyyyyyyyyyyyyyyV'''''''''''''''''''''''''''''''''''''''''''''''''_{{{{",
"{{{{{{eyyyyyyyyyyyyyyyyyyyyyyyyyyyyyyyyyyyyyyyyyyyyyyyyyyyyyyyyyyyyyyyyyA'''''''''''''''''''''''''''''''''''''''''''''''''{{{{{{",
"{{{{{{{tyyyyyyyyyyyyyyyyyyyyyyyyyyyyyyyyyyyyyyyyyyyyyyyyyyyyyyyyyyyyyyyS''''''''''''''''''''''''''''''''''''''''''''''''`{{{{{{{",
"{{{{{{{{{{tryyyyyyyyyyyyyyyyyyyyyyyyyyyyyyyyyyyyyyyyyyyyyyyyyyyyyyyyyM['''''''''''''''''''''''''''''''''''''''''''''(_{{{{{{{{{{"
};
