/* XPM */
static char *result[] = {
/* columns rows colors chars-per-pixel */
"128 128 24 1 ",
"  c #BDB9B7",
". c #BFBBB8",
"X c #C2BEBB",
"o c #C5C1BE",
"O c #C8C3BF",
"+ c #C7C3C0",
"@ c #C9C5C2",
"# c #CDC9C6",
"$ c #CFCCC8",
"% c #D1CECA",
"& c #D5D1CE",
"* c #D7D4D0",
"= c #D9D6D2",
"- c #DCD9D6",
"; c #DFDCD8",
": c #E1DEDA",
"> c #E4E1DD",
", c #E7E4E0",
"< c #E8E6E2",
"1 c #EBE9E5",
"2 c #EEEDE9",
"3 c #F0EFEA",
"4 c #F3F1ED",
"5 c None",
/* pixels */
"55555555555555555555555555555555555555555555555555555555555555555555555555555555555555555555555555555555555555555555555555555555",
"55555555555555555555555555555555555555555555555555555555555555555555555555555555555555555555555555555555555555555555555555555555",
"55555555555555555555555555555555555555555555555555555555555555555555555555555555555555555555555555555555555555555555555555555555",
"55555555555555555555555555555555555555555555555555555555555555555555555555555555555555555555555555555555555555555555555555555555",
"55555555555555555555555555555555555555555555555555555555555555555555555555555555555555555555555555555555555555555555555555555555",
"55555555555555555555555555555555555555555555555555555555555555555555555555555555555555555555555555555555555555555555555555555555",
"55555555555555555555555555555555555555555555555555555555555555555555555555555555555555555555555555555555555555555555555555555555",
"55555555555555555555555555555555555555555555555555555555555555555<5<515<55555555555555555555555555555555555555555555555555555555",
"5555555555555555555555555555555555555555555555555555555555555555<515151515555555555555555555555555555555555555555555555555555555",
"555555555555555555555555555555555555555555555555555555555555555151515151515<5555555555555555555555555555555555555555555555555555",
"555555555555555555555555555555555555555555555555555555555555>5<51515152515<5<555555555555555555555555555555555555555555555555555",
"55555555555555555555555555555555555555555555555555555555555>5>5<51525151515<5>55555555555555555555555555555555555555555555555555",
"555555555555555555555555555555,5>5<55555555555555555555555:5>5<5151525152515<5>5555555555555555555555555555555555555555555555555",
"55555555555555555555555555555,5,5<5>5>5555555555555555555:5>5<5<51515151515<5>5>555555555555555555555555555555555555555555555555",
"5555555555555555555555555555,5<5<5>5>5>55555555555555555;5:5>5<515151515151515>5:55555555555555555555555555555555555555555555555",
"555555555555555555555555555,5<5<5<5<5>5:555555555555555;5;5>5>5<51515251515<5>5>5:5555555555555>5>5<5555555555555555555555555555",
"55555555555555555555555555,5<5<5<5,5>5>5;5=55555555555=5;5:5>5,5<515151515<5>5>5:5;555555555:5>5>5,5<5<5555555555555555555555555",
"5555555555555555555555555,5<5<5<5,5,5>5:5;5=555555555=5-5;5:5>5<5<51515<5<5,5>5:5:5;5-5;5;5;5:5>5,5<5<5<555555555555555555555555",
"55555555555555555555555555,5<5<5<5<5>5>5;5;5*5&5%5&5&5=5;5;5:5>5,5<5<5<5<5,5>5>5:5;5=5=5;5;5:5>5>5<5<5<5<55555555555555555555555",
"5555555555555555555555555<5<5<5<5,5,5>5:5;5=5&5&5&5&5=5=5;5:5>5>5,5,5<5,5,5>5>5:5;5;5;5;5;5:5>5>5<5<5151515555555555555555555555",
"555555555555555555555555,5,5<5<5,5,5>5:5;5-5&5&5&5&5&5=5=5;5:5:5>5>5,5>5>5>5>5:5;5;5;5;5;5:5>5>5<5151515155555555555555555555555",
"55555555555555555555555<5,5<5<5<5,5>5>5:5;5=5*5&5&5&5*5=5;5;5:5:5>5>5>5>5>5>5>5:5;5;5;5;5;5:5>5,5<515151515555555555555555555555",
"555555555555555555555555,5,5<5<5,5,5>5:5;5-5*5&5&5&5*5=5-5;5;5;5>5>5>5>5>5:5:5:5;5;5;5;5;5>5>5,5<5<51515151555555555555555555555",
"55555555555555555555555>5,5,5,5,5,5>5>5;5-5=5*5&5&5*5=5=5-5-5;5;5;5:5:5>5:5:5:5;5;5;5;5:5:5>5>5,5<515151515<55555555555555555555",
"5555555555555555555555>5,5,5,5,5,5>5>5:5;5-5=5*5*5*5=5=5=5-5;5;5;5;5:5:5:5;5;5;5;5;5;5:5>5>5>5<5<5151515151555555555555555555555",
"555555555555555555555>5<5,5,5<5,5>5>5>5;5;5=5=5*5=5=5=5=5-5-5-5;5;5;5;5;5;5;5;5:5:5:5:5:5>5>5,5<51515151515<55555555555555555555",
"5555555555555555555555>5>5<5,5,5,5>5>5:5;5;5=5=5=5=5=5=5-5;5-5-5;5;5;5;5;5;5;5;5:5:5:5>5>5,5,5<5151515151515<5555555555555555555",
"555555555555555555555>5>5,5,5,5,5,5>5:5:5;5;5=5=5=5=5=5;5=5=5-5-5-5;5-5;5;5;5;5:5:5:5>5>5,5,5<5151515151515<55555555555555555555",
"55555555555555555555>5>5>5,5,5,5,5>5>5>5;5;5-5-5=5-5;5-5-5-5-5-5=5-5-5-5;5;5;5;5:5>5>5,5,5,5<515151515151515<5555555555555555555",
"5555555555555555555>5>5,5,5,5,5>5>5>5>5:5;5;5;5;5;5-5;5;5-5-5=5-5=5-5-5-5-5;5;5:5>5>5>5,5<5<515151525251515<5<555555555555555555",
"55555555555555555555>5>5,5,5,5,5,5>5:5:5:5;5;5;5;5;5;5;5-5-5=5=5-5=5=5-5-5-5;5:5>5>5,5,5<5<515151515151515<5<5555555555555555555",
"5555555555555555555>5>5,5>5,5,5>5>5>5>5:5:5:5;5;5;5;5;5;5-5-5=5=5=5=5=5-5-5;5;5:5>5>5,5<5151515151515151515<5,555555555555555555",
"555555555555555555>5>5>5,5,5,5>5>5>5>5>5:5:5:5:5;5;5;5;5-5=5=5=5=5=5=5=5=5;5;5:5>5,5,5<5151515151515151515<5,5555555555555555555",
"55555555555555555:5>5>5>5>5>5>5,5>5,5>5>5:5:5:5:5:5;5;5;5-5=5=5*5*5*5*5=5=5-5;5:5>5,5<5151525152515151515<5,5>555555555555555555",
"5555555555555555>5:5>5>5>5,5,5,5>5>5>5>5>5:5:5:5:5:5;5;5-5=5*5*5&5&5*5*5=5-5;5:5>5,5<5<5151525152515151515<5<5>55555555555555555",
"55555555555555555:5>5>5>5>5>5>5,5>5>5>5>5>5>5>5:5:5:5;5;5-5*5&5&5&5&5&5&5=5=5;5:5>5,5<51515151515151515<5<5>5>555555555555555555",
"5555555555555555:5>5>5>5,5>5>5>5,5>5>5>5>5>5>5>5:5:5;5;5-5*5&5&5%5&5&5&5&5=5-5;5>5>5<51515152515151515<5<5>5>5>55555555555555555",
"555555555555555:5:5>5>5>5>5>5>5>5>5>5>5>5>5>5>5:5:5:5;5-5*5&5&5$5$5$5$5&5*5=5;5;5>5,5<5151525151515<5<5,5,5>5>555555555555555555",
"5555555555555555:5:5>5>5>5>5>5>5>5>5>5:5>5>5>5>5>5:5;5;5=5&5%5$5$5$5$5$5%5&5=5;5:5>5,5<5151515151515<5,5>5>5>5:55555555555555555",
"555555555555555:5:5:5>5>5>5>5>5>5>5>5>5>5:5>5>5>5:5:5;5=5&5%5$5#5#5@5#5$5%5&5=5;5>5,5<51515151515<5<5,5>5>5:5;5;5555555555555555",
"55555555555555;5;5:5:5:5:5>5>5>5>5>5>5>5>5:5>5>5>5:5;5-5*5%5$5@5+5+5@5@5$5%5*5=5;5>5,5<515151515<5<5,5>5>5:5:5;55555555555555555",
"555555555555555;5;5:5:5:5:5:5:5>5:5:5:5:5>5>5>5>5:5;5;5*5&5$5@5+5o5o5+5@5$5%5*5;5:5>5,5<5151515<5<5,5>5>5:5;5;5=5555555555555555",
"55555555555555;5;5;5;5;5:5:5:5:5:5:5:5:5:5>5>5:5:5:5;5=5&5$5@5+5o5o5X5+5@5$5&5=5;5>5,5<5<51515<5<5,5>5:5:5;5;5-55555555555555555",
"555555555555555-5;5;5;5;5;5;5:5:5:5:5:5:5:5>5>5:5:5;5=5*5%5#5+5X5.5.5X5+5@5$5*5-5;5>5,5<5<5<5<5<5,5>5>5:5;5;5=555555555555555555",
"55555555555555=5;5;5;5;5;5;5;5;5;5;5;5:5:5:5:5>5:5;5-5=5&5$5+5X5.5.5.5X5o5#5&5*5;5:5>5<5<5<5<5,5,5>5:5:5;5-5=5=55555555555555555",
"555555555555555=5=5=5=5;5;5;5;5;5;5;5;5;5:5:5:5:5:5;5-5&5%5@5o5X5 5 5.5X5@5$5&5-5;5>5>5,5<5<5,5,5>5>5:5;5=5=5&555555555555555555",
"5555555555555555=5=5=5=5=5=5-5;5;5;5;5;5;5:5:5:5:5;5;5=5&5$5+5X5.5 5.5X5+5#5%5*5;5:5>5,5,5,5,5,5>5>5:5;5=5=5&5555555555555555555",
"555555555555555&5&5&5*5*5=5=5=5-5=5;5;5;5;5:5:5:5;5;5=5*5%5@5o5.5 5.5.5X5+5$5&5-5;5>5>5,5,5,5,5>5>5;5;5=5=5&5&555555555555555555",
"5555555555555555&5&5&5&5&5*5=5=5=5=5;5;5;5;5:5:5:5;5;5=5&5$5+5o5.5 5.5X5+5$5%5=5;5:5>5,5,5,5>5>5>5;5:5=5*5*5%5555555555555555555",
"55555555555555555%5%5%5%5&5&5&5=5=5=5=5;5;5;5:5:5;5;5=5*5%5$5+5X5X5X5X5o5#5%5*5-5;5>5>5>5>5,5>5>5:5;5=5*5&5%55555555555555555555",
"555555555555555555$5$5%5%5%5&5&5&5*5=5=5-5;5;5;5;5;5;5=5*5%5$5+5o5X5o5+5@5%5*5-5;5:5>5>5>5>5>5:5:5;5=5=5&5%555555555555555555555",
"5555555555555555555$5@5$5$5%5%5%5&5&5=5=5;5;5;5;5;5;5;5=5&5%5#5@5+5+5@5#5%5*5=5;5:5:5>5>5>5>5:5:5;5;5=5&5%5555555555555555555555",
"55555555555555555555@5@5@5$5$5%5%5&5&5=5=5;5;5;5;5;5;5-5=5&5%5$5@5@5@5$5%5*5=5;5:5>5>5>5>5>5:5;5;5-5=5&5%55555555555555555555555",
"55555555555555555555555O5@5@5$5$5%5%5&5=5=5;5;5;5;5;5;5-5=5*5%5$5$5$5$5%5*5=5;5;5:5>5>5>5:5:5;5;5=5=5&5%555555555555555555555555",
"555555555555555555555555o5+5@5$5$5%5%5&5=5-5;5;5;5;5;5;5-5=5*5&5%5%5&5&5*5-5;5:5>5>5:5>5:5:5;5;5-5=5*5%5555555555555555555555555",
"5555555555555555555555555o5o5@5@5$5%5&5&5=5=5-5;5;5;5;5;5;5-5=5*5*5*5*5=5;5;5:5>5>5>5>5:5:5;5;5=5=5&5&55555555555555555555555555",
"55555555555555555555555555X5o5+5@5$5%5%5*5=5-5;5;5;5;5;5;5;5;5=5=5=5-5;5;5:5>5>5>5>5>5:5:5;5;5=5=5&5&555555555555555555555555555",
"55555555555555555555555555555o5O5@5$5%5&5*5=5-5-5;5;5;5:5:5;5;5;5;5;5;5:5>5>5>5,5>5>5:5:5;5;5=5*5&5%5555555555555555555555555555",
"555555555555555555555555555555o5+5@5$5%5&5*5=5-5-5;5;5:5:5:5>5:5:5:5>5>5>5,5,5,5,5>5>5:5;5;5=5*5&5%5%555555555555555555555555555",
"5555555555555555555555555555555X5+5@5$5%5&5*5=5=5;5;5:5:5>5>5>5>5>5,5>5,5<5<5<5,5,5>5:5;5;5=5&5&5%5$5555555555555555555555555555",
"555555555555555555555555555555X5o5@5#5$5%5&5*5=5=5;5;5:5>5,5,5,5<5,5<515151515<5,5>5:5;5-5=5*5&5%5$55555555555555555555555555555",
"5555555555555555555555555555555X5o5@5$5$5%5*5*5=5-5;5:5>5,5,5,5<515151515151515<5,5>5;5;5=5&5%5%5$555555555555555555555555555555",
"55555555555555555555555555555555X5o5@5$5%5%5&5*5=5-5;5:5>5,5<5151515152525252515<5>5:5;5=5&5%5%5$5555555555555555555555555555555",
"555555555555555555555555555555555X5O5@5$5%5%5&5*5=5;5:5>5,5<5152525252525252515<5,5:5;5=5*5&5$5@5@555555555555555555555555555555",
"5555555555555555555555555555555555X5O5@5$5%5%5&5*5=5;5:5>5<515252525454545252515<5>5:5-5&5%5$5$5@5555555555555555555555555555555",
"55555555555555555555555555555555555o5@5@5$5$5%5&5*5-5;5>5,515152545454545453525<5>5:5;5=5&5%5#5o55555555555555555555555555555555",
"555555555555555555555555555555555555o5O5@5$5$5%5&5=5;5:5,51515253545454545352515<5>5;5=5&5%5@5O555555555555555555555555555555555",
"5555555555555555555555555555555555555o5@5@5$5$5%5*5=5;5>5,515253545454545453525<5>5;5=5&5%5#5@5o55555555555555555555555555555555",
"55555555555555555555555555555555555555o5+5@5@5%5%5*5-5:5,5<525354545454545352515<5:5;5*5%5$5+5o555555555555555555555555555555555",
"555555555555555555555555555555555555555o5+5@5$5%5&5=5;5:5,515253545454545453515<5>5;5=5&5$5@5o5555555555555555555555555555555555",
"5555555555555555555555555555555555555555o5@5@5$5%5&5=5;5>5<515354545454545452515>5:5=5&5$5@5o55555555555555555555555555555555555",
"55555555555555555555555555555555555555555o5+5@5$5%5*5;5:5,515254545454545452515,5>5;5*5%5$5o5X5555555555555555555555555555555555",
"5555555555555555555555555555555555555555X5o5@5@5$5&5=5;5>5<5153545454545453515<5>5;5=5%5$5@5X55555555555555555555555555555555555",
"55555555555555555555555555555555555555555X5o5@5$5%5*5-5:5,515253545454545352515,5:5-5*5%5@5o555555555555555555555555555555555555",
"555555555555555555555555555555555555555555X5o5@5$5%5=5;5>5<5153545454545352515<5>5;5=5%5$5o5555555555555555555555555555555555555",
"5555555555555555555555555555555555555555555X5O5@5$5*5=5:5,5152535454545452515<5,5:5=5&5$5+5o555555555555555555555555555555555555",
"555555555555555555555555555555555555555555X5o5@5$5%5*5;5>5,5152545454535252515,5:5;5=5%5@5o5555555555555555555555555555555555555",
"5555555555555555555555555555555555555555555X5o5@5$5&5=5;5>5<52535454535252515,5>5;5=5%5$5@55555555555555555555555555555555555555",
"55555555555555555555555555555555555555555555X5+5@5%5*5;5:5,51525353535352515<5>5;5-5&5%5@5o5555555555555555555555555555555555555",
"5555555555555555555555555555555555555555555X5o5@5$5&5*5;5>5<515253535352515<5,5:5;5=5&5$5+55555555555555555555555555555555555555",
"55555555555555555555555555555555555555555555X5o5@5%5*5-5;5>515152535252515<5,5>5;5=5&5%5@555555555555555555555555555555555555555",
"555555555555555555555555555555555555555555555o5@5$5%5=5;5>5<515252525251515,5>5:5;5=5%5$5555555555555555555555555555555555555555",
"5555555555555555555555555555555555555555555555o5@5$5&5=5:5>5<5152525251515<5>5:5;5=5&5$5@555555555555555555555555555555555555555",
"555555555555555555555555555555555555555555555X5@5$5%5*5;5:5,5151525251515<5>5>5;5=5&5%5#5555555555555555555555555555555555555555",
"5555555555555555555555555555555555555555555555o5@5$5&5=5;5>5,51525151515<5>5>5;5-5*5%5$55555555555555555555555555555555555555555",
"55555555555555555555555555555555555555555555555+5$5%5*5;5:5>5<515151515<5,5>5;5-5=5&5%555555555555555555555555555555555555555555",
"555555555555555555555555555555555555555555555555@5$5&5=5;5>5,5<5151515<5>5:5;5;5=5&5%5555555555555555555555555555555555555555555",
"55555555555555555555555555555555555555555555555O5$5%5&5-5:5>5,5151515<5,5>5:5;5=5&5%55555555555555555555555555555555555555555555",
"555555555555555555555555555555555555555555555555@5$5%5=5;5:5>5,5<5<5<5,5>5:5;5=5*5&555555555555555555555555555555555555555555555",
"5555555555555555555555555555555555555555555555555$5%5&5-5;5>5,5<5<5,5,5>5:5;5=5=5&5$55555555555555555555555555555555555555555555",
"555555555555555555555555555555555555555555555555@5$5&5*5-5:5>5>5,5,5>5>5:5;5=5*5&5%555555555555555555555555555555555555555555555",
"5555555555555555555555555555555555555555555555555@5%5&5=5;5:5>5>5,5>5>5:5;5=5*5&5%5555555555555555555555555555555555555555555555",
"55555555555555555555555555555555555555555555555555$5&5*5-5;5>5>5>5>5>5:5;5=5*5&5%55555555555555555555555555555555555555555555555",
"555555555555555555555555555555555555555555555555555%5&5=5-5;5:5>5>5:5:5;5=5*5&5%555555555555555555555555555555555555555555555555",
"55555555555555555555555555555555555555555555555555$5%5*5-5;5;5:5:5:5;5;5=5=5&5%5555555555555555555555555555555555555555555555555",
"555555555555555555555555555555555555555555555555555%5&5*5-5;5;5:5:5;5;5=5*5&5%55555555555555555555555555555555555555555555555555",
"5555555555555555555555555555555555555555555555555555&5*5=5;5;5;5;5;5;5=5*5&5%555555555555555555555555555555555555555555555555555",
"555555555555555555555555555555555555555555555555555%5&5=5=5-5-5;5;5;5=5*5%5%5555555555555555555555555555555555555555555555555555",
"5555555555555555555555555555555555555555555555555555%5&5=5-5-5-5-5=5=5*5&5$5$555555555555555555555555555555555555555555555555555",
"55555555555555555555555555555555555555555555555555555&5*5=5=5=5=5=5*5&5%5%5$5555555555555555555555555555555555555555555555555555",
"555555555555555555555555555555555555555555555555555555&5*5=5=5=5*5*5&5%5$5#55555555555555555555555555555555555555555555555555555",
"5555555555555555555555555555555555555555555555555555555&5&5&5&5&5&5&5%5$5$555555555555555555555555555555555555555555555555555555",
"555555555555555555555555555555555555555555555555555555%5&5&5&5&5&5%5$5$5@5@55555555555555555555555555555555555555555555555555555",
"5555555555555555555555555555555555555555555555555555555&5%5&5%5%5%5$5$5#5@555555555555555555555555555555555555555555555555555555",
"55555555555555555555555555555555555555555555555555555555%5%5%5%5$5$5$5@5@5555555555555555555555555555555555555555555555555555555",
"555555555555555555555555555555555555555555555555555555555%5$5$5$5$5#5@5+55555555555555555555555555555555555555555555555555555555",
"5555555555555555555555555555555555555555555555555555555555$5$5$5@5@5@5o5o5555555555555555555555555555555555555555555555555555555",
"5555555555555555555555555555555555555555555555555555555555555@5@5@5@5o5o55555555555555555555555555555555555555555555555555555555",
"55555555555555555555555555555555555555555555555555555555555555@5@5O5o5X555555555555555555555555555555555555555555555555555555555",
"555555555555555555555555555555555555555555555555555555555555555o5o5o5o5555555555555555555555555555555555555555555555555555555555",
"5555555555555555555555555555555555555555555555555555555555555555o5X5X55555555555555555555555555555555555555555555555555555555555",
"55555555555555555555555555555555555555555555555555555555555555555555555555555555555555555555555555555555555555555555555555555555",
"55555555555555555555555555555555555555555555555555555555555555555555555555555555555555555555555555555555555555555555555555555555",
"55555555555555555555555555555555555555555555555555555555555555555555555555555555555555555555555555555555555555555555555555555555",
"55555555555555555555555555555555555555555555555555555555555555555555555555555555555555555555555555555555555555555555555555555555",
"55555555555555555555555555555555555555555555555555555555555555555555555555555555555555555555555555555555555555555555555555555555",
"55555555555555555555555555555555555555555555555555555555555555555555555555555555555555555555555555555555555555555555555555555555",
"55555555555555555555555555555555555555555555555555555555555555555555555555555555555555555555555555555555555555555555555555555555",
"55555555555555555555555555555555555555555555555555555555555555555555555555555555555555555555555555555555555555555555555555555555",
"55555555555555555555555555555555555555555555555555555555555555555555555555555555555555555555555555555555555555555555555555555555",
"55555555555555555555555555555555555555555555555555555555555555555555555555555555555555555555555555555555555555555555555555555555",
"55555555555555555555555555555555555555555555555555555555555555555555555555555555555555555555555555555555555555555555555555555555",
"55555555555555555555555555555555555555555555555555555555555555555555555555555555555555555555555555555555555555555555555555555555",
"55555555555555555555555555555555555555555555555555555555555555555555555555555555555555555555555555555555555555555555555555555555",
"55555555555555555555555555555555555555555555555555555555555555555555555555555555555555555555555555555555555555555555555555555555",
"55555555555555555555555555555555555555555555555555555555555555555555555555555555555555555555555555555555555555555555555555555555",
"55555555555555555555555555555555555555555555555555555555555555555555555555555555555555555555555555555555555555555555555555555555",
"55555555555555555555555555555555555555555555555555555555555555555555555555555555555555555555555555555555555555555555555555555555"
};
