/* XPM */
static char *result[] = {
/* columns rows colors chars-per-pixel */
"128 128 72 1 ",
"  c #5F5151",
". c #635555",
"X c #665A5A",
"o c #695D5D",
"O c #6C5F60",
"+ c #6E6262",
"@ c #716665",
"# c #756B6B",
"$ c #796E6D",
"% c #7B706E",
"& c #7D7372",
"* c #7F7879",
"= c #807676",
"- c #827876",
"; c #847B7A",
": c #887F7D",
"> c #87807E",
", c #89817E",
"< c #8C8483",
"1 c #8F8887",
"2 c #908786",
"3 c #918887",
"4 c #948C8B",
"5 c #988F8E",
"6 c #97908F",
"7 c #99918E",
"8 c #979190",
"9 c #9B9493",
"0 c #9F9897",
"q c #9F9A98",
"w c #A09796",
"e c #A09997",
"r c #A39C9B",
"t c #A6A19F",
"y c #A8A29F",
"u c #A6A2A0",
"i c #ABA4A3",
"p c #AEA9A6",
"a c #AFAAA8",
"s c #B0AAA7",
"d c #B2ADAB",
"f c #B5B1AE",
"g c #B8B3AF",
"h c #B7B2B0",
"j c #BAB5B3",
"k c #BDB9B6",
"l c #BFBBB9",
"z c #C2BDBB",
"x c #C5C1BE",
"c c #C7C3C0",
"v c #C9C5C3",
"b c #CDC9C6",
"n c #CFCBC9",
"m c #D1CECB",
"M c #D4D1CE",
"N c #D6D3D1",
"B c #D9D6D3",
"V c #DCD9D6",
"C c #DEDCD9",
"Z c #E1DEDB",
"A c #E4E1DE",
"S c #E6E4E1",
"D c #E9E6E3",
"F c #EBEAE6",
"G c #EEEDE9",
"H c #F0EFEB",
"J c #F3F2ED",
"K c #F6F5F1",
"L c #F8F7F2",
"P c #FBFAF5",
"I c #FEFDF8",
"U c None",
/* pixels */
"UUUUUUUUUUUUUUUUUUUUUUUUUUUUUUUUUUUUUUUUUUUUUUUUUUUUUUUUUUUUUUUUUUUUUUUUUUUUUUUUUUUUUUUUUUUUUUUUUUUUUUUUUUUUUUUUUUUUUUUUUUUUUUUU",
"UUUUUUUUUUUUUUUUUUUUUUUUUUUUUUUUUUUUUUUUUUUUUUUUUUUUUUUUUUUUUUUUUUUUUUUUUUUUUUUUUUUUUUUUUUUUUUUUUUUUUUUUUUUUUUUUUUUUUUUUUUUUUUUU",
"UUUUUUUUUUUUUUUUUUUUUUUUUUUUUUUUUUUUUUUUUUUUUUUUUUUUUUUUUUUUUUUUUUUUUUUUUUUUUUUUUUUUUUUUUUUUUUUUUUUUUUUUUUUUUUUUUUUUUUUUUUUUUUUU",
"UUUUUUUUUUUUUUUUUUUUUUUUUUUUUUUUUUUUUUUUUUUUUUUUUUUUUUUUUUUUUUUUUUUUUUUUUUUUUUUUUUUUUUUUUUUUUUUUUUUUUUUUUUUUUUUUUUUUUUUUUUUUUUUU",
"UUUUUUUUUUUUUUUUUUUUUUUUUUUUUUUUUUUUUUUUUUUUUUUUUUUUUUUUUUUUUUUUUUaffffdUUUUUUUUUUUUUUUUUUUUUUUUUUUUUUUUUUUUUUUUUUUUUUUUUUUUUUUU",
"UUUUUUUUUUUUUUUUUUUUUUUUUUUUUUUUUUUUUUUUUUUUUUUUUUUUUUUUUUUUUUUUsjcMBBBmxfUUUUUUUUUUUUUUUUUUUUUUUUUUUUUUUUUUUUUUUUUUUUUUUUUUUUUU",
"UUUUUUUUUUUUUUUUUUUUUUUUUUUUUUUUUUUUUUUUUUUUUUUUUUUUUUUUUUUUUUUdcNAFGGFABvgUUUUUUUUUUUUUUUUUUUUUUUUUUUUUUUUUUUUUUUUUUUUUUUUUUUUU",
"UUUUUUUUUUUUUUUUUUUUUUUUUUUUUUUjkjUUUUUUUUUUUUUUUUUUUUUUUUUUUUdxNSGKPKJGDCbjUUUUUUUUUUUUUUUUUUUUUUUUUUUUUUUUUUUUUUUUUUUUUUUUUUUU",
"UUUUUUUUUUUUUUUUUUUUUUUUUUUUUgcNVBvkUUUUUUUUUUUUUUUUUUUUUUUUUkvNAJLPPPPJGDCbfUUUUUUUUUUUUUUUUUUUUUUUUUUUUUUUUUUUUUUUUUUUUUUUUUUU",
"UUUUUUUUUUUUUUUUUUUUUUUUUUUUjbCFGGAnlUUUUUUUUUUUUUUUUUUUUUUUkmBSGJPPIPPPLJFCxaUUUUUUUUUUUUUUUUUUUUUUUUUUUUUUUUUUUUUUUUUUUUUUUUUU",
"UUUUUUUUUUUUUUUUUUUUUUUUUUUdcBFJKKGSnjUUUUUUUUUUUUUUUUUUUUUfbZSGJPIIIIIIPKGDBjUUUUUUUUUUUUUUUUUUUUUUUUUUUUUUUUUUUUUUUUUUUUUUUUUU",
"UUUUUUUUUUUUUUUUUUUUUUUUUUUjMAJPPPKFBcUUUUUUUUUUUUUUUUUUUUUkNDDHPPIIIIIIPPKGAbfUUUUUUUUUUUUUUUUUUzxxljUUUUUUUUUUUUUUUUUUUUUUUUUU",
"UUUUUUUUUUUUUUUUUUUUUUUUUUfvBDJPIPPGSmlUUUUUUUUUUUUUUUUUUUsvCFHLPIIIIIIIPPPJFBjUUUUUUUUUUUUUUUUcMCDACNzUUUUUUUUUUUUUUUUUUUUUUUUU",
"UUUUUUUUUUUUUUUUUUUUUUUUUUlNDJPPPIPKDCnlUUUUUUUUUUUUUUUUUtjmDHLPPIIIIIIIIPPKGAxaUUUUUUUUUUUUUUbVDJJKJFBxUUUUUUUUUUUUUUUUUUUUUUUU",
"UUUUUUUUUUUUUUUUUUUUUUUUUUvAGKPPPIPKFZNcUUUUUUUUUUUUUUUUUizVHLPIIIIIIIIIIIPPJAMgUUUUUUUUUUUUUbVFJKPPLJSMjUUUUUUUUUUUUUUUUUUUUUUU",
"UUUUUUUUUUUUUUUUUUUUUUUUUjMDJPPLKPPPKDZmkUUUUUUUUUUUUUUU9dmAJPIIIIIIIIIIIIPLJAVkUUUUUUUUUUUUUMSHJKPPPKFBcaUUUUUUUUUUUUUUUUUUUUUU",
"UUUUUUUUUUUUUUUUUUUUUUUUUkBGLPPJHLPPLHSBxaUUUUUUUUUUUUU4rzBHPPIIIIIIIIIIIIIPJDCcaUUUUUUUUUUUcVDHFJPPILHAmkUUUUUUUUUUUUUUUUUUUUUU",
"UUUUUUUUUUUUUUUUUUUUUUUUdxVGLPPJGJLPPKGZnaUUUUUUUUUUUUU9smAKPPIIIIIIIIIIIIPPLDCbdUUUUUUUUUUUxVDGDJLIIILGCbfUUUUUUUUUUUUUUUUUUUUU",
"UUUUUUUUUUUUUUUUUUUUUUUUfnAJPPLJFHLLPLJFNjUUUUUUUUUUUUrizBFJPIPIIIIIIIIIIIPPPGAMjUUUUUUUUUUrxVDSAHLIIPPKDBkUUUUUUUUUUUUUUUUUUUUU",
"UUUUUUUUUUUUUUUUUUUUUUUUjBDJPPLJFDHLPPLHAxuUUUUUUUUUUUdzvZJKPPPPPPIIIIIIPPPPLJDBxiUUUUUUUU1rcVSAZJLIIIILJAbUUUUUUUUUUUUUUUUUUUUU",
"UUUUUUUUUUUUUUUUUUUUUUUUxAGLLLJJFZDJPPPJAbu1UUUUUUUUUdzvMAJPJJGGJLIIIPPPKLPPPKGCbaUUUUUUU44ubZZCZHPPIIIPKFNkUUUUUUUUUUUUUUUUUUUU",
"UUUUUUUUUUUUUUUUUUUUUUUgmFLPPJJJFVZFKPLJSMu>UUUUUUUUikvmVDHHDBmMAJPPIPJGAFFJLPGAMf9UUUUU9qrhMSZBCHPPIIPPLGVlUUUUUUUUUUUUUUUUUUUU",
"UUUUUUUUUUUUUUUUUUUUUUUkBGLPLJGJFVVZHPPKDNd>#UUUUUUedxbMADFAbgydxAJPIJAMzznAJKKFBl03UU7eifdxVSCBCHPPIIIIPGZcUUUUUUUUUUUUUUUUUUUU",
"UUUUUUUUUUUUUUUUUUUUUUgvCJLPLGGJGCNBDKLLGCl1##$&:26iznmZDDDBf09efMGLLGMdryfbAKKGAbt437tdlzxNADZBCHLIPPPPLJAmkUUUUUUUUUUUUUUUUUUU",
"UUUUUUUUUUUUUUUUUUUUUUlMAJPPJGFJJZMMZHJKHZv5=+=-49izbmZSFAZcu460sbFKKFxr67ylVJKKDNfyydzzbbmZGGZVBFLPPPKLPJANzUUUUUUUUUUUUUUUUUUU",
"UUUUUUUUUUUUUUUUUUUUUUvVFKPLJAAJHZnnNSHKJDMy===2wsjmNVSHGFCg816qsbDKPAz036tanGKKGCxddzzmmBZHJHACBFLPPKHKPJFZzUUUUUUUUUUUUUUUUUUU",
"UUUUUUUUUUUUUUUUUUUUUlMAGLPLFAAGJAnbbZGKJFZf<-2wdzmVZDHLKGVa416qsbFLKAz9<49yzAKKJAMlkxmNVDHLLHAZBFKPKKHLPKJAxUUUUUUUUUUUUUUUUUUU",
"UUUUUUUUUUUUUUUUUUUUUxVFJPPJFBVGHSMzcBDJLHSvw25yzmVZDHLPLJCa867qfMGLKFx0166rkAJPJDCMnMCASHLPLHSVMDKLKKHKPPJDbUUUUUUUUUUUUUUUUUUU",
"UUUUUUUUUUUUUUUUUUUUkmZGKPPKAMVGJFNccMDHJJHZgrrzbZDDJLPPLJAjq80yxCHKKFmy648yzAKLJGABBZDJJLPIKHANmDKKHGFHPPJDmUUUUUUUUUUUUUUUUUUU",
"UUUUUUUUUUUUUUUUUUUUzBAFKLLJAMBGJFBbcmAFJPJAbddzmSFHKPPPKJDbartkMAFFHGCkr79pbFKPPJDCBZFJLIIPKGANMDKKHFSGJPPGMkUUUUUUUUUUUUUUUUUU",
"UUUUUUUUUUUUUUUUUUUlmCAFHKLHCnVHJGBMcnZDHPJFMzgvZDHHLPPLGJHZblxMAAVnCGAMkiazCJKPJJGAAAFJPIIPKFANVGKPHAZDJPKGMkUUUUUUUUUUUUUUUUUU",
"UUUUUUUUUUUUUUUUUUUxCAAAGKKFNxCJKFVNvbZDFLJFBzzbZHHJPPLHCFJJFAAFFVlfxAJFCMMVGJJGLPJGFFGJPIPPKDAADHLPGCCSJLPJBzUUUUUUUUUUUUUUUUUU",
"UUUUUUUUUUUUUUUUUUxMDDZDGKJAMxAKLGVBnbBDFKKFZNxnZGGJLPKFmZGLKJKJDcu8aNGJJGGJKJDSJLLLKHHKPPLLHFDHKPPPFVVSJKPJAxUUUUUUUUUUUUUUUUUU",
"UUUUUUUUUUUUUUUUUUbAFAZFGKGCxxALLHZAMbMZFKKHGZmnCDDJPPJDcnDJPPLJZj81qcDKLLLLKGVCHLPPKJJKPPLJDZAJLPPLFBCDJPPJAmUUUUUUUUUUUUUUUUUU",
"UUUUUUUUUUUUUUUUUxVDFZAFJJFBxmAKLHAABMZAHKKHHDBmBDDJKPKAlkBGKPPJZzuqacDLPPPLHCbNHLPPKGGKPPLGCVAJPPPKFBCFJIPKGMgUUUUUUUUUUUUUUUUU",
"UUUUUUUUUUUUUUUUxMAFDZDGJJDMxNHLLHAZBBZAJKLKJDZNBDFJPPKAjulZJLPLJZmbmCHPPPLJAblNHLPLKFFHLPLGCBAJPPPKDNCHKIPLGMfUUUUUUUUUUUUUUUUU",
"UUUUUUUUUUUUUUUxmZDGAAHJKJAbxBHLLJAAMBZAHLLKJFZBCDGKPPJAf8yxAKPPKJFFFJLPPPKDnaaNHLPPLGHJLPPHAVAHPPPKAnVFJPPLGMfUUUUUUUUUUUUUUUUU",
"UUUUUUUUUUUUUUkbBDHGAFHLKFBxxAJPLJAZmmZDHKLLJDBZDFJLPPKZa61ubFKPLLLKKLPPPLDMfqaNHPPPLHJKPPLKDZDHKPPHZbMDJPPPHMgtUUUUUUUUUUUUUUUU",
"UUUUUUUUUUUUUkbVAHJHAHJJJAMxxAPPPJGAbxNAHHKKJDBZDGJPPPKZf1*4gAJKKLLLLPPPHSMhq8aCLPPPLKHKLPPKFZDDHKLHCcmAHLPPJVzyUUUUUUUUUUUUUUUU",
"UUUUUUUUUUUpkbVAJLJHJJJKJAbkbAPPPKGAbznZDHJKJDNBFGJLPPKAf<%>pVFFDFFFGGKHSnf8>8hAKPPPLHGHLPPKFDFDFKPHCxnZFLPPKAxfUUUUUUUUUUUUUUUU",
"UUUUUUUUUifkcBSHLLJGHHJJGNxjMGPPPJFZzzzNZGHLKDMBSFHLPPKDl1&*uBZMccnmMBDSna8*>8xDLPPLHDZHLPPKFGGDGKPHCxvCFKPPKFBxdUUUUUUUUUUUUUUU",
"UUUUUUUUUdlvMAHLLLHGHHJHAbglCJPPPJFZvszmZDJLLDmMSGHKPILDx4$*rnNluuqrujBVjq>*>qnGLPPLFCBFLPPLGDAFHKPHClxCDKPPPJAnkUUUUUUUUUUUUUUU",
"UUUUUUUUUaxnBFLPPLLJJJHABxgxALPIPJSZzdgzZFJLKGMbVFKLPPLFv8##4klu8<*;>qvndq<*>uNHPPPJZNMFLLLKGAZDHPPHZclVFJKKLKFCnkUUUUUUUUUUUUUU",
"UUUUUUUUUukvBDJLLLLLJJFAmzkMGLIPPJSZvszvZDKLLGNxBDKLIPLGn9#+&48<*#++#1djq8>*>hZKPPLHCbmFLPPKGZCFKPPKSckNSDDDGGGDVxUUUUUUUUUUUUUU",
"UUUUUUUUUUakcCFJKLLLJHABxgxAJPIIPKDZvsfvZHLPLHBznDKKPPPHBq&++$&#+o..o#>1>*&*5zDLPPLGVvmGLPLKGZCGKPPKSchvMbxvMCDFAnjUUUUUUUUUUUUU",
"UUUUUUUUUUUUdcVSFJLLJAVmzgmDLPPIPKDZxiszZHPPLHZzvSHKPPPJCa<#@OOOX..XoX+++@#*tMHLPPKFNcMGLPLKGCCHLPPKDcaafiydlxMAANxUUUUUUUUUUUUU",
"UUUUUUUUUUUUUUcBAFJKGZbzgxZHPPPIPKDZxysxZHPPLHZzcCGHLPPKSl4*#OX  .ooX.XXOO$1jZHPPLHDmzNGLLKHDVCGJPPLDbu0q06UUUxMCBbkUUUUUUUUUUUU",
"UUUUUUUUUUUUUUUcNZDFZmzddbAJPIIIPKDZxyszZFLPPHZzcVDHKPPLFbq;@X  .o++o..XOO&qbDLPPKGZmzBHLLHGZNBDHLPKDbu4q6UUUUUxMBMxfUUUUUUUUUUU",
"UUUUUUUUUUUUUUUlbMZANxfydmDJPPPPPJDZziszBFKPLHZzzMFHJPPPHNi>@  X++@+oXoXo+;aBHKPLHDZvzZHLKHFCmMAGLLLSvy566UUUUUUxmMbgUUUUUUUUUUU",
"UUUUUUUUUUUUUUUUgxmNbgr9ixBAFHJPLHZZzyszMDJLLFVzzmSHJLPPKAh1#OO@@++@++oX+#6xAJLPLHAZvzZJLKHGAmmAGLLJZvy2<3UUUUUUUkxxgqUUUUUUUUUU",
"UUUUUUUUUUUUUUUUtszxzi739yjxmVAGHGZZzrizNDKPKFZzhbZGHLPPLDx9*#**#+++@@+++*uMFJPPLGZVvcZKLKGFSBMAGLLLDbi2;-UUUUUUUUUpq<UUUUUUUUUU",
"UUUUUUUUUUUUUUUU60sjsw2247UUgkvNZSZBfydzZHLLLFZjhcVDHLPPLHNp1*44*@++#$***8zCFKPPLGABvcAKLLGFABmSHLPLDMd5;%UUUUUUUUUUUUUUUUUUUUUU",
"UUUUUUUUUUUUUUUUU5wye2;:,UUUUUydzMZMdsznZHLPLHZzdxBSFLPPPKAxtrjj8&##*6uuqdMAHKPPLHAMczAKPLHFZBMDKPPJDmje<=UUUUUUUUUUUUUUUUUUUUUU",
"UUUUUUUUUUUUUUUUU:,52;==UUUUUU5wizbvsdzmZGKLPJSzdzNZFHPPPLGNljMmu>$*8abbkbVAHPPPPJAMzzAJLLHGZBmFJLLHAmzy3-UUUUUUUUUUUUUUUUUUUUUU",
"UUUUUUUUUUUUUUUUU;=--=@=UUUUUU45wrffwszNZFKLPJSzdlmCDHLPPPKDNMZBa>&;qlVZBZSDJPPIPHAbfzSKPLHFZBmAHJHGZmzs5,UUUUUUUUUUUUUUUUUUUUUU",
"UUUUUUUUUUUUUUUUUU===##UUUUUUUwrr9955yzBAGLPPLSzdkbVDHKLLLLKGFGZh4><tcDGFGDFJPIPPJAvdzAKLLHABBmCSZZVmzfrUUUUUUUUUUUUUUUUUUUUUUUU",
"UUUUUUUUUUUUUUUUUUUU==UUUUUUUUrdsr2:2icCFJKLPKAlphvCGGHJJJLLLLKDvprthNGKKJFGKPIIPJZvdcDJKJSCnNbvvzzzUUUUUUUUUUUUUUUUUUUUUUUUUUUU",
"UUUUUUUUUUUUUUUUUUUUUUUUUUUUUUfzzd42wsbAGHLLPJAlphvCDGJJHJLLPPPJSBmnBDKLPKGJKPPIPHZvdvDJLGCmcmcsr9UUUUUUUUUUUUUUUUUUUUUUUUUUUUUU",
"UUUUUUUUUUUUUUUUUUUUUUUUUUUUUUgxcf95rzMSGGKLLHZkihbCDHJHFHLLPIIPKJGGJKPPPKGJLIIILHZcgbDLLGBmzmct3,UUUUUUUUUUUUUUUUUUUUUUUUUUUUUU",
"UUUUUUUUUUUUUUUUUUUUUUUUUUUUUUpdstwizcCFGGKLLHZjidvCGHJFZAKLIIIPPLPKPPIPPPKKPIPPKGBcfbFKLHBbzmvp4,UUUUUUUUUUUUUUUUUUUUUUUUUUUUUU",
"UUUUUUUUUUUUUUUUUUUUUUUUUUUUUU249wyhbNZFGJLLLHCdrdvZHJHSVZGLLPIIPIPIIIIIILLLIIPPKDVcgnFLLGBbkbnje2UUUUUUUUUUUUUUUUUUUUUUUUUUUUUU",
"UUUUUUUUUUUUUUUUUUUUUUUUUUUUUU=-2wdxNCSGHKLLLHBpwdmSJJGVMVFKPPIIIIPIIIIIIPKPIIIPLFBzdmFLLHVbkbMxiwUUUUUUUUUUUUUUUUUUUUUUUUUUUUUU",
"UUUUUUUUUUUUUUUUUUUUUUUUUUUUUU$$2rzbVSDGHKKLLHNiwhNDJJDmnBSJLPPIIIIIIIIIPLKLIIIPJDBzhmFLLJZmkvmxseUUUUUUUUUUUUUUUUUUUUUUUUUUUUUU",
"UUUUUUUUUUUUUUUUUUUUUUUUUUUUUU=$,rdvBZAAAASGHDmtwhNDJJSnnBAHLPPIIPPPIIIIIPPPPIIPLDNzhmGLPJDmgfks0UUUUUUUUUUUUUUUUUUUUUUUUUUUUUUU",
"UUUUUUUUUUUUUUUUUUUUUUUUUUUUUUU&;5ijcvclhhzMCAburjNDJHCbMBAGLPPIPKLPIIIIIIPIIIIPKFBzhnFKKLFMaw93,UUUUUUUUUUUUUUUUUUUUUUUUUUUUUUU",
"UUUUUUUUUUUUUUUUUUUUUUUUUUUUUUUUU<18qq0818rdlvlrilNSHFBmVCDJLIIILKLLIIIIIIIIIIIIPHZchbAGJJFni433<UUUUUUUUUUUUUUUUUUUUUUUUUUUUUUU",
"UUUUUUUUUUUUUUUUUUUUUUUUUUUUUUUUUUUUUUUU<8uhfap9ixBDHDNmCDGKPIPPLHKLPIIIIIIIIIIPPKAvfzMZADZvi55w8UUUUUUUUUUUUUUUUUUUUUUUUUUUUUUU",
"UUUUUUUUUUUUUUUUUUUUUUUUUUUUUUUUUUUUUUUU18fczi99avCDFSbMDHHLPIIILHKPIIIIIIIIIIIIPJDbirihzbMzu538rUUUUUUUUUUUUUUUUUUUUUUUUUUUUUUU",
"UUUUUUUUUUUUUUUUUUUUUUUUUUUUUUUUUUUUUUUUU9hnmh89fvBSDCxMDJJLPPIPLKKPPIIIIIIIIIIIPJDby59risgfr2;:3UUUUUUUUUUUUUUUUUUUUUUUUUUUUUUU",
"UUUUUUUUUUUUUUUUUUUUUUUUUUUUUUUUUUUUUUUUU0fnBl0qhvNASNlNFJJKPIIPPKKPIIIIIIIIIIIPLHDni9tstwwr5<%$*UUUUUUUUUUUUUUUUUUUUUUUUUUUUUUU",
"UUUUUUUUUUUUUUUUUUUUUUUUUUUUUUUUUUUUUUUUU9anVxrulnVAAmlMFJHLPIIIPLLPIIPPLIIIIIPPKGDMatjzhtw5<:%$UUUUUUUUUUUUUUUUUUUUUUUUUUUUUUUU",
"UUUUUUUUUUUUUUUUUUUUUUUUUUUUUUUUUUUUUUUUUrivNlrizmVZZbjMGJKLPPIIPPLIPIPPKKLIIIIPJFDNdicmcdrUUUUUUUUUUUUUUUUUUUUUUUUUUUUUUUUUUUUU",
"UUUUUUUUUUUUUUUUUUUUUUUUUUUUUUUUUUUUUUUUUUixnjrfvMVZZclmFKKLPIIIIILPIPPKGGKIIIILJDSNdyzbnjyUUUUUUUUUUUUUUUUUUUUUUUUUUUUUUUUUUUUU",
"UUUUUUUUUUUUUUUUUUUUUUUUUUUUUUUUUUUUUUUUUUuxcirjnmNCVxjmGKKPPIIIILKLPPPLDZHLPIILHDABfrizbjrUUUUUUUUUUUUUUUUUUUUUUUUUUUUUUUUUUUUU",
"UUUUUUUUUUUUUUUUUUUUUUUUUUUUUUUUUUUUUUUUUUulkqrlmbmCVljmDKLPIIIIPLKKPIPJDBDLLIPKHDABzw9dzgeUUUUUUUUUUUUUUUUUUUUUUUUUUUUUUUUUUUUU",
"UUUUUUUUUUUUUUUUUUUUUUUUUUUUUUUUUUUUUUUUUUuju4rlbxbVNjdbDJKLPIIIILJKPPLKSNCHPILKHDDZzr5wds0UUUUUUUUUUUUUUUUUUUUUUUUUUUUUUUUUUUUU",
"UUUUUUUUUUUUUUUUUUUUUUUUUUUUUUUUUUUUUUUUUUru22ixbjvVNhavDHHLPPIIPLKJLPPKSMBGLPLJHHDAbs539e4UUUUUUUUUUUUUUUUUUUUUUUUUUUUUUUUUUUUU",
"UUUUUUUUUUUUUUUUUUUUUUUUUUUUUUUUUUUUUUUUUU11*2dbvhcBNdabDHJLPIIIILKKPPPLSnmDKPLJJHSZmg9<<2:UUUUUUUUUUUUUUUUUUUUUUUUUUUUUUUUUUUUU",
"UUUUUUUUUUUUUUUUUUUUUUUUUUUUUUUUUUUUUUUUUUU&*wzmxjvVmadmDHHKPPIIIPLLPPPJAbcSKPLJKHSZVzy3;&$UUUUUUUUUUUUUUUUUUUUUUUUUUUUUUUUUUUUU",
"UUUUUUUUUUUUUUUUUUUUUUUUUUUUUUUUUUUUUUUUUUU$>icNzjbZMdhmFJHJKPPIIIPPPIPKAbzCHLLKJHAZVcs5;$@UUUUUUUUUUUUUUUUUUUUUUUUUUUUUUUUUUUUU",
"UUUUUUUUUUUUUUUUUUUUUUUUUUUUUUUUUUUUUUUUUUU&3sbMjjnZMafMGJGFGLPIIIIPPPPKDvkBGPPLJFAZBcf0>%@UUUUUUUUUUUUUUUUUUUUUUUUUUUUUUUUUUUUU",
"UUUUUUUUUUUUUUUUUUUUUUUUUUUUUUUUUUUUUUUUUUU;4dvnhjmZMahBGJHDFKPIIIILLPIKDbjMGKPPKGDAVbki5=$UUUUUUUUUUUUUUUUUUUUUUUUUUUUUUUUUUUUU",
"UUUUUUUUUUUUUUUUUUUUUUUUUUUUUUUUUUUUUUUUUUUU6szvdjmVbajVGKKGGLPPIILLJPPKGmkbFLPPKGDDVmzdq>-UUUUUUUUUUUUUUUUUUUUUUUUUUUUUUUUUUUUU",
"UUUUUUUUUUUUUUUUUUUUUUUUUUUUUUUUUUUUUUUUUUUUUrddyjmVvijVFJKJKPIIIIPKGKPLGMjxAKPLGAADZmzgr3UUUUUUUUUUUUUUUUUUUUUUUUUUUUUUUUUUUUUU",
"UUUUUUUUUUUUUUUUUUUUUUUUUUUUUUUUUUUUUUUUUUUUUU00rjMVxikNDJKHHLPIIIIKJKPLGMjkAKLKDVBZVvkdr8UUUUUUUUUUUUUUUUUUUUUUUUUUUUUUUUUUUUUU",
"UUUUUUUUUUUUUUUUUUUUUUUUUUUUUUUUUUUUUUUUUUUUUUU4wkNVxpkNSGGSSJPIIIPKJKPLGMhjCJLJSmcNmzdiUUUUUUUUUUUUUUUUUUUUUUUUUUUUUUUUUUUUUUUU",
"UUUUUUUUUUUUUUUUUUUUUUUUUUUUUUUUUUUUUUUUUUUUUUUUqzNNzszNZGGZVFLPIIILKPILGMjfBHKGBzdlkddUUUUUUUUUUUUUUUUUUUUUUUUUUUUUUUUUUUUUUUUU",
"UUUUUUUUUUUUUUUUUUUUUUUUUUUUUUUUUUUUUUUUUUUUUUUUqjmmkdxNAGFVmAJPPIIPPPPLGNfaBGHDmdqtrtUUUUUUUUUUUUUUUUUUUUUUUUUUUUUUUUUUUUUUUUUU",
"UUUUUUUUUUUUUUUUUUUUUUUUUUUUUUUUUUUUUUUUUUUUUUUU7szxfpvZDHGVbCHLPIPPKPPPFMfpNDGSvi858UUUUUUUUUUUUUUUUUUUUUUUUUUUUUUUUUUUUUUUUUUU",
"UUUUUUUUUUUUUUUUUUUUUUUUUUUUUUUUUUUUUUUUUUUUUUUUU7rtqubZFJHVbMFLIPPKJKPKFmdibSSBzt85UUUUUUUUUUUUUUUUUUUUUUUUUUUUUUUUUUUUUUUUUUUU",
"UUUUUUUUUUUUUUUUUUUUUUUUUUUUUUUUUUUUUUUUUUUUUUUUUU:21wzVDJJZvbDLPPPKHJPJDbdrknnchrUUUUUUUUUUUUUUUUUUUUUUUUUUUUUUUUUUUUUUUUUUUUUU",
"UUUUUUUUUUUUUUUUUUUUUUUUUUUUUUUUUUUUUUUUUUUUUUUUUU=:,0zmAHJAbbDKPPPPJJKJAbd9qiadUUUUUUUUUUUUUUUUUUUUUUUUUUUUUUUUUUUUUUUUUUUUUUUU",
"UUUUUUUUUUUUUUUUUUUUUUUUUUUUUUUUUUUUUUUUUUUUUUUUUU;,2yxBAGJAbvZKPIIPJGJHZvd949rUUUUUUUUUUUUUUUUUUUUUUUUUUUUUUUUUUUUUUUUUUUUUUUUU",
"UUUUUUUUUUUUUUUUUUUUUUUUUUUUUUUUUUUUUUUUUUUUUUUUUU:<7gMAGHHDvzZJPIPKGDGGAnhr45UUUUUUUUUUUUUUUUUUUUUUUUUUUUUUUUUUUUUUUUUUUUUUUUUU",
"UUUUUUUUUUUUUUUUUUUUUUUUUUUUUUUUUUUUUUUUUUUUUUUUUU:2yvZGKJHAbzVHPPPKGADGAmzp95UUUUUUUUUUUUUUUUUUUUUUUUUUUUUUUUUUUUUUUUUUUUUUUUUU",
"UUUUUUUUUUUUUUUUUUUUUUUUUUUUUUUUUUUUUUUUUUUUUUUUUU;4fMAJKKJAnkNHKPPJDBZFDBvsq4UUUUUUUUUUUUUUUUUUUUUUUUUUUUUUUUUUUUUUUUUUUUUUUUUU",
"UUUUUUUUUUUUUUUUUUUUUUUUUUUUUUUUUUUUUUUUUUUUUUUUUU-9xCAJLLHAmzbDLPLJCNNDDCvd03UUUUUUUUUUUUUUUUUUUUUUUUUUUUUUUUUUUUUUUUUUUUUUUUUU",
"UUUUUUUUUUUUUUUUUUUUUUUUUUUUUUUUUUUUUUUUUUUUUUUUUU;tvADJLLJAmzvSKPLGCbvVZNci4<UUUUUUUUUUUUUUUUUUUUUUUUUUUUUUUUUUUUUUUUUUUUUUUUUU",
"UUUUUUUUUUUUUUUUUUUUUUUUUUUUUUUUUUUUUUUUUUUUUUUUUU<smADJLPJANzzZJPKGVvlNNvf01UUUUUUUUUUUUUUUUUUUUUUUUUUUUUUUUUUUUUUUUUUUUUUUUUUU",
"UUUUUUUUUUUUUUUUUUUUUUUUUUUUUUUUUUUUUUUUUUUUUUUUUU6dmAGGJPJDNzzNGLKFBxhcca01UUUUUUUUUUUUUUUUUUUUUUUUUUUUUUUUUUUUUUUUUUUUUUUUUUUU",
"UUUUUUUUUUUUUUUUUUUUUUUUUUUUUUUUUUUUUUUUUUUUUUUUUU9fbAGHLPJDNzgmFKJSmjuuq4<UUUUUUUUUUUUUUUUUUUUUUUUUUUUUUUUUUUUUUUUUUUUUUUUUUUUU",
"UUUUUUUUUUUUUUUUUUUUUUUUUUUUUUUUUUUUUUUUUUUUUUUUUUUylMAFJJHFNzavDGGZna81<;UUUUUUUUUUUUUUUUUUUUUUUUUUUUUUUUUUUUUUUUUUUUUUUUUUUUUU",
"UUUUUUUUUUUUUUUUUUUUUUUUUUUUUUUUUUUUUUUUUUUUUUUUUUUUyjvCDHFANzijZFDZbi1<>UUUUUUUUUUUUUUUUUUUUUUUUUUUUUUUUUUUUUUUUUUUUUUUUUUUUUUU",
"UUUUUUUUUUUUUUUUUUUUUUUUUUUUUUUUUUUUUUUUUUUUUUUUUUUUUUizNAAZbhigBDDZbi164UUUUUUUUUUUUUUUUUUUUUUUUUUUUUUUUUUUUUUUUUUUUUUUUUUUUUUU",
"UUUUUUUUUUUUUUUUUUUUUUUUUUUUUUUUUUUUUUUUUUUUUUUUUUUUUUUikvbvzdudMSDZna6q0UUUUUUUUUUUUUUUUUUUUUUUUUUUUUUUUUUUUUUUUUUUUUUUUUUUUUUU",
"UUUUUUUUUUUUUUUUUUUUUUUUUUUUUUUUUUUUUUUUUUUUUUUUUUUUUUUUUffssprsnAFAma9qeUUUUUUUUUUUUUUUUUUUUUUUUUUUUUUUUUUUUUUUUUUUUUUUUUUUUUUU",
"UUUUUUUUUUUUUUUUUUUUUUUUUUUUUUUUUUUUUUUUUUUUUUUUUUUUUUUUUUt0rreuxZFSNd9q0UUUUUUUUUUUUUUUUUUUUUUUUUUUUUUUUUUUUUUUUUUUUUUUUUUUUUUU",
"UUUUUUUUUUUUUUUUUUUUUUUUUUUUUUUUUUUUUUUUUUUUUUUUUUUUUUUUUUU99948fCGFBhq44UUUUUUUUUUUUUUUUUUUUUUUUUUUUUUUUUUUUUUUUUUUUUUUUUUUUUUU",
"UUUUUUUUUUUUUUUUUUUUUUUUUUUUUUUUUUUUUUUUUUUUUUUUUUUUUUUUUUUU6<;<rMFGVlr1<UUUUUUUUUUUUUUUUUUUUUUUUUUUUUUUUUUUUUUUUUUUUUUUUUUUUUUU",
"UUUUUUUUUUUUUUUUUUUUUUUUUUUUUUUUUUUUUUUUUUUUUUUUUUUUUUUUUUUUUU%&8cDGCci<,UUUUUUUUUUUUUUUUUUUUUUUUUUUUUUUUUUUUUUUUUUUUUUUUUUUUUUU",
"UUUUUUUUUUUUUUUUUUUUUUUUUUUUUUUUUUUUUUUUUUUUUUUUUUUUUUUUUUUUUUU#<jZFZbp2:UUUUUUUUUUUUUUUUUUUUUUUUUUUUUUUUUUUUUUUUUUUUUUUUUUUUUUU",
"UUUUUUUUUUUUUUUUUUUUUUUUUUUUUUUUUUUUUUUUUUUUUUUUUUUUUUUUUUUUUUUU>iBDZmd3<UUUUUUUUUUUUUUUUUUUUUUUUUUUUUUUUUUUUUUUUUUUUUUUUUUUUUUU",
"UUUUUUUUUUUUUUUUUUUUUUUUUUUUUUUUUUUUUUUUUUUUUUUUUUUUUUUUUUUUUUUU<tbDAms4,UUUUUUUUUUUUUUUUUUUUUUUUUUUUUUUUUUUUUUUUUUUUUUUUUUUUUUU",
"UUUUUUUUUUUUUUUUUUUUUUUUUUUUUUUUUUUUUUUUUUUUUUUUUUUUUUUUUUUUUUUUUtxZAmi,UUUUUUUUUUUUUUUUUUUUUUUUUUUUUUUUUUUUUUUUUUUUUUUUUUUUUUUU",
"UUUUUUUUUUUUUUUUUUUUUUUUUUUUUUUUUUUUUUUUUUUUUUUUUUUUUUUUUUUUUUUUUqgBBxt,UUUUUUUUUUUUUUUUUUUUUUUUUUUUUUUUUUUUUUUUUUUUUUUUUUUUUUUU",
"UUUUUUUUUUUUUUUUUUUUUUUUUUUUUUUUUUUUUUUUUUUUUUUUUUUUUUUUUUUUUUUUUUpmMk0,UUUUUUUUUUUUUUUUUUUUUUUUUUUUUUUUUUUUUUUUUUUUUUUUUUUUUUUU",
"UUUUUUUUUUUUUUUUUUUUUUUUUUUUUUUUUUUUUUUUUUUUUUUUUUUUUUUUUUUUUUUUUUycMk0UUUUUUUUUUUUUUUUUUUUUUUUUUUUUUUUUUUUUUUUUUUUUUUUUUUUUUUUU",
"UUUUUUUUUUUUUUUUUUUUUUUUUUUUUUUUUUUUUUUUUUUUUUUUUUUUUUUUUUUUUUUUUUpxmg0UUUUUUUUUUUUUUUUUUUUUUUUUUUUUUUUUUUUUUUUUUUUUUUUUUUUUUUUU",
"UUUUUUUUUUUUUUUUUUUUUUUUUUUUUUUUUUUUUUUUUUUUUUUUUUUUUUUUUUUUUUUUUUplbf9UUUUUUUUUUUUUUUUUUUUUUUUUUUUUUUUUUUUUUUUUUUUUUUUUUUUUUUUU",
"UUUUUUUUUUUUUUUUUUUUUUUUUUUUUUUUUUUUUUUUUUUUUUUUUUUUUUUUUUUUUUUUUUyjxa6UUUUUUUUUUUUUUUUUUUUUUUUUUUUUUUUUUUUUUUUUUUUUUUUUUUUUUUUU",
"UUUUUUUUUUUUUUUUUUUUUUUUUUUUUUUUUUUUUUUUUUUUUUUUUUUUUUUUUUUUUUUUUUUiji4UUUUUUUUUUUUUUUUUUUUUUUUUUUUUUUUUUUUUUUUUUUUUUUUUUUUUUUUU",
"UUUUUUUUUUUUUUUUUUUUUUUUUUUUUUUUUUUUUUUUUUUUUUUUUUUUUUUUUUUUUUUUUUU9ie<UUUUUUUUUUUUUUUUUUUUUUUUUUUUUUUUUUUUUUUUUUUUUUUUUUUUUUUUU",
"UUUUUUUUUUUUUUUUUUUUUUUUUUUUUUUUUUUUUUUUUUUUUUUUUUUUUUUUUUUUUUUUUUU253;UUUUUUUUUUUUUUUUUUUUUUUUUUUUUUUUUUUUUUUUUUUUUUUUUUUUUUUUU",
"UUUUUUUUUUUUUUUUUUUUUUUUUUUUUUUUUUUUUUUUUUUUUUUUUUUUUUUUUUUUUUUUUUUU;-%UUUUUUUUUUUUUUUUUUUUUUUUUUUUUUUUUUUUUUUUUUUUUUUUUUUUUUUUU",
"UUUUUUUUUUUUUUUUUUUUUUUUUUUUUUUUUUUUUUUUUUUUUUUUUUUUUUUUUUUUUUUUUUUUUUUUUUUUUUUUUUUUUUUUUUUUUUUUUUUUUUUUUUUUUUUUUUUUUUUUUUUUUUUU",
"UUUUUUUUUUUUUUUUUUUUUUUUUUUUUUUUUUUUUUUUUUUUUUUUUUUUUUUUUUUUUUUUUUUUUUUUUUUUUUUUUUUUUUUUUUUUUUUUUUUUUUUUUUUUUUUUUUUUUUUUUUUUUUUU",
"UUUUUUUUUUUUUUUUUUUUUUUUUUUUUUUUUUUUUUUUUUUUUUUUUUUUUUUUUUUUUUUUUUUUUUUUUUUUUUUUUUUUUUUUUUUUUUUUUUUUUUUUUUUUUUUUUUUUUUUUUUUUUUUU",
"UUUUUUUUUUUUUUUUUUUUUUUUUUUUUUUUUUUUUUUUUUUUUUUUUUUUUUUUUUUUUUUUUUUUUUUUUUUUUUUUUUUUUUUUUUUUUUUUUUUUUUUUUUUUUUUUUUUUUUUUUUUUUUUU"
};
