/* XPM */
static char *result[] = {
/* columns rows colors chars-per-pixel */
"128 128 51 1 ",
"  c #7D7373",
". c #807776",
"X c #817877",
"o c #857D7C",
"O c #8C8483",
"+ c #8F8887",
"@ c #938C8B",
"# c #97918F",
"$ c #9A918E",
"% c #979290",
"& c #9C9694",
"* c #9E9896",
"= c #A19996",
"- c #A29C9A",
"; c #A6A19E",
": c #A8A29F",
"> c #A7A2A0",
", c #ABA5A3",
"< c #AEA9A6",
"1 c #B0AAA7",
"2 c #B2ADAB",
"3 c #B6B1AE",
"4 c #B8B2AF",
"5 c #B7B2B0",
"6 c #BAB5B3",
"7 c #BDB9B6",
"8 c #BFBBB8",
"9 c #C2BDBB",
"0 c #C5C1BE",
"q c #C7C3C0",
"w c #C9C5C3",
"e c #CDC9C6",
"r c #CFCBC8",
"t c #D1CECB",
"y c #D4D1CE",
"u c #D7D4D0",
"i c #D9D6D3",
"p c #DCD9D6",
"a c #DFDCD8",
"s c #E1DEDB",
"d c #E4E1DE",
"f c #E6E4E1",
"g c #E9E6E3",
"h c #EBEAE5",
"j c #EEEDE9",
"k c #F0EFEA",
"l c #F3F2ED",
"z c #F6F5F1",
"x c #F8F7F2",
"c c #FAF9F4",
"v c None",
/* pixels */
"vvvvvvvvvvvvvvvvvvvvvvvvvvvvvvvvvvvvvvvvvvvvvvvvvvvvvvvvvvvvvvvvvvvvvvvvvvvvvvvvvvvvvvvvvvvvvvvvvvvvvvvvvvvvvvvvvvvvvvvvvvvvvvvv",
"vvvvvvvvvvvvvvvvvvvvvvvvvvvvvvvvvvvvvvvvvvvvvvvvvvvvvvvvvvvvvvvvvvvvvvvvvvvvvvvvvvvvvvvvvvvvvvvvvvvvvvvvvvvvvvvvvvvvvvvvvvvvvvvv",
"vvvvvvvvvvvvvvvvvvvvvvvvvvvvvvvvvvvvvvvvvvvvvvvvvvvvvvvvvvvvvvvvvvvvvvvvvvvvvvvvvvvvvvvvvvvvvvvvvvvvvvvvvvvvvvvvvvvvvvvvvvvvvvvv",
"vvvvvvvvvvvvvvvvvvvvvvvvvvvvvvvvvvvvvvvvvvvvvvvvvvvvvvvvvvvvvvvvvvvvvvvvvvvvvvvvvvvvvvvvvvvvvvvvvvvvvvvvvvvvvvvvvvvvvvvvvvvvvvvv",
"vvvvvvvvvvvvvvvvvvvvvvvvvvvvvvvvvvvvvvvvvvvvvvvvvvvvvvvvvvvvvvvvvvvvvvvvvvvvvvvvvvvvvvvvvvvvvvvvvvvvvvvvvvvvvvvvvvvvvvvvvvvvvvvv",
"vvvvvvvvvvvvvvvvvvvvvvvvvvvvvvvvvvvvvvvvvvvvvvvvvvvvvvvvvvvvvvvvvvpssdssvvvvvvvvvvvvvvvvvvvvvvvvvvvvvvvvvvvvvvvvvvvvvvvvvvvvvvvv",
"vvvvvvvvvvvvvvvvvvvvvvvvvvvvvvvvvvvvvvvvvvvvvvvvvvvvvvvvvvvvvvvvpsddddddspvvvvvvvvvvvvvvvvvvvvvvvvvvvvvvvvvvvvvvvvvvvvvvvvvvvvvv",
"vvvvvvvvvvvvvvvvvvvvvvvvvvvvvvvvvvvvvvvvvvvvvvvvvvvvvvvvvvvvvvvpddghjhjhgdsvvvvvvvvvvvvvvvvvvvvvvvvvvvvvvvvvvvvvvvvvvvvvvvvvvvvv",
"vvvvvvvvvvvvvvvvvvvvvvvvvvvvvvvvvvvvvvvvvvvvvvvvvvvvvvvvvvvvvvpddghljlljhgdsvvvvvvvvvvvvvvvvvvvvvvvvvvvvvvvvvvvvvvvvvvvvvvvvvvvv",
"vvvvvvvvvvvvvvvvvvvvvvvvvvvvvvsddddvvvvvvvvvvvvvvvvvvvvvvvvvvsdgjjlllllljjgdpvvvvvvvvvvvvvvvvvvvvvvvvvvvvvvvvvvvvvvvvvvvvvvvvvvv",
"vvvvvvvvvvvvvvvvvvvvvvvvvvvvvddgggfdvvvvvvvvvvvvvvvvvvvvvvvvssdhjllzxxxllkhgdvvvvvvvvvvvvvvvvvvvvvvvvvvvvvvvvvvvvvvvvvvvvvvvvvvv",
"vvvvvvvvvvvvvvvvvvvvvvvvvvvvddgjhjhgdvvvvvvvvvvvvvvvvvvvvvvpsdhjllzxxxcclljgddvvvvvvvvvvvvvvvvvvvvvvvvvvvvvvvvvvvvvvvvvvvvvvvvvv",
"vvvvvvvvvvvvvvvvvvvvvvvvvvvsdgjjjjjhfdvvvvvvvvvvvvvvvvvvvvvpdgjklzccccccxlljgdvvvvvvvvvvvvvvvvvvvdfddvvvvvvvvvvvvvvvvvvvvvvvvvvv",
"vvvvvvvvvvvvvvvvvvvvvvvvvvvdfhjlljkhgdvvvvvvvvvvvvvvvvvvvvusdhklzxccccccxlljgdvvvvvvvvvvvvvvvvvvffggffdvvvvvvvvvvvvvvvvvvvvvvvvv",
"vvvvvvvvvvvvvvvvvvvvvvvvvvsdghjlllljhfdvvvvvvvvvvvvvvvvvvypsghllxcccccccxzllhdsvvvvvvvvvvvvvvvvffhhjhhfdvvvvvvvvvvvvvvvvvvvvvvvv",
"vvvvvvvvvvvvvvvvvvvvvvvvvvddjjllllllhhdavvvvvvvvvvvvvvvvvypdhjlzccccccccxxlljgsvvvvvvvvvvvvvvvsfhjjjjjgfsvvvvvvvvvvvvvvvvvvvvvvv",
"vvvvvvvvvvvvvvvvvvvvvvvvvvdhjjlllllkkhfsvvvvvvvvvvvvvvvvtuadhjlzxccccccczzzljddvvvvvvvvvvvvvvasfhjljljhgdvvvvvvvvvvvvvvvvvvvvvvv",
"vvvvvvvvvvvvvvvvvvvvvvvvvsdgjllllllkkhgdavvvvvvvvvvvvvvetisfhjlxzxcccccczllljhdpvvvvvvvvvvvvvpdfhjkllljhgdvvvvvvvvvvvvvvvvvvvvvv",
"vvvvvvvvvvvvvvvvvvvvvvvvvddhjllkkkkkjhhdauvvvvvvvvvvvvvruisghjjjlzxxcxcxlllkjgdavvvvvvvvvvvvupafhjllllljgdvvvvvvvvvvvvvvvvvvvvvv",
"vvvvvvvvvvvvvvvvvvvvvvvvvdgjjjlkkkkjjhhdaivvvvvvvvvvvvetupsdghhjllzzzzzllljjhhdapvvvvvvvvvveyiafhhllzlljjgdvvvvvvvvvvvvvvvvvvvvv",
"vvvvvvvvvvvvvvvvvvvvvvvvddgjjkljjjjjjhhdauevvvvvvvvvvwrtipsdddfghlklllkkjhhhgfdaivvvvvvvvvwryisdgjkllzlljgdvvvvvvvvvvvvvvvvvvvvv",
"vvvvvvvvvvvvvvvvvvvvvvvvddhjkkjjjhhhhhgfaue8vvvvvvvvqetuipppaaasddhkkhhdffdfffdaiyvvvvvvvqerupsdgjkzzzzljhfvvvvvvvvvvvvvvvvvvvvv",
"vvvvvvvvvvvvvvvvvvvvvvvvdhhjjkjjhhghhhgdayw82,vvvvv9wryiippiuyuidddhhdddpppsdddaiye0vvv0qwryipafgjklzzllkhgdvvvvvvvvvvvvvvvvvvvv",
"vvvvvvvvvvvvvvvvvvvvvvvsddjjkjjhhgffgffdaue85<>,147qrtuipiiutrrtypddddpiyyuipssaiyrw0000wryipsdfghlllzllljgdvvvvvvvvvvvvvvvvvvvv",
"vvvvvvvvvvvvvvvvvvvvvvvdhhhkkkhhgffffffdsur931,1279wtuisaiuteqqwtuasspuurtryiasspiywwwwrtyipadffgjkllzllkjgdvvvvvvvvvvvvvvvvvvvv",
"vvvvvvvvvvvvvvvvvvvvvvvddhkhhhhdfdsddsddsit0931159wtisssapytqq0qeypappy0000rupssdiyytttyipsddfffghjllzllkjhdvvvvvvvvvvvvvvvvvvvv",
"vvvvvvvvvvvvvvvvvvvvvvddhhkkjhhdfdsssdddsitw936990tusssssaurqqqqeyypputr000tyiaddpiiyiiiaddggggggjjlllllljhgvvvvvvvvvvvvvvvvvvvv",
"vvvvvvvvvvvvvvvvvvvvvvddhjhhhhdhfdsassdssput9999wrupsddddaitqq0qetupput0000ryiddddsppppddfghhhgghjjjkkllljjgvvvvvvvvvvvvvvvvvvvv",
"vvvvvvvvvvvvvvvvvvvvvvdfhjhhhhdgddsasssdsspye000ruisdhdhdsayrewetyipiute0e0tuadfdddddddfghjjhhgggjjkkkkkkjjgvvvvvvvvvvvvvvvvvvvv",
"vvvvvvvvvvvvvvvvvvvvvddgghhhddgdddssssssfsspyrtttisdhhhhgdautrrrtyuiiuyrrrryiafgghgdddggjkkkjjjghhjkkkkkkjhgdvvvvvvvvvvvvvvvvvvv",
"vvvvvvvvvvvvvvvvvvvvvdddhhhhdhdgddsasasffsssuytyisdhhjjhgdsaiuuyyuuiiuuyyyyuadfgjgjggjhjjklkjjhhhjjjkjjjkjjhdvvvvvvvvvvvvvvvvvvv",
"vvvvvvvvvvvvvvvvvvvvdddhhdhdgdddfdsaassfffsssiiissdhhjhhgdsaaiiipuuuiippupppaffghjjjjjjllllkkjjhjjjjjhhjjjhggvvvvvvvvvvvvvvvvvvv",
"vvvvvvvvvvvvvvvvvvvsdddhhhdddddgdgdssssggggssssssdghhjhgfsdsssaapiiuuipaaasssfggjjjkkkkllllkkjjjjjkjjjhhhkhhdvvvvvvvvvvvvvvvvvvv",
"vvvvvvvvvvvvvvvvvvvddddhdhhdddgdgddssssgggggsssssfghhhhfdssssddaaiiiiaadddfdfffghjkkkllllllkkjjjkjjjjhhjjjkhgvvvvvvvvvvvvvvvvvvv",
"vvvvvvvvvvvvvvvvvvsdddhhhddddddgggddsssdgghggdssffhhkhgfspppssfsaaiiaaddfffsssdghjkllllllxkkjjjjkkjjhhhhhkkhddvvvvvvvvvvvvvvvvvv",
"vvvvvvvvvvvvvvvvvadddhhdhhddddggggddsssggghhggfsgghhhhgspuuiasssdaaaadfffffsaaafgjkklllzllkkjjjkjlkjhhghhkhhhdvvvvvvvvvvvvvvvvvv",
"vvvvvvvvvvvvvvvvssdgggggddddsdghgggdsssdghhhggfffghhhhdauttyiassddaadddffdaaiiadghkklllllllkkjjhkjjjhggghjhhddvvvvvvvvvvvvvvvvvv",
"vvvvvvvvvvvvvvvaddgghghghddsdddhjgddssssghhhhgffgghkhhdptrertuaaaaadsdddaaiuyyiafhkllllllxlkkhjjjjjhgfgghjjhhdpvvvvvvvvvvvvvvvvv",
"vvvvvvvvvvvvvvpddgghhhhgdddsddhhhgddssssdhhhhggfghhjhhsptw00etuipppaaaaaputrrryafhkklkllllllkkjjjjhhgdffhhjhgdpvvvvvvvvvvvvvvvvv",
"vvvvvvvvvvvvyiadghhhhhhfddsssdhhjggsssusdghhhggfghjjhgspr0880wrtyyyyuuuutrwqqeypfgkkkkkklllkkhjjjjjgfddfdhhhddpvvvvvvvvvvvvvvvvv",
"vvvvvvvvvvvvypddhhhjhhgfddaadhhhhgdsaiiasgghhggggghhkgspe075780qqqeeerrew0889wypfgjkkkkkklkkkjjjjjhgdssddgggdddpvvvvvvvvvvvvvvvv",
"vvvvvvvvvvvtiadghhjjhhgdaaaaddhhjhfsiiipsdghgggdgghkhgdye85223565557588876568qtpfghjhhhjkklkjjjjjjhfdssssfffddapvvvvvvvvvvvvvvvv",
"vvvvvvvvvvvtipdghjjhhgfsapaddhjkhhdsiiiisdghggddgghhhhfpe85<>,,,<><><2222<157qyafghhhhhhkkkkkjhhjhhgdsppasddddapvvvvvvvvvvvvvvvv",
"vvvvvvvvvvvyiadghhjhhfdsppaddhhjhhdaiyyisdgghggdfghhkgspr82>--***%****>>>>,26wyafghhggghjjkkjhhjjjhfspiiippaaapivvvvvvvvvvvvvvvv",
"vvvvvvvvvvvvupsdghhhddapiiadhhkkjhdaiyyipdghgfddffghhgdpr82>&##++OO+@%%%&->18wuaghgggfghhkjjjhhhhjhdsiytttyiiipivvvvvvvvvvvvvvvv",
"vvvvvvvvvvvvvpsddfdddsiuuipddhkjhgdpyyyupdgghgddsfghhhfat02>&@OOoooooOO@#*>28risgghgffgghjjjhhhjhhhfsurewwettuivvvvvvvvvvvvvvvvv",
"vvvvvvvvvvvvvvppssssaiuutuidhjjjhgspyyyypdggggdssdfhhhfsyq5>&+OX     oo+@&>50tpfgggfdffghjjjggghhhhdpyeq999qvvvvvvvvvvvvvvvvvvvv",
"vvvvvvvvvvvvvvviipiuutty0tiaddhjggsiyttypdgggddsadfghhgsuw6>&+OX.     oO@*,6wysggggfssfghhhhhggghhfdptw9767vvvvvvvvvvvvvvvvvvvvv",
"vvvvvvvvvvvvvvvyytyte0w00tusdddhgdaitttypsdggdsspsdghhgdpr81-#Ooo    ooO%*28eisghgffssffhhhhgffghhdspt0943vvvvvvvvvvvvvvvvvvvvvv",
"vvvvvvvvvvvvvvvvw000099900tusdddsapytetypsgggdsspssghhgfat05>&#Ooo  ooO%*>5qtafghgfdssdghhhgffgghhddit063<vvvvvvvvvvvvvvvvvvvvvv",
"vvvvvvvvvvvvvvvv9979944440wtyipppiyteeeyisdgggspppsdghhgsue82;&#+ooOo+%*>27eisfghgfdssffghhgfffgdhddit061vvvvvvvvvvvvvvvvvvvvvvv",
"vvvvvvvvvvvvvvvvv4321111349eeyyyytteewtyssgggdspipsdghhhfatq72,-%%+@%%*>57qtafgjhgfsssffhhhgffsfdddsit061vvvvvvvvvvvvvvvvvvvvvvv",
"vvvvvvvvvvvvvvvvv11,---:<vvv00weeew99wryisggfsssipadfhhhgdirq751>***-><58qtisghjjgdssssfggggddddddddit042vvvvvvvvvvvvvvvvvvvvvvv",
"vvvvvvvvvvvvvvvvvv=-===vvvvvv99999999eryssgggssiuipsfghjhfaitw962<>>>578qtisfjjjjgfsssffggggdsssdddsyt06vvvvvvvvvvvvvvvvvvvvvvvv",
"vvvvvvvvvvvvvvvvvvvv$vvvvvvvvv56949499ryssgggssiuupafhjjhgfsiyrq855578qruisfgjljjgsspssfggfdsaaasssiyr0vvvvvvvvvvvvvvvvvvvvvvvvv",
"vvvvvvvvvvvvvvvvvvvvvvvvvvvvvv23144999rysfgggfsiyuiadhhhjjgfdaitrq8qqryiasfgljlljgdspssfggdsapiiuiuytvvvvvvvvvvvvvvvvvvvvvvvvvvv",
"vvvvvvvvvvvvvvvvvvvvvvvvvvvvvv11144499rusdhggfsuyyipdghjjjjhgfsputrryiasffhjlllkjfsspssfffsaiiytttyvvvvvvvvvvvvvvvvvvvvvvvvvvvvv",
"vvvvvvvvvvvvvvvvvvvvvvvvvvvvvvv111449qrisdghgsstyyipdghhjjjjjhgfsaapasfhhjkklzzkkgfsppsdddspittr00vvvvvvvvvvvvvvvvvvvvvvvvvvvvvv",
"vvvvvvvvvvvvvvvvvvvvvvvvvvvvvvv111249wtusfggfssuytiisfhhjjjkkkjhhffffhjklllzzzzkjfsspsssdssiytr00vvvvvvvvvvvvvvvvvvvvvvvvvvvvvvv",
"vvvvvvvvvvvvvvvvvvvvvvvvvvvvvvv1,1499etssfggfsuyttipsfggjjkklllkjjjjjkjllzzzzzzlkgspisssfspite090vvvvvvvvvvvvvvvvvvvvvvvvvvvvvvv",
"vvvvvvvvvvvvvvvvvvvvvvvvvvvvvvvv,1499eyssggsssitttuisffghhjklzzlzllllzzzxxxxzzzljfssppssssputw099vvvvvvvvvvvvvvvvvvvvvvvvvvvvvvv",
"vvvvvvvvvvvvvvvvvvvvvvvvvvvvvvvv,1249etsssssssytrrypaddfghjklzxxzzzzzcxcxcxxzzzlkfsspsssdsptrw97vvvvvvvvvvvvvvvvvvvvvvvvvvvvvvvv",
"vvvvvvvvvvvvvvvvvvvvvvvvvvvvvvvvv999wtyisssssitrrryiaddffghklzzxxccxccccccxxxzzljfssippsssptw095vvvvvvvvvvvvvvvvvvvvvvvvvvvvvvvv",
"vvvvvvvvvvvvvvvvvvvvvvvvvvvvvvvvvvv99ettyyuittrewryiaaddffhklzzxcxccccccccxxxzzlkfspiippsputw963vvvvvvvvvvvvvvvvvvvvvvvvvvvvvvvv",
"vvvvvvvvvvvvvvvvvvvvvvvvvvvvvvvvvvvvvwwerrtttwwqqryiassfdfjkzzxxccxccccccccccccxjgspiuippuye9731vvvvvvvvvvvvvvvvvvvvvvvvvvvvvvvv",
"vvvvvvvvvvvvvvvvvvvvvvvvvvvvvvvvvvvvvvvw0qqwwq00qetipassfghklxxxccccccccccccccxzjfspyyyyyyrq931,vvvvvvvvvvvvvvvvvvvvvvvvvvvvvvvv",
"vvvvvvvvvvvvvvvvvvvvvvvvvvvvvvvvvvvvvvvv88899990qwtupassdhjjlzxcccccccccccccccxzjgsiyrttreq962<>vvvvvvvvvvvvvvvvvvvvvvvvvvvvvvvv",
"vvvvvvvvvvvvvvvvvvvvvvvvvvvvvvvvvvvvvvvvv6888888qwtuppasfgjkzzxxxccccccccccccxxkjgsutewwq0893,;vvvvvvvvvvvvvvvvvvvvvvvvvvvvvvvvv",
"vvvvvvvvvvvvvvvvvvvvvvvvvvvvvvvvvvvvvvvvvv8877780wtuipasdgjlzzxccccxcccccccccxxzjfsyrw9998631:;vvvvvvvvvvvvvvvvvvvvvvvvvvvvvvvvv",
"vvvvvvvvvvvvvvvvvvvvvvvvvvvvvvvvvvvvvvvvvv6777880wtyippsfhjlzxccccccccccccccccxjjfsteq999642,vvvvvvvvvvvvvvvvvvvvvvvvvvvvvvvvvvv",
"vvvvvvvvvvvvvvvvvvvvvvvvvvvvvvvvvvvvvvvvvvv777880wtyuipsfhjlzxccccccccccccxxxxxkjfaye0965531vvvvvvvvvvvvvvvvvvvvvvvvvvvvvvvvvvvv",
"vvvvvvvvvvvvvvvvvvvvvvvvvvvvvvvvvvvvvvvvvvv666880wtyyipsdhklzxccccccccccxcxxxxxkjfaye996531vvvvvvvvvvvvvvvvvvvvvvvvvvvvvvvvvvvvv",
"vvvvvvvvvvvvvvvvvvvvvvvvvvvvvvvvvvvvvvvvvvv676880wrtyuiadhjlzxccccxcxxxxxzzzzzzjjfsyw09452vvvvvvvvvvvvvvvvvvvvvvvvvvvvvvvvvvvvvv",
"vvvvvvvvvvvvvvvvvvvvvvvvvvvvvvvvvvvvvvvvvvv75568qwrryyiafhjzxxccccccxxxlzkzzzkzjhdste99452vvvvvvvvvvvvvvvvvvvvvvvvvvvvvvvvvvvvvv",
"vvvvvvvvvvvvvvvvvvvvvvvvvvvvvvvvvvvvvvvvvvvv55580wwttyupffjjxxcccccxxxxlkkkklzkjjfste99421vvvvvvvvvvvvvvvvvvvvvvvvvvvvvvvvvvvvvv",
"vvvvvvvvvvvvvvvvvvvvvvvvvvvvvvvvvvvvvvvvvvvv22689wwtrtupshjzzxccccxxxxlljjjkjkzjgdsue9431<vvvvvvvvvvvvvvvvvvvvvvvvvvvvvvvvvvvvvv",
"vvvvvvvvvvvvvvvvvvvvvvvvvvvvvvvvvvvvvvvvvvvv<2579qwertuidfjlzxcccxxcxllljhhjjljjgfsut971<-vvvvvvvvvvvvvvvvvvvvvvvvvvvvvvvvvvvvvv",
"vvvvvvvvvvvvvvvvvvvvvvvvvvvvvvvvvvvvvvvvvvvv,25790werruisgjlzxxcccxxxxlkhhhhjjjjhfsur961,-vvvvvvvvvvvvvvvvvvvvvvvvvvvvvvvvvvvvvv",
"vvvvvvvvvvvvvvvvvvvvvvvvvvvvvvvvvvvvvvvvvvvvv5589qwwrryisfjkzzxcxccxllljhffghjjjhfsit961,vvvvvvvvvvvvvvvvvvvvvvvvvvvvvvvvvvvvvvv",
"vvvvvvvvvvvvvvvvvvvvvvvvvvvvvvvvvvvvvvvvvvvvv25780weeryisfhkkzxxccccxxljhffggjjjhfsitq92,vvvvvvvvvvvvvvvvvvvvvvvvvvvvvvvvvvvvvvv",
"vvvvvvvvvvvvvvvvvvvvvvvvvvvvvvvvvvvvvvvvvvvvv26799wweryisfhkzzxxcccxxlljgdddhjjhhddiy083>vvvvvvvvvvvvvvvvvvvvvvvvvvvvvvvvvvvvvvv",
"vvvvvvvvvvvvvvvvvvvvvvvvvvvvvvvvvvvvvvvvvvvvvv5799qweryisfhkkzxxxcczxlljhddddhhhhdaprw83<vvvvvvvvvvvvvvvvvvvvvvvvvvvvvvvvvvvvvvv",
"vvvvvvvvvvvvvvvvvvvvvvvvvvvvvvvvvvvvvvvvvvvvvv5799wwertisdhjkzzxccxxxlkhhdaddhhhdddite931vvvvvvvvvvvvvvvvvvvvvvvvvvvvvvvvvvvvvvv",
"vvvvvvvvvvvvvvvvvvvvvvvvvvvvvvvvvvvvvvvvvvvvvv36999wwetpsfhjjlzxxxcxllkjddaddddhddpytw95vvvvvvvvvvvvvvvvvvvvvvvvvvvvvvvvvvvvvvvv",
"vvvvvvvvvvvvvvvvvvvvvvvvvvvvvvvvvvvvvvvvvvvvvvv56990wetuafgjjkzzxxxxxlljddaaddddsaiyrw9vvvvvvvvvvvvvvvvvvvvvvvvvvvvvvvvvvvvvvvvv",
"vvvvvvvvvvvvvvvvvvvvvvvvvvvvvvvvvvvvvvvvvvvvvvvv599wwetuadfhjkkzxxxxlllhddppppddaiytw0vvvvvvvvvvvvvvvvvvvvvvvvvvvvvvvvvvvvvvvvvv",
"vvvvvvvvvvvvvvvvvvvvvvvvvvvvvvvvvvvvvvvvvvvvvvvv57999etuasfhhjkzzxxxllkgddpiippputrwqvvvvvvvvvvvvvvvvvvvvvvvvvvvvvvvvvvvvvvvvvvv",
"vvvvvvvvvvvvvvvvvvvvvvvvvvvvvvvvvvvvvvvvvvvvvvvvv5799wrupadfgjjzlzxxllkgdpiyyiiyyrw0vvvvvvvvvvvvvvvvvvvvvvvvvvvvvvvvvvvvvvvvvvvv",
"vvvvvvvvvvvvvvvvvvvvvvvvvvvvvvvvvvvvvvvvvvvvvvvvv35790rtpsdffgjllzxlllhhdiyyyytyrw0vvvvvvvvvvvvvvvvvvvvvvvvvvvvvvvvvvvvvvvvvvvvv",
"vvvvvvvvvvvvvvvvvvvvvvvvvvvvvvvvvvvvvvvvvvvvvvvvv13590rupssdfghjlzzzlkjddittrrrww0vvvvvvvvvvvvvvvvvvvvvvvvvvvvvvvvvvvvvvvvvvvvvv",
"vvvvvvvvvvvvvvvvvvvvvvvvvvvvvvvvvvvvvvvvvvvvvvvvvv1550rtpasddfhjllllljjdsit00www0vvvvvvvvvvvvvvvvvvvvvvvvvvvvvvvvvvvvvvvvvvvvvvv",
"vvvvvvvvvvvvvvvvvvvvvvvvvvvvvvvvvvvvvvvvvvvvvvvvvv1269rypsdsdfghllllljhdpyt0909vvvvvvvvvvvvvvvvvvvvvvvvvvvvvvvvvvvvvvvvvvvvvvvvv",
"vvvvvvvvvvvvvvvvvvvvvvvvvvvvvvvvvvvvvvvvvvvvvvvvvv<279ruassddffjlllkjhddpye096vvvvvvvvvvvvvvvvvvvvvvvvvvvvvvvvvvvvvvvvvvvvvvvvvv",
"vvvvvvvvvvvvvvvvvvvvvvvvvvvvvvvvvvvvvvvvvvvvvvvvvv<28qtiasfssdfgjjkjjgddit0964vvvvvvvvvvvvvvvvvvvvvvvvvvvvvvvvvvvvvvvvvvvvvvvvvv",
"vvvvvvvvvvvvvvvvvvvvvvvvvvvvvvvvvvvvvvvvvvvvvvvvvvv59eupssdssdfghjjjhgdput096vvvvvvvvvvvvvvvvvvvvvvvvvvvvvvvvvvvvvvvvvvvvvvvvvvv",
"vvvvvvvvvvvvvvvvvvvvvvvvvvvvvvvvvvvvvvvvvvvvvvvvvvv79tusdffdsssfghjhdddiyt095vvvvvvvvvvvvvvvvvvvvvvvvvvvvvvvvvvvvvvvvvvvvvvvvvvv",
"vvvvvvvvvvvvvvvvvvvvvvvvvvvvvvvvvvvvvvvvvvvvvvvvvvv9eypsdffssssffhhffapitw08vvvvvvvvvvvvvvvvvvvvvvvvvvvvvvvvvvvvvvvvvvvvvvvvvvvv",
"vvvvvvvvvvvvvvvvvvvvvvvvvvvvvvvvvvvvvvvvvvvvvvvvvvv0eypsdfdsssssffffaputrq96vvvvvvvvvvvvvvvvvvvvvvvvvvvvvvvvvvvvvvvvvvvvvvvvvvvv",
"vvvvvvvvvvvvvvvvvvvvvvvvvvvvvvvvvvvvvvvvvvvvvvvvvvv0rusdfffsapaadffspurrw98vvvvvvvvvvvvvvvvvvvvvvvvvvvvvvvvvvvvvvvvvvvvvvvvvvvvv",
"vvvvvvvvvvvvvvvvvvvvvvvvvvvvvvvvvvvvvvvvvvvvvvvvvvvvtussffsspiiaaaaaireq98vvvvvvvvvvvvvvvvvvvvvvvvvvvvvvvvvvvvvvvvvvvvvvvvvvvvvv",
"vvvvvvvvvvvvvvvvvvvvvvvvvvvvvvvvvvvvvvvvvvvvvvvvvvvvtupdsdsaiiuiaaaiyeq86vvvvvvvvvvvvvvvvvvvvvvvvvvvvvvvvvvvvvvvvvvvvvvvvvvvvvvv",
"vvvvvvvvvvvvvvvvvvvvvvvvvvvvvvvvvvvvvvvvvvvvvvvvvvvvvyppssaiuttuiiiutq865vvvvvvvvvvvvvvvvvvvvvvvvvvvvvvvvvvvvvvvvvvvvvvvvvvvvvvv",
"vvvvvvvvvvvvvvvvvvvvvvvvvvvvvvvvvvvvvvvvvvvvvvvvvvvvvvuippiyttrtyuutrq75vvvvvvvvvvvvvvvvvvvvvvvvvvvvvvvvvvvvvvvvvvvvvvvvvvvvvvvv",
"vvvvvvvvvvvvvvvvvvvvvvvvvvvvvvvvvvvvvvvvvvvvvvvvvvvvvvvyuuttrwwrryutw963vvvvvvvvvvvvvvvvvvvvvvvvvvvvvvvvvvvvvvvvvvvvvvvvvvvvvvvv",
"vvvvvvvvvvvvvvvvvvvvvvvvvvvvvvvvvvvvvvvvvvvvvvvvvvvvvvvvvtr0000wrrtrw963vvvvvvvvvvvvvvvvvvvvvvvvvvvvvvvvvvvvvvvvvvvvvvvvvvvvvvvv",
"vvvvvvvvvvvvvvvvvvvvvvvvvvvvvvvvvvvvvvvvvvvvvvvvvvvvvvvvvvv09999wrrrw962vvvvvvvvvvvvvvvvvvvvvvvvvvvvvvvvvvvvvvvvvvvvvvvvvvvvvvvv",
"vvvvvvvvvvvvvvvvvvvvvvvvvvvvvvvvvvvvvvvvvvvvvvvvvvvvvvvvvvvv5559qereq962vvvvvvvvvvvvvvvvvvvvvvvvvvvvvvvvvvvvvvvvvvvvvvvvvvvvvvvv",
"vvvvvvvvvvvvvvvvvvvvvvvvvvvvvvvvvvvvvvvvvvvvvvvvvvvvvvvvvvvvv3570qeew062vvvvvvvvvvvvvvvvvvvvvvvvvvvvvvvvvvvvvvvvvvvvvvvvvvvvvvvv",
"vvvvvvvvvvvvvvvvvvvvvvvvvvvvvvvvvvvvvvvvvvvvvvvvvvvvvvvvvvvvvv2500wew062vvvvvvvvvvvvvvvvvvvvvvvvvvvvvvvvvvvvvvvvvvvvvvvvvvvvvvvv",
"vvvvvvvvvvvvvvvvvvvvvvvvvvvvvvvvvvvvvvvvvvvvvvvvvvvvvvvvvvvvvvv370wew062vvvvvvvvvvvvvvvvvvvvvvvvvvvvvvvvvvvvvvvvvvvvvvvvvvvvvvvv",
"vvvvvvvvvvvvvvvvvvvvvvvvvvvvvvvvvvvvvvvvvvvvvvvvvvvvvvvvvvvvvvvv60qw007vvvvvvvvvvvvvvvvvvvvvvvvvvvvvvvvvvvvvvvvvvvvvvvvvvvvvvvvv",
"vvvvvvvvvvvvvvvvvvvvvvvvvvvvvvvvvvvvvvvvvvvvvvvvvvvvvvvvvvvvvvvvv0qwq07vvvvvvvvvvvvvvvvvvvvvvvvvvvvvvvvvvvvvvvvvvvvvvvvvvvvvvvvv",
"vvvvvvvvvvvvvvvvvvvvvvvvvvvvvvvvvvvvvvvvvvvvvvvvvvvvvvvvvvvvvvvvvv0w096vvvvvvvvvvvvvvvvvvvvvvvvvvvvvvvvvvvvvvvvvvvvvvvvvvvvvvvvv",
"vvvvvvvvvvvvvvvvvvvvvvvvvvvvvvvvvvvvvvvvvvvvvvvvvvvvvvvvvvvvvvvvvv00094vvvvvvvvvvvvvvvvvvvvvvvvvvvvvvvvvvvvvvvvvvvvvvvvvvvvvvvvv",
"vvvvvvvvvvvvvvvvvvvvvvvvvvvvvvvvvvvvvvvvvvvvvvvvvvvvvvvvvvvvvvvvvvv099vvvvvvvvvvvvvvvvvvvvvvvvvvvvvvvvvvvvvvvvvvvvvvvvvvvvvvvvvv",
"vvvvvvvvvvvvvvvvvvvvvvvvvvvvvvvvvvvvvvvvvvvvvvvvvvvvvvvvvvvvvvvvvvvv77vvvvvvvvvvvvvvvvvvvvvvvvvvvvvvvvvvvvvvvvvvvvvvvvvvvvvvvvvv",
"vvvvvvvvvvvvvvvvvvvvvvvvvvvvvvvvvvvvvvvvvvvvvvvvvvvvvvvvvvvvvvvvvvvvvvvvvvvvvvvvvvvvvvvvvvvvvvvvvvvvvvvvvvvvvvvvvvvvvvvvvvvvvvvv",
"vvvvvvvvvvvvvvvvvvvvvvvvvvvvvvvvvvvvvvvvvvvvvvvvvvvvvvvvvvvvvvvvvvvvvvvvvvvvvvvvvvvvvvvvvvvvvvvvvvvvvvvvvvvvvvvvvvvvvvvvvvvvvvvv",
"vvvvvvvvvvvvvvvvvvvvvvvvvvvvvvvvvvvvvvvvvvvvvvvvvvvvvvvvvvvvvvvvvvvvvvvvvvvvvvvvvvvvvvvvvvvvvvvvvvvvvvvvvvvvvvvvvvvvvvvvvvvvvvvv",
"vvvvvvvvvvvvvvvvvvvvvvvvvvvvvvvvvvvvvvvvvvvvvvvvvvvvvvvvvvvvvvvvvvvvvvvvvvvvvvvvvvvvvvvvvvvvvvvvvvvvvvvvvvvvvvvvvvvvvvvvvvvvvvvv",
"vvvvvvvvvvvvvvvvvvvvvvvvvvvvvvvvvvvvvvvvvvvvvvvvvvvvvvvvvvvvvvvvvvvvvvvvvvvvvvvvvvvvvvvvvvvvvvvvvvvvvvvvvvvvvvvvvvvvvvvvvvvvvvvv",
"vvvvvvvvvvvvvvvvvvvvvvvvvvvvvvvvvvvvvvvvvvvvvvvvvvvvvvvvvvvvvvvvvvvvvvvvvvvvvvvvvvvvvvvvvvvvvvvvvvvvvvvvvvvvvvvvvvvvvvvvvvvvvvvv",
"vvvvvvvvvvvvvvvvvvvvvvvvvvvvvvvvvvvvvvvvvvvvvvvvvvvvvvvvvvvvvvvvvvvvvvvvvvvvvvvvvvvvvvvvvvvvvvvvvvvvvvvvvvvvvvvvvvvvvvvvvvvvvvvv",
"vvvvvvvvvvvvvvvvvvvvvvvvvvvvvvvvvvvvvvvvvvvvvvvvvvvvvvvvvvvvvvvvvvvvvvvvvvvvvvvvvvvvvvvvvvvvvvvvvvvvvvvvvvvvvvvvvvvvvvvvvvvvvvvv",
"vvvvvvvvvvvvvvvvvvvvvvvvvvvvvvvvvvvvvvvvvvvvvvvvvvvvvvvvvvvvvvvvvvvvvvvvvvvvvvvvvvvvvvvvvvvvvvvvvvvvvvvvvvvvvvvvvvvvvvvvvvvvvvvv",
"vvvvvvvvvvvvvvvvvvvvvvvvvvvvvvvvvvvvvvvvvvvvvvvvvvvvvvvvvvvvvvvvvvvvvvvvvvvvvvvvvvvvvvvvvvvvvvvvvvvvvvvvvvvvvvvvvvvvvvvvvvvvvvvv",
"vvvvvvvvvvvvvvvvvvvvvvvvvvvvvvvvvvvvvvvvvvvvvvvvvvvvvvvvvvvvvvvvvvvvvvvvvvvvvvvvvvvvvvvvvvvvvvvvvvvvvvvvvvvvvvvvvvvvvvvvvvvvvvvv",
"vvvvvvvvvvvvvvvvvvvvvvvvvvvvvvvvvvvvvvvvvvvvvvvvvvvvvvvvvvvvvvvvvvvvvvvvvvvvvvvvvvvvvvvvvvvvvvvvvvvvvvvvvvvvvvvvvvvvvvvvvvvvvvvv"
};
