/* XPM */
static char *_e5de7f4460144dd97c1790c201b7d79NFQNARki27tBA9xX[] = {
/* columns rows colors chars-per-pixel */
"128 128 78 1 ",
"  c #986735",
". c #9C6936",
"X c #A06C38",
"o c #A16D38",
"O c #A26D38",
"+ c #A46F39",
"@ c #A57039",
"# c #A5703A",
"$ c #A7713B",
"% c #A8713A",
"& c #A8723B",
"* c #AA733B",
"= c #AA733C",
"- c #AB733C",
"; c #AB743C",
": c #AC743C",
"> c #AC753C",
", c #AD753C",
"< c #AC753D",
"1 c #AD753D",
"2 c #AE763D",
"3 c #AF763D",
"4 c #AF773D",
"5 c #AF773E",
"6 c #B0773D",
"7 c #B0773E",
"8 c #B1773E",
"9 c #B1783E",
"0 c #B2783E",
"q c #B3793E",
"w c #B3793F",
"e c #B4793F",
"r c #B47A3F",
"t c #B57B3F",
"y c #B67B40",
"u c #B77B40",
"i c #B87C40",
"p c #B97D40",
"a c #B87D41",
"s c #BA7E41",
"d c #BB7F41",
"f c #BB7F42",
"g c #BD8042",
"h c #BC8043",
"j c #BD8043",
"k c #BE8142",
"l c #BE8143",
"z c #C08243",
"x c #C08244",
"c c #C08344",
"v c #C28344",
"b c #C58645",
"n c #C48546",
"m c #C58646",
"M c #C78746",
"N c #C78747",
"B c #C88847",
"V c #C98847",
"C c #C98947",
"Z c #CA8948",
"A c #CB8A48",
"S c #CC8B48",
"D c #CC8B49",
"F c #CD8B49",
"G c #CE8C49",
"H c #CF8D4A",
"J c #D08D4A",
"K c #D08E4A",
"L c #D18E4B",
"P c #D28F4B",
"I c #D38F4B",
"U c #D3904B",
"Y c #D4904C",
"T c #D5914C",
"R c #D6914C",
"E c #D6924D",
"W c #D7924D",
"Q c #D9944E",
/* pixels */
"=======wggggggggggggggg4=======44w4w4w4w4w4w4w4w4w4w4w4ww4w4w4w4w4w4w4w4w4w4w4w44w4*=======44w4w4w4w4w4wy;yy;yy;yy;yy;y=========",
"=====4sfgggggggggggggggg8=======w4w4w4w4w4w4w4w4w4w4w4w44w4w4w4w4w4w4w4w4w4w4w4ww4w*======44w4w4w4w4w4w44444444444444444;=======",
"====4fggggggggggggggggggg8======8ww44w4w4w4w4w4w4w4w4w4ww4w4w4w4w4w4w4w4w4w4w4w48w4======4w44w4w4w4w4w4w;yy;y44y;yy;;yy;y=======",
"===4fggggggggggggggggggggg4=====4w4ww4w4w4w4w4w4w4w4w4w44w4w4w4w4w4w4w4w4w4w4w4ww8-=====;w4ww4w4w4w4w4w4y44y;yy;y44yy44y44======",
"*-8gfgggggggggggggggggggfzs4====4484w4w44w4w4w4w4w4w4w4ww4w4w4w4w4w4w4w4w4w4w4w484====--4w4w4w4w4w4w4w4w4y;44y4444y44y4444======",
"=8ggggggggggggggggggggggfffs-====48w4w4ww4w4w4w4w4w4w4w44w4w4w4w4w4w4w4w4w4w4w4w84====--w8w4w4w4w4w4w4w44yy44;yy;y;yy;y;yy4=====",
"8gggggggggggggggggggggggzfggy=====w4w4w44w4w4w4w4w4w4w4ww4w4w4w4w4w4w4w4w4w4w4w48*====-84w4w4w4w4w4w4w4wy;;yy;44yy;44;yy444=====",
"ggggggggggggggggggggggggfkgffy==**4w4w4ww4w4w4w4w4w4w4w44w4w4w4w4w4w4w4w4w4w4ww4-=====-8w4w4w4w4w4w4w4w444y44yy444y44y444yy4===4",
"gggggggggggggggggzCCIIIIQQQQQQQQQQQQQQQQQQQQQQQQRQQQw4w4w4w4w4w44w4w4w4ww4w4QQQQQQQQQQQQQQQQQQQQRQQQQQQQGGIGmlay44y444y44y4===ys",
"gggggggggggggggbUQWQQQQQQQQQQQQQQQQQQQQQQQQQQQQQQQQQ4w4w4w4w4w4ww4w4w4w44w4wQQQQQQQQQQQQQQQQQQQQQQQQQQQQQQQQQQQHly;yyy;444y==-ff",
"gggggggggggggbRQQQQQQQQQQQQQQQQQQQQQQQQQQQQQQQQQQQQQw4w4w4w4w4w44w4w4w4ww4w4QQQQQQQQQQQQQQQQQQQQQQQQQQQQQQQQQQQQQIay;y4yy44=-uff",
"ggggggggggggSQQQQQQQQQWWQQQQQQQQQQQQQQQQQQQQQQQQQQQQ4w4w4w4w4w4ww4w4w4w44w4wQQQQQQQQQQQQQQQQQQQQQQQQQQQQQQQQQQQQQQQn444y-y==-kfk",
"gggggggggggGQQQQQWIh8***                            w4w4w4w4w4w44w4w4w4w4w44                            &&&yaHQQQQQQZy4488==4ffk",
"ggggggggggMQQQQQC*                                  4w4w4w4w4w4ww4w4w4w4w84=                                  &BQQQQQvy48-==4ffk",
"ggggggggggWQQQQr                                    w4w4w4w4w4w44w4w4w4w44==                                    yQQQQR884**=8fkk",
"gggggggggSQQQQ8                                     4w4w4w4w4w4ww4w4w4w84==;                                     yQQQWb4==---kkf",
"ggggggggfRQQWb                                      4w4w4w4w4w4w4w4w4w44----                                      lQQQQ======yaa",
"ggggggggbQQQQo                                      w4w4w4w4w4w4w4w4w44=--%-                                      .QQQQy=====yll",
"ggggggggSQQQb                                       4w4w4w4w4w4w4w4w84==--6t                                       nQQQn======yf",
"ggggggggIQQRy                                       w4w4w4w4w4w4w4w44===-:tg                                       yQQQD======-f",
"fgggggggRQQQ+        @wwggggggg>===============844w44w4w4w4w4w4w8w84====:fggggggggggfkkffkf-==--ww4ww4w4**.        oQQQR=======4",
"8gggggggQQQQ        *hgggggggt4*================4w4ww4w4w4w4w4w4w8======tgggggggggggkfkkkkkf-===*4w44w4w8ww$        QQQQ========",
"=rggggflQQQQ        sgggggggs4*==================4w44w4w4w4w4w884*=====yggggggggggggggfkkfkfu-==*->ww4w4w444        QQQQ========",
"=*sggfllQQQQ        ggggggff4====================*44w4w4w4w4w4w4=*====yfggggggggggggggggkfkkfs--=*>>4w4w4w4w        QQQQ========",
"===ffgggQQQQ        ggggggs4*=======================4488w4ww84=======-ffkkkfggggggggggggggggfk8-====48w8w4ww        QQQQ844=====",
"===-fgggQQQQ        ggggfs4===========================4w4w444*=======8fkkfkkggggggggggggggggkku-=====-4w4w44        QQQQ88w444==",
"====4gggQQQQ        ggfgt--=================================*=======*rggfkfkggggggggggggggggkfu=======**;;;=        QQQQ8w4ww84=",
"4===*8ggQQQQ        ggfy--=======;;;================================*rggkkfkgggggggggggggggglfu=============        QQQQw4w44w88",
"44=*==8fQQQQ        ss8========8w4w48================================-zfkfggggggggggggggggggggy%============        QQQQw4w4w4w4",
"8w4*==-8QQQQ        s4=======4884w4w84================================rfkkggggggggggggggggggff-%============        QQQQ4w4w4w4w",
"w484-===QQQQ        ======*;4w8ww4w4w44===============================-tfgggggggggggggggggggf---===========;        QQQQw4w4w4w4",
"4ww88-==QQQQ        ======4w44w84w4w4w44===============================4fkgggggggggggggggggg6---===========*        QQQQ4w4w4w4w",
"w4w4w4;=QQQQ        =====48w4w4w4w4w4w4w4$==============================8tggggggggggggggggf4==============48        QQQQw4w4w4w4",
"4w4w4ww*QQQQ        ====4ww4w4w4w4w4w4w4w>==============================*8ffgggggggggggggg8===============88        QQQQ4w4w4w4w",
"w4w4w4w4QQQQ        ===w4w4w4w4w4w4w4w4w4w*=============================*;8fgggggggggggggy==============44w4        QQQQw4w4w4w4",
"4w4w4w4wQQQQ        ==88w4w4w4w4w4w4w4w4w44*===================;==========*4fggggggggggfr===============4w4w        QQQQ4w4w4w4w",
"w4w4w4w4QQQQ        =44w4w4w4w4w4w4w4w4ww4w;==================**;4;=***=====4sfggggggggr==============-ww4w4        QQQQw4w4w4w4",
"4w4w4w4wQQQQ        44w4w4w4w4w4w4w4w4w44w4w=================4w4w48ww>========ffgggggf8===============w84w4w        QQQQ4w4w4w4w",
"w4w4w4w4QQQQ        484w4w4w4w4w4w4w4w4ww4w44==============48w4ww4w44w4*======4wffggu4==============*44ww4w4        QQQQw4w4w4w4",
"4w4w4w4wQQQQ        48w4w4w4w4w4w4w4w4w44w4w4============48ww8w44w4ww8ww8=====*=-444===============*84w44w4w        QQQQ4w4w4w4w",
"w4w4w4w4QQQQ        444ww4w4w4w4w4w4w4w4w4w4w;==========4=4yy=4yw4w4w4w444======--=================4w4w4w4w4        QQQQw4w4w4w4",
"4w4w4w4wQQQQ        =8w84w4w4w4w4w4w4w4w4w4w44========44yy444y444w4w4w4ww44=======================4w4w4w4w4w        QQQQ4w4w4w4w",
"w4w4w4w4QQQQ        =448w4w4w4w4w4w4w4w4w4w4w========48w44y44yy4w4w4w4w44w44====================*48ww4w4w4w4        QQQQw4w4w4w4",
"4w4w4w4wQQQQ        ==484w4w4w4w4w4w4w4w4w4w4=======88w44y=y44=y4w4w4w4ww4ww4====================4w44w4w4w4w        QQQQ4w4w4w4w",
"w4w4w4w4QQQQ        ===4w4w4w4w4w4w4w4w44w8w-======4=yy44y44y444w4w4w4w4w4w4w4=================*w4w4w4w4w4w4        QQQQw4w4w4w4",
"4w4w4w4wQQQQ        ===44w4w4w4w4w4w4w4ww4w-======88y444y-4y=yy44w4w4w4w4w4w484*===============44w4w4w4w4w4w        QQQQ4w4w4w4w",
"w4w4w4w4QQQQ        ====4ww4w4w4w4w4w4w844=======y=y44=yy44y44y=w4w4w4w4w4w4w4w4===============ww4w4w4w4w4w4        QQQQw4w4w4w4",
"4w4w4w4wQQQQ        =====44w4w4w4w4w4w4w4*=====444y44yy444y=y44y4w4w4w4w4w4w4w884=============444w4w4w4w4w4w        QQQQ4w4w4w4w",
"w4w4w4w4QQQQ        ;=====88w4w4w4w4ww44=======y4444y44yy444y=44w4w4w4w4w4w4w4w4w4$===========8ww4w4w4w4w4w4        QQQQw4w4w4w4",
"4w4w4w4wQQQQ        ;=====484w4w4w4w44**=====44y4yy4=y44=yy44yy44w4w4w4w4w4w4w4w4w4*==========w44w4w4w4w4w4w        QQQQ4w4w4w4w",
"w4w4w4w4QQQQ        =======4w4w4w4ww4=======444444y44yy=44y=44y4w4w4w4w4w4w4w4w4w4w==========44ww4w4w4w4w4w4        QQQQw4w4w4w4",
"4w4w4w4wQQQR        ========;w4w4w4*=======44yy4y4=y444yy44yy4=y4w4w4w4w4w4w4w4w4w84========*;w44w4w4w4w4w4w        QQQQ4w4w4w4w",
"w4w4w4w44w4w4w4ww4w;==========;4*4========484w4wy=4yy44yy444y=4yw4w4w4w4w4w4w4w44w4w4=========4ww4w4w4w4w4w4w4w4w4w4w4w4w4w4w4w4",
"4w4w4w4ww4w4w4w44w8=====================*444w4w44y44=y44=yy44y444w4w4w4w4w4w4w4ww4w444========w84w4w4w4w4w4w4w4w4w4w4w4w4w4w4w4w",
"w4w4w4w44w4w4w4ww44;=====================w4w4w4w4yy44yy=44y=4yy4w4w4w4w4w4w4w4w44w4w884*======48w4w4w4w4w4w4w4w4w4w4w4w4w4w4w4w4",
"4w4w4w4ww4w4w4w44w;=====================w4w4w4w444=y444yy44y44=y4w4w4w4w4w4w4w4ww4w4w8w;======484w4w4w4w4w4w4w4w4w4w4w4w4w4w4w4w",
"w4w4w4w4w4w44w4www**===================48w4w4w4wy44yy444y44yy444w4w4w4w4w4w4w4w44w4w4w44======*8w44w4w4ww4w4w4w4w4w4w4w4w4w4w4w4",
"4w4w4w4w4w4ww4w44*====================44w4w4w4w4=y44=yy4=y44=yy44w4w4w4w4w4w4w4ww4w4w4w44======-4ww4w4w44w4w4w4w4w4w4w4w4w4w4w4w",
"w4w4w4w4w4w44w8w;=====================444w4w4w4w4yy=44y=4yy=44y=w4w4w4w4w4w4w4w44w4w4w4ww*======448w4w4ww4w4w4w4w4w4w4w4w4w4w4w4",
"4w4w4w4w4w4ww4w4====================**www4w4w4w4444yy44y444yy44y4w4w4w4w4w4w4w4ww4w4w4w4w8======*4w4w4w44w4w4w4w4w4w4w4w4w4w4w4w",
"w4w4w4w4w4w4w48*=====================4w44w4w4w4wy=44y=44y=44y=44w4w4w4w4w4w4w4w44w4w4w4w4w**======4w4w4ww4w4w4w4w4w4w4w4w4w4w4w4",
"4w4w4w4w4w4ww4=======================48ww4w4w4w44yy44yy44yy44yy44w4w4w4w4w4w4w4ww4w4w4w4w44========4w4w44w4w4w4w4w4w4w4w4w4w4w4w",
"w4w4w4w4w4w44;=======================-884w4w4w4w44y444y444y444y4w4w4w4w4w4w4w4w44w4w4w4w4w8========;4w4ww4w4w4w4w4w4w4w4w4w4w4w4",
"4w4w4w4w4w4w;========================48ww4w4w4w4y4=yy4=yy4=yy4=y4w4w4w4w4w4w4w4ww4w4w4w4w4w=========;4w44w4w4w4w4w4w4w4w4w4w4w4w",
"w4w4w4w4w4w;========================*4w84w4w4w4ww4w4w4w4w4w4w4w4w4w4w4w4w4w4w4w4w4w4w4w4w4w==========-y4w4w4w4w4w4w4w4w4w4w4w4w4",
"4w4w4w4w4w===========================*4ww4w4w4w44w4w4w4w4w4w4w4w4w4w4w4w4w4w4w4w4w4w4w4w4w4============84w4w4w4w4w4w4w4w4w4w4w4w",
"w4w4w4w4w;============================484w4w4w4ww4w4w4w4w4w4w4w4w4w4w4w4w4w4w4w4w4w4w4w4884============4484ww4w4w4w4w4w4w4w4w4w4",
"4w4w4w844=============================>ww4w4w4w44w4w4w4w4w4w4w4w4w4w4w4w4w4w4w4w4w4w4w4ww44=============44w44w4w4w4w4w4w4w4w4w4w",
"w4w4w4w4===============================44w4w4w4ww4w4w4w4w4w4w4w4w4w4w4w4w4w4w4w4w4w4w4w444===============48w4w4ww4w4w4w4w4w4w4w4",
"4w4w8w*;===============44444============w4w4w4w44w4w4w4w4w4w4w4w4w4w4w4w4w4w4w4w4w4w4w4w44================>8w4w44w4w4w4w4w4w4w4w",
"4ww48;===============;w4w4484w4*========444w4w4ww4w4w4w4w4w4w4w4w4w4w4w4w4w4w4w4w4w4w4w44==================;4w8ww4w4w4w4w4w4w4w4",
"w4w4================4w4w4w88w844========*4w4w4w44w4w4w4w4w4w4w4w4w4w4w4w4w4w4w4w4w4w4w8w===================**4w84w4w4w4w4w4w4w4w",
"4w8================484w4w4w4w4w444========8w4w4ww4w4w4w4w4w4w4w4w4w4w4w4w4w4w4w44w4w4w8;=====---==============884w4ww4w4w4w4w4w4",
"44================448w4w4w4w4w4w844========8w4w44w4w4w4w4w4w4w4w4w4w4w4w4w4w4w4ww4w4w4;======-%-==============*4w4w44w4w4w4w4w4w",
"4================44ww4w4w4w4w4w48w44-=======4w4ww4w4w4w4w4w4w4w4w4w4w4w4w4w4w4w44w8844========--4yyusr4=========444ww4w4w4w4w8w4",
"=================8884w4w4w4w4w4ww4w484======48w44w4w4w4w4w4w4w4w4w4w4w4w4w4w4w4ww4w44=========6tgggggfss4========44w4w4w4w4w4844",
"========QQQQ        w4w4w4w4w4w44w4ww44=====*4w4w4w4w4w4w4w4w4w4w4w4w4w4w4w4w4w4w8w4========-6tkggggggggu-**        QQQQw84ww4&=",
"========QQQQ        4w4w4w4w4w4ww4w48w44=====*4w4w4w4w4w4w4w4w4w4w4w4w4w4w4w4w4w884=========6kkkgggggggggf4*        QQQQ4w4;**==",
"========QQQQ        w4w4w4w4w4w44w4w4w8w4=====;8w4w4w4w4w4w4w4w4w4w4w4w4w4w4w4w4y-=======-=8fkkkggggggggggf6        QQQQ========",
"========QQQQ        4w4w4w4w4w4ww4w4w4w444====**>w4w4w4w4w4w4w4w4w4w4w4w4w4w4w4w-========-8fkkffgggggggggggf        QQQQ========",
"========WQQQ        w4w4w4w4w4w44w4w4w4w4w4======8w4w4w4w4w4w4w4w4w4w4w44w4w4ww4*=======*rfffzkkgggggggggggg        QQQQ========",
"========QQQQ        4w4w4w4w4w4ww4w4w4w4w444=====;8w4w4w4w4w4w4w4w4w4w4ww4w4w4==========wgfzkffkgggggggggggg        QQQQ========",
"========QQQQ        w4w4w4w4w4w44w4w4w4w4w4w4=====*ww4w4w4w4w4w4w4w4w4w44w844==========4ggggffkkgggggggggggg        QQQQ========",
"========QQQQ        4w4w4w4w4w4ww4w4w4w4w4w44======;4w4w4w4w4w4w4w4w4w4ww884==========8fggggkkkfgggggggggggg        QQQQ========",
"========QQQQ        w4w4w4w4w4w44w4w4w4ww4w44;======*w4ww4w4w4w4w4w4w4w4884==========8fggggggggggggggggggggg        RQQQ========",
"========QQQQ        4w4w4w4w4w4ww4w4w4w44w4w8=========w84w4w4w4w4w4w4w4w44*========*4fgggggggggggggggggggggg        QQQQ========",
"========QQQQ        w4w4w4w4w4w44w4w4w4ww4w4w;=========8w4w4w4w4w4w4w8w4==========-4fggggggggggggggggggggggg        QQQQ========",
"========QQQQ        4w4w4w4w4w4ww4w4w4w44w4w8;==========>w4w4w4w4w4w44;===========-fgggggggggggggggggggggggg        QQQQ========",
"========QQQQ        w4w4w4w4w4w4w4w4w4w4w4w44=============4y444yw8w4;=============rfgggggggggggggggggggggggg        QQQQ========",
"========QQQQ        4w4w4w4w4w4w4w4w4w4w4w8w4==============-4y4444=*=============-ffgggggggggggggggggggggggg        QQQQ========",
"========QQQQ        w4w4w4w4w4w4w4w4w4w4w4w4====================================-tzfgggggggggggggggggggggggg        QQQQ========",
"========QQQQ        4w4w4w4w4w4w4w4w4w4w4w4;====================================-ffkgggggggggggggggggggggggg        QQQQ========",
"========QQQQ        w4w4w4w4w4w4w4w4w4w4884=====================================-fgggggggggggggggggggggggggg        QQQQ========",
"========QQQQ        4w4w4w4w4w4w4w4w4w4ww4======================================-fgggggggggggggggggggggggggg        QQQQ========",
"========QQQQ        w4w4w4w4w4w4w4w4w4w84=======================================-rgggggggggggggggggggggggggg        QQQQ========",
"=======;QQQQ        4w4w4w4w4w4w4w4w4w484=======================================->gggggggggggggggggggggggggg        QQQQ========",
"========QQQQ        4w4w4w4w4w4wy44y44y===========================================rfgggggggggggggggggggggggg        QQQQ========",
"========QQQQ        w4w4w4w4w4w444y=4y4==========================================*-sgggggggggggggggggggggggg        QQQQ========",
"========QQQQ        4w4w4w4w4w4w=yy444=============================================4fggggggggggggggggggggggg        QQQQ===;=*==",
"========QQQQ        w4w4w4w4w4w4y4444=============================================**8ggggggggggggggggggggggg        QQQQ==8rysu8",
"8=======QQQQ        w84w4w4w4w4w;y4y=================================================wfggggggggggggggggggggg        QQQQ-sggfggg",
"fy======QQQQ        4ww4w4w4w4w4y44===================================================rfgggggggggggggggggggg        QQQQtggggggg",
"ggs4====QQQQ        *44w4w4w4w4wy4y=====================;44;===========================rgggggggggggggggggggg        QQQQzfgggggg",
"gggs4===QQQW        ===8w4w4w4w4y-+=================-44yw84w44==========================rggggggggggggggggggg        QQQQzfgggggg",
"ggggt8>*WQQQ        ====*488w484==================48w4w4w4w4w4w4=========================ysggggggggggggggggg        QQQQfkfkkkfk",
"ggggff8*WQQQ        +=====*4;44==================-884w4w4w4w4w4w8==;======================ysggggggggggggggfa        QQQQkfkkfkfk",
"ggggfkf-WQQQO       o===========================44w8w4w4w4w4w4w484**=======================wggggggggggggggf*       OQQQRkkffggkg",
"ggggzffsJQQQ$        o========================&44w4w4w4w4w4w4w4w8w8*=======================;wfgggggggggggs+        %QQQIfkkkgggg",
"ggggggggIWQQs                                       w4w4w4w4w4w44w4w4*======                                       uQQQJgggggggg",
"ggggggggCWQQS                                       4w4w4w4w4w4ww4w484======                                       SQQQVgggggggg",
"ggggggggvWQQQ*                                      w4w4w4w4w4w44w4w884&====                                      =WQQWvgggggggg",
"ggggggggfWQQQZ                                      4w4w4w4w4w4ww4w4w844====                                      ZQQQRggggggggg",
"ggggggggfZQQQQw                                     y4;yy;4y;yy;4w4w4w4w4&==                                     yWQQQSggggggggg",
"gggggggggyRQQQQw                                    ;4y44y4;y44yw4w4w4w444==                                    8WQQQRgggggggggg",
"ggggggggs=sWQQQQn.                                  y4y44y4y44444w4w4w4wyy==                                   bQQQQWbgggggggggg",
"ggggggfs4=;bQQQQQWl4.                               y4;yy;4y;yy;w4w4w4w44444                                4vQQQQQQIggggggggggg",
"ggggggg8====nQQQQQQQQQQQQQQQQQQQQQQQQQQQQQQQQQQQYQQQ4y;44;y4y;yy4w4w4w4w;yy4QQQQQQQQQQQQQQQQQQQQQQQQQQQQQQQQQQQQQQWGgggggggggggg",
"gggggfr4=====lWQQQQQQQQQQQQQQQQQQQQQQQQQQQQQQQQQQQQQ4yy44yy44444w4w4w4w4y444QQQQQQQQQQQQQQQQQQQQQQQQQQQQQQQQQQQQWWlygggggggggggg",
"ggggfu========8MQQQQQQQQQQQQQQQQQQQQQQQQQQQQQQQQQQQQy;;yy;;y;yy;4w4w4w4w444yQQQQQQQQQQQQQQQQQQQQQQQQQQQQQQQQQQQQZ8==uffggggggggg",
"ggggy===========4aZIQQQQQQQQQQQQQQQQQQQIQQQQQQQQQQQQ44y44y44y44yw4w4w4w4;y4yQQQQQQQQQQQRQQQQQQQQQQQQQQQQQQQQYZh;=====sgggggggggg",
"ggfu-==============================44y4y;yy;y4;yy;4y;4y;44y44y4444y44y44y4;y4;y=================;==48w4w4w4w4w4*======ufgggggggg",
"ggr=-=============================4y444yy44y;4y44y4yy44yy;;yy;y;yy;44;yyy4y44yy44;================44w8w4w4w4w4w4-======wgggggggg",
"f8*=============================&4;yyy-44444y4y44y4;y44y4yy44;yy;y;yy;y;;4y44y444*==============-48w4w4w4w4w4w4ww4======yffggggg",
"4*===============================4y444y4;yy;y4;yy;4y;4y;4y;44y4444y44y44y4;y444yw8=============*8ww4w4w4w4w4w4w4844======4sfggff",
"========-**--8ysyu8-============;y444y44yy;y4y;44y44yy;yy44y;yy;y44yy44y;yy;y44yw4*===========444w4w4w4w4w4w4w4w8w44=======8rr4*",
"========--*rzffgflgf4===========4y4y4;yy44444yy44;yy4444;yy;y44y;yy;;yy;y44y;yy;4w4==========*48w4w4w4w4w4w4w4w4w4w84=======-*==",
"========--tfffggggggf8=========4y;;yy;y;;yy;y;;yy;y;;yy;444444444444444444444444w48==========84w4w4w4w4w4w4w4w4w4w4w84==========",
"========6fzkfzggggggfs4========-44y44y44y44y44y44y44y44yy;yy;yy;yy;yy;yy;yy;yy;y8w8=========44w4w4w4w4w4w4w4w4w4w4w4884========="
};
