/* XPM */
static char *result[] = {
/* columns rows colors chars-per-pixel */
"128 128 29 1 ",
"  c #758C8E",
". c #758D8F",
"X c #768D8F",
"o c #768E90",
"O c #778E90",
"+ c #778E91",
"@ c #778F91",
"# c #788F91",
"$ c #788F92",
"% c #789092",
"& c #799093",
"* c #799193",
"= c #7A9194",
"- c #7A9294",
"; c #7A9295",
": c #7B9295",
"> c #7B9396",
", c #7C9396",
"< c #7C9497",
"1 c #7C9597",
"2 c #7D9598",
"3 c #7D9698",
"4 c #7E9799",
"5 c #7F989B",
"6 c #80999C",
"7 c #819A9D",
"8 c #829B9E",
"9 c #839C9F",
"0 c #849EA1",
/* pixels */
"       3000000000000009*       &222222222222222222222222222222222222222222222222222        >222222222222222222222222222#        ",
"     @800000000000000000;      &222222222222222222222222222222222222222222222222222       >22222222222222222222222222222#       ",
"    @90000000000000000000;     O22222222222222222222222222222222222222222222222222:      >2222222222222222222222222222222+      ",
"   *0000000000000000000000%     <2222222222222222222222222222222222222222222222222$     &22222222222222222222222222222222,      ",
"  ;000000000000000000000009@    &222222222222222222222222222222222222222222222222<     X2222222222222222222222222222222222*     ",
" ;00000000000000000000000007.    <22222222222222222222222222222222222222222222222&     =2222222222222222222222222222222222<     ",
";0000000000000000000000000004    #2222222222222222222222222222222222222222222222>      <22222222222222222222222222222222222+    ",
"000000000000000000000000000003    -222222222222222222222222222222222222222222222X      222222222222222222222222222222222222&   @",
"000000000000000000000000000000*    >2222222222222222222222222222222222222222222#       222222222222222222222222222222222222&  ;0",
"0000000000000000000000000000008    X<22222222222222222222222222222222222222222*        <22222222222222222222222222222222222+ o90",
"00000000000000000000000000000001    X<222222222222222222222222222222222222222=         =2222222222222222222222222222222222<  400",
"00000000000000000000000000000009o    X<2222222222222222222222222222222222222=          X2222222222222222222222222222222222& .000",
"000000000000000000000000000000004     #222222222222222222222222222222222222>            &22222222222222222222222222222222,  %000",
"000000000000000000000000000000009      +2222222222222222222222222222222222>              :2222222222222222222222222222222O  %000",
"000000000000000000000000000000000%      +22222222222222222222222222222222:    .>80093o    <22222222222222222222222222222&   %000",
"000000000000000000000000000000000%       #<22222222222222222222222222222:    .60000008@   X<222222222222222222222222222=     900",
"000000000000000000000000000000000o        #2222222222222222222222222222>    .7000000009@   +22222222222222222222222222>      100",
"000000000000000000000000000000008          O22222222222222222222222222:    .700000000000*   O222222222222222222222222:       o90",
"00000000000000000000000000000000;           O222222222222222222222222:    o70000000000009*   +2222222222222222222222>         >0",
"00000000000000000000000000000006             X<222222222222222222222=    .7000000000000009@   +<2222222222222222222-           6",
"9000000000000000000000000000009.              X<2222222222222222222=    .800000000000000009@   #222222222222222222-            o",
"*00000000000000000000000000009@                 >22222222222222222#    .70000000000000000008.   +<222222222222222=              ",
" 3000000000000000000000000009*                   :22222222222222<#     6000000000000000000007.   X<2222222222222=               ",
" .70000000000000000000000000@                     $<22222222222-X     100000000000000000000007    X,22222222222&                ",
"  .900000000000000000000009@                        -22222222,#      .000000000000000000000000;     =22222222,+      $-:::-$    ",
"   @9000000000000000000007o                          O=2222,$        ;0000000000000000000000006      X:2222<&      *222222222*  ",
"    @00000000000000000005.                                           10000000000000000000000006        XOOO      $2222222222222$",
"&    ;000000000000000001        XOOO                                 >0000000000000000000000006                 &222222222222222",
"2=    ;000000000000009;       #22222,X                               .000000000000000000000000>                =2222222222222222",
"22>    ;0000000000008@      X:2222222<                                400000000000000000000008.               >22222222222222222",
"222>X   *90000000006.      &<222222222>                               .7000000000000000000009@              X>222222222222222222",
"2222<X   @60000006;       -222222222222>                               o90000000000000000000*              X<2222222222222222222",
"222222O    %5664@       X,22222222222222=                               @900000000000000000;              O222222222222222222222",
"2222222#               O<2222222222222222$                               %9000000000000000>              #2222222222222222222222",
"22222222#             O2222222222222222222O                               *000000000000004              #22222222222222222222222",
"222222222#           X<2222222222222222222>                                @9000000000003              #222222222222222222222222",
"2222222222+          <222222222222222222222&                  X$&&&#        @90000000001              +2222222222222222222222222",
"22222222222X        &22222222222222222222222X               #:2222222=X      @90000000;              X22222222222222222222222222",
"22222222222<X       :22222222222222222222222=             $<2222222222<#      o300005%              X<22222222222222222222222222",
"222222222222<X      :222222222222222222222222X           *22222222222222>       o%%@               X<222222222222222222222222222",
"2222222222222>      $222222222222222222222222$         +<2222222222222222:                         >2222222222222222222222222222",
"22222222222222>     X222222222222222222222222&        *2222222222222222222>                       >22222222222222222222222222222",
"222222222222222=     &22222222222222222222222#       :222222222222222222222>                     =222222222222222222222222222222",
"2222222222222222#     >222222222222222222222<      X,22222222222222222222222>                   #2222222222222222222222222222222",
"22222222222222222X    X222222222222222222222+     +<2222222222222222222222222>                 X22222222222222222222222222222222",
"22222222222222222:     &2222222222222222222#     $2222222222222222222222222222>                :22222222222222222222222222222222",
"222222222222222222+     >2222222222222222<O     &222222222222222222222222222222>              +222222222222222222222222222222222",
"222222222222222222-      <22222222222222>X     *22222222222222222222222222222222-             -222222222222222222222222222222222",
"2222222222222222222X     +2222222222222=      =2222222222222222222222222222222222=           X2222222222222222222222222222222222",
"2222222222222222222#      *2222222222<+      =222222222222222222222222222222222222&          #2222222222222222222222222222222222",
"2222222222222222222&       =22222222:       =22222222222222222222222222222222222222#         &2222222222222222222222222222222222",
"2222222222222222222&        $22222<$       =222222222222222222222222222222222222222<X        &2222222222222222222222222222222222",
"2222222222222222222#         X&&#O        =22222222222222222222222222222222222222222,        #2222222222222222222222222222222222",
"2222222222222222222X                     =2222222222222222222222222222222222222222222:       X2222222222222222222222222222222222",
"222222222222222222>                     #222222222222222222222222222222222222222222222*       >222222222222222222222222222222222",
"222222222222222222$                    O22222222222222222222222222222222222222222222222#      $222222222222222222222222222222222",
"22222222222222222,                     >22222222222222222222222222222222222222222222222<X      ,22222222222222222222222222222222",
"22222222222222222+                    &2222222222222222222222222222222222222222222222222>      +22222222222222222222222222222222",
"2222222222222222*                     <22222222222222222222222222222222222222222222222222#      *2222222222222222222222222222222",
"222222222222222>                     #222222222222222222222222222222222222222222222222222<       >222222222222222222222222222222",
"22222222222222<                      -2222222222222222222222222222222222222222222222222222#       <22222222222222222222222222222",
"2222222222222<X                      :2222222222222222222222222222222222222222222222222222-       X<2222222222222222222222222222",
"2222222222222O                       :22222222222222222222222222222222222222222222222222222        O2222222222222222222222222222",
"222222222222#                        :22222222222222222222222222222222222222222222222222222         #222222222222222222222222222",
"22222222222#                         &22222222222222222222222222222222222222222222222222222          #22222222222222222222222222",
"2222222222#                          X22222222222222222222222222222222222222222222222222222           #2222222222222222222222222",
"222222222*                            ,222222222222222222222222222222222222222222222222222:            *222222222222222222222222",
"22222222*                             $222222222222222222222222222222222222222222222222222&             *22222222222222222222222",
"2222222&                               ,2222222222222222222222222222222222222222222222222<               $2222222222222222222222",
"222222$               X*:::=#          +2222222222222222222222222222222222222222222222222*                #222222222222222222222",
"22222#               &22222222&         =22222222222222222222222222222222222222222222222>                  O<2222222222222222222",
"222<+               :2222222222>X        >2222222222222222222222222222222222222222222222X                   X<222222222222222222",
"22<X               :2222222222222&       X<22222222222222222222222222222222222222222222#                     X>22222222222222222",
"2>X               =222222222222222:X      X<222222222222222222222222222222222222222222*                        >2222222222222222",
":                &22222222222222222<$      #22222222222222222222222222222222222222222=          *46664%         =222222222222222",
"                #22222222222222222222&      =222222222222222222222222222222222222222=         %700000006@        $,22222222222,$",
"               X<222222222222222222222=      -2222222222222222222222222222222222222=         %90000000007o         =222222222=  ",
"               ,22222222222222222222222-      >22222222222222222222222222222222222=         ;0000000000009@         X*<222<*X   ",
"              :2222222222222222222222222>     X<222222222222222222222222222222222=         ;000000000000009*                    ",
"             &222222222222222222222222222>     X<2222222222222222222222222222222=         ;00000000000000009;                   ",
"            O22222222222222222222222222222>     X<22222222222222222222222222222=         10000000000000000000>                  ",
"            ,222222222222222222222222222222-     #222222222222222222222222222<+         ;000000000000000000000;                 ",
"           *22222222222222222222222222222222#     +2222222222222222222222222<O         ;00000000000000000000000;                ",
"          X222222222222222222222222222222222,      #22222222222222222222222>          ;0000000000000000000000000;               ",
"          :2222222222222222222222222222222222       #222222222222222222222=          ;000000000000000000000000000;              ",
"         #22222222222222222222222222222222222O       +<222222222222222222#          ;00000000000000000000000000000;             ",
"         >22222222222222222222222222222222222O        X<222222222222222:X          @0000000000000000000000000000000@            ",
"         222222222222222222222222222222222222O         X=222222222222<$           .800000000000000000000000000000008.           ",
"        O22222222222222222222222222222222222<            $<22222222<#             10000000000000000000000000000000001           ",
"         22222222222222222222222222222222222=              &,2222-+              o00000000000000000000000000000000000o          ",
"         ,222222222222222222222222222222222<X                                    4000000000000000000000000000000000003          ",
"         &222222222222222222222222222222222#                                     9000000000000000000000000000000000006          ",
"          <2222222222222222222222222222222:                                      0000000000000000000000000000000000006          ",
"          O222222222222222222222222222222,                                       9000000000000000000000000000000000006          ",
"           #22222222222222222222222222222X                                       4000000000000000000000000000000000003          ",
"            +<22222222222222222222222222$                                        @00000000000000000000000000000000000o          ",
"             X<222222222222222222222222-                                          30000000000000000000000000000000003           ",
"              X<2222222222222222222222>                                           .700000000000000000000000000000007.           ",
"               X>22222222222222222222<X                                            @9000000000000000000000000000009@            ",
"                 :222222222222222222<X                                              ;00000000000000000000000000000;       @4665;",
">                 &22222222222222222+                                                >000000000000000000000000000>       3000000",
"05.                X,22222222222222#                                                  100000000000000000000000001      .50000000",
"008@                 -222222222222=                   O&&&&$                           3000000000000000000000003      @800000000",
"0009%                 +,222222222$                  &,2222222-O                         30000000000000000000003      %9000000000",
"00009@                  $:22222,O                 $222222222222>X                        300000000000000000001      @90000000000",
"000009@                   X$&&+                  $22222222222222>X                        300000000000000000;      @900000000000",
"0000008.                                        -2222222222222222<+                        >000000000000009;      .8000000000000",
"00000007                                       -222222222222222222<+                        ;0000000000009@       70000000000000",
"000000003                                    X>222222222222222222222$                        %90000000007o       300000000000000",
"000000000o                                  X,22222222222222222222222&                        o10000009>.       o000000000000000",
"0000000003                                 X<2222222222222222222222222=                         o36661o         3000000000000000",
"0000000006                                O<222222222222222222222222222=                                        6000000000000000",
"0000000005                               X<22222222222222222222222222222=                                       5000000000000000",
"000000000;                              X<2222222222222222222222222222222=                                      ;000000000000000",
"000000007                              X<222222222222222222222222222222222=                                      700000000000000",
"00000009@                             X<22222222222222222222222222222222222=                                     @90000000000000",
"0000000>                              >2222222222222222222222222222222222222#                                     >0000000000000",
"0000004                              >222222222222222222222222222222222222222#                         XOOO        4000000000000",
"000005                              =2222222222222222222222222222222222222222<X                      O:2222<&       500000000000",
"00006                              *222222222222222222222222222222222222222222<X                    :22222222<+      60000000000",
"0005                              #22222222222222222222222222222222222222222222>                   :2222222222<#      5000000000",
"004                              X<222222222222222222222222222222222222222222222*                X<2222222222222#      400000000",
"9;                               :22222222222222222222222222222222222222222222222O              X<222222222222222&      ;9000000",
"@                               #222222222222222222222222222222222222222222222222,             X<22222222222222222=      @500008",
"            .;5666;             >2222222222222222222222222222222222222222222222222+           +<2222222222222222222=       *11% ",
"           400000009%          X22222222222222222222222222222222222222222222222222-          X<222222222222222222222=           ",
"         o60000000000%         &222222222222222222222222222222222222222222222222222         X<22222222222222222222222=          ",
"        *9000000000009@        &222222222222222222222222222222222222222222222222222        X<2222222222222222222222222=         "
};
