/* XPM */
static char *result[] = {
/* columns rows colors chars-per-pixel */
"128 128 48 1 ",
"  c #1B1B1B",
". c #252525",
"X c #292929",
"o c #373737",
"O c #3E3E3E",
"+ c gray25",
"@ c #4B4B4B",
"# c #575757",
"$ c #5D5D5D",
"% c #636363",
"& c #6E6E6E",
"* c gray44",
"= c #7C7C7C",
"- c #838383",
"; c #8C8C8C",
": c #8F9092",
"> c #939394",
", c #9F9F9F",
"< c #A3A3A3",
"1 c #A7A7A9",
"2 c #AAAAAA",
"3 c #B3B3B3",
"4 c #BCBCBC",
"5 c #C4C4C4",
"6 c #C6C8C7",
"7 c #C7C9C9",
"8 c #CCCDCC",
"9 c #CED0CF",
"0 c #CECFD1",
"q c #CFD1D0",
"w c #D4D4D4",
"e c #D6D8D7",
"r c #D5D6D8",
"t c #D7D8D9",
"y c #DDDDDD",
"u c #DEDFE0",
"i c #DFE0E2",
"p c #E4E5E5",
"a c #E6E8E7",
"s c #E5E6E8",
"d c #E7E8E9",
"f c #ECECEC",
"g c #EEEEF0",
"h c #EFF1F0",
"j c #F5F5F5",
"k c #F6F8F7",
"l c #F7F9F8",
"z c None",
/* pixels */
"zzzzzzzzzzzzzzzzzzzzzzzzzzzzzzzzzzzzzzzzzzzzzzzzzzzzzzzzzzzzzzzzzzzzzzzzzzzzzzzzzzzzzzzzzzzzzzzzzzzzzzzzzzzzzzzzzzzzzzzzz->213;z",
"zzzzzzzzzzzzzzzzzzzzzzzzzzzzzzzzzzzzzzzzzzzzzzzzzzzzzzzzzzzzzzzzzzzzzzzzzzzzzzzzzzzzzzzzzzzzzzzzzzzzzzzzzzzzzzzzz%-135wpafff8w2z",
"zzzzzzzzzzzzzzzzzzzzzzzzzzzzzzzzzzzzzzzzzzzzzzzzzzzzzzzzzzzzzzzzzzzzzzzzzzzzzzzzzzzzzzzzzzzzzzzzzzzzzzzzzzz;444wypffffffffdfqe2z",
"zzzzzzzzzzzzzzzzzzdjjjjjjjjjjjjjjjjjjjjjjjjjjjjjjjjjjjjjjjjjjjjjjjjjjjjjjjjjjjjjjjjwzzzzzzzzzzzzzzzzz34qwyfffffffdffpywwee8y8e2z",
"zzzzzzzzzzzzzzzzzzfkjjjjjjjjjjjjjjjhjjjjjjjjjjjjjhjjjjjjjjjjjjjjjjjjjjjjjjjjjjjjjjjqzzzzzzzzzzz78wapffddffffapyyewqwydjjjjayqt2z",
"zzzzzzzzzzzzzzzzzzfjjjjkjjjjjjjjjjjjjjhjjjjjjjjjjjjjjjjjjjjhjjjjjjjjjjjjjjhjjjjjjhj5zzz356eypfffffffdfpyw9wwyyfhjjjjjjjjjjay8e2z",
"zzzzzzzzzzzzzzzzzzfjjhqwwwwwwwwwwwwww9qwww8wwwwww8wwwwwwwwwww8wwwwwwww8w8wwwwww7wewqypafddffffpywqwyeypahjjjjjjjjjjjjjjjjjayqe2z",
"zzzzzzzzzzzzzzzzzzhjja82&&&&&&&&&&&&&&&&&&&&&&&&&&&&&&&&&&&&&&&&&&&&&&&&&&&&&&87fffffffpyywwwwypfjjjjjjjjjjjjjjjjjjjjjjjjjayqe2z",
"zzzzzzzzzzzzzzzzzzfjjp8,                                                     X58fytw9wtyfgjjjjjjjjjjjjjjjjjjjjjjjjjjjjjjjjay9t2z",
"zzzzzzzzzzzzzzzzzzhjjpw<                                                     X56pwfjjjjjjjjjjjjjjjjjjjjjjjjjjjjjjjjjjjjjjjay9w2z",
"zzzzzzzzzzzzzzzzzzfjjp8,                                                     X58dyjjjjjjjjjjjjjjjjjljjjjjjjjjjjjjjjjjjjjjjayqw2z",
"zzzzzzzzzzzzzzzzzzhjjp8,                                                     X57pyjjjjjjjjjjjjjjjjjjjjjjjjjjjjjfhfpywyjjjjay9y2z",
"zzzzzzzzzzzzzzzzzzhjjp8,                                                     X58ayjjjjjjjjjjjjjjjjjjjjjjjayw858556888wjjjjpy9t2z",
"zzzzzzzzzzzzzzzzzzfjjp8,                                                     X57pyjjjjjjjjjjhjjjfptw9855466545689wty6wjjjjfy9w2z",
"zzzzzzzzzzzzzzzzzzhjjp7,                                                     X58pijjjjjfayyw855458665668wwyfjjjjjjjj8wjjjjayqw2z",
"zzzzzzzzzzzzzzzzzzfjjp8,                                                     X58pyjjljy58655558wqypfjhjjjjjjjjjjjjjj8wjjjjay9y2z",
"zzzzzzzzzzzzzzzzzzhjjp8,                                                     X56pyjjjjy4wpdfjjjjjljjjjjjjjjjjljjjjjj8wjjjjpywt2z",
"zzzzzzzzzzzzzzzzzzfjjp8,                                                     X58pyjjjjy5hjjjjjjjjjjjjjjjjjjljjjjjjjj8wjjjjay8w2z",
"zzzzzzzzzzzzzzzzzzhjja8,                                                     X58pyjjjjy5hjjjjjjjjjjjjjjljjjjjjjjjjjj8wjjjjdyqw2z",
"zzzzzzzzzzzzzzzzzzfjja8,                         .                           X58ayjjjjp4hjjjjjjjjjjjljjjjjjjjjjjjjjj89jjjjpy9y2z",
"zzzzzzzzzzzzzzzzzzfjjp8,                                                     X58pyjjjjp4hjjjjjjjjjjjjjjjljjjjjjjjjjj89jjjjay9t2z",
"zzzzzzzzzzzzzzzzzzhjkp8,                                                     X55pyjjjjy5hjjjjjljjljjjljjjjjjjjljjjjj8wjjjjfy9w2z",
"zzzzzzzzzzzzzzzzzzhjjp8,                                                     X58pyjjjjp5hjljjjjjjjjjjjjjjjjjjjljjjjj9wjjjjayqw2z",
"zzzzzzzzzzzzzzzzzzfjjp8,                                                     X58ayjjjjp4jjjjjjjjjjljjjjjjljjjjjjjjjj9wjjjjay9y2z",
"zzzzzzzzzzzzzzzzzzfjjp8,                                                     X58ppjjjjp5hjjjjljjjjjjjjjjjjjjljjjjjjjqqjjjjayww2z",
"zzzzzzzzzzzzzzzzzzfjjd8,                                                     X58pyjjjjp4hjjjjjjjjjljjjljjjjjjjjjjjjj9qjjjjay8w2z",
"zzzzzzzzzzzzzzzzzzgjjp8,                                                     X58pyjjjjp4hjjjjjjjljjjjjjjjljjjjjjjjjj9qjjjjayqw2z",
"zzzzzzzzzzzzzzzzzzhjjp8,                                                     .57pyjjjjy5hjjjjjjjjjjjjjjjjjjjjjljjjjj9wjjjjay9y2z",
"zzzzzzzzzzzzzzzzzzhjjp8,                                                     .58pyjjjjp5jjjjjjjljjjjljjjjjjjjjjjjjjhqwjjjjfy9t2z",
"zzzzzzzzzzzzzzzzzzhjjp8,                                                     .58pyjjjjy5hjjjjjjjjjjljjjjjjjljjjjjjjjqwjjjjpy9w2z",
"zzzzzzzzzzzzzzzzzzfjjp7,                                                     X57pyjjjjy5jjjjjjjjjjjjjjjljjjjjjjjjjjjqwjjjjayqw2z",
"zzzzzzzzzzzzzzzzzzfjjp8,                                                     X58ppjjjjy5fjjjjjjjjjjjjjjjljjjjjjjjjjhqwjjjjay9y2z",
"zzzzzzzzzzzzzzzzzzhjjp9,                                                     X56pyjjjjy5jjjjjjjjljjjjjjjjjjjjjljjjjj0wjjjjpy8w2z",
"zzzzzzzzzzzzzzzzzzhjjp8,                                                     X58pyjjjjp5hjjjjljjjjjljjljjjjjljjjjjjj8wjjjjfywt2z",
"zzzzzzzzzzzzzzzzzzfjjp8,                                                     X58pyjjjjy5hjjjjjjjjjjjjjjjjljjjjjjjjjj0wjjjjfyqe2z",
"zzzzzzzzzzzzzzzzzzfjjp8,                                                     X58pyjjjjp5hjljjjjjjjjjjjjjjjjjjjjjjjjj00jjjjpyqe2z",
"zzzzzzzzzzzzzzzzzzhjjp8,                                                     X56pyjjjji4fjjjjjjljjjjjjjjjljjjjjjjjjj0wjjjjpy8w2z",
"zzzzzzzzzzzzzzzzzzhjjp9,                                                     X68pyjjjjp5hjjjjjjjljjjjjjjjjjjjjjljjjj0wjjjjayqt2z",
"zzzzzzzzzzzzzzzzzzhjjp8,                                                     X56dyjjjji5hjjjljjjjjjjjjjjjjjjjjjjjjjjwwjjjjayqe2z",
"zzzzzzzzzzzzzzzzzzfjjp9,                                                     X58pyjjjjp5hjjjjjjjjjjjjjjjjjjjljjjjjjj0wjjjjayqe2z",
"zzzzzzzzzzzzzzzzzzhjjp8,                                                     X56pyjjjjp5hjjjjjjjjjjjljjjjljjjjjjjjjjqwjjjjay9w2z",
"zzzzzzzzzzzzzzzzzzhjjp8,                                                     X58dyjjjjp5hjjjjjjjjjljjjjjjjjjjljjjjjhwwjjjjpy9t2z",
"zzzzzzzzzzzzzzzzzzfjjp9,                                                     X58pyjjjji5hjjjjjjjjjjjjjjljjjjjjjjjjjj9wjjjjfyqw2z",
"zzzzzzzzzzzzzzzzzzfjjp8,                                                     X58pyjjjjp5jjjjjjjjjjjjjjjjjljjjjjjjjjjwwjjjjpy9y2z",
"zzzzzzzzzzzzzzzzzzhjjp8,                                                     X57pyjjjjp5hjjjjjjjjjljjjjjjjjjjjjljjjjqwjjjjay9t2z",
"zzzzzzzzzzzzzzzzzzhjjp8,                          .                          X58pyjjjjp5gjjjjjjlljjjjjjjjjjjjjjjjjjjwwjjjjay9w2z",
"zzzzzzzzzzzzzzzzzzfjjp8,                                                     X58pyjjjjy7jjjjjjjjjjjjjjljjjjjjjjjjjjjwqjjjjpyqw2z",
"zzzzzzzzzzzzzzzzzzfjjp8>                                                     X58dyjjjly5jjjjjjjjjjjjjjjjljjjjjjjjhjjwwjjjjfy8y2z",
"zzzzzzzzzzzzzzzzzzhjjp8,                                                     X88pyjjjjy6hjjjjjjjljjjjjjjjjjjjjjjjjjjwwjjjjsy0w2z",
"zzzzzzzzzzzzzzzzzzfjjp8,                                                     X58pyjjjjp5hjjjjljjjjjjjjjjjjljjjjjjjjj0rjjjjpy0w2z",
"zzzzzzzzzzzzzzzzzzhjja8,                                                     X55ppjjjjp6jjjjjjjjjjjjjjljjjjjjjjjjjjj0rjjjjsyqw2z",
"zzzzzzzzzzzzzzzzzzhjjp8,                                                     X58pyjjjjp5hjjjjjjjjjjjjljjljjjjjjjjjjjwrjjjgsy9y2z",
"zzzzzzzzzzzzzzzzzzhjja8,                    .                                X58ayjjjjp6hjjjjljjjjjljjjjjjjljjjjjjjhwwsyyqyy8w2z",
"zzzzzzzzzzzzzzzzzzhjjp8,                                                     X58pyjjjjy5hjjjjjjljjjjjjjjjjjjjjjjjjjjwwiiyyyy8t2z",
"zzzzzzzzzzzzzzzzzzfjjp8,                                                     X55pyjjljp7hjjjjjjjjjjjjljjjjjjjjjjjjjjwwpipyyyqw2z",
"zzzzzzzzzzzzzzzzzzhjjp9,                                                     X58dyjjjjy7hjjjjjjjjjjjjjjljjjjjjjjjjjjw0sytiyy832z",
"zzzzzzzzzzzzzzzzzzhjjp8,                                                     X58ayjjjji7jljjjjjjjljjjjjjjjjjjjjjjffg044:>iyy8,<z",
"zzzzzzzzzzzzzzzzzzhjjp9,                                                     X55pyjjjjp7gjjjjjjjjjljjjjjjjljjjjjfruur41;:iyy8,1z",
"zzzzzzzzzzzzzzzzzzfjja9,                                                     X58pyjjjjp5gljjjjjljjjjjjljjjjjjjjjjjjgr0srrpyy8,<z",
"zzzzzzzzzzzzzzzzzzfjjp8,                                                     X58pyjjjjy7gjjjljjjjjjjjjjjjjjjjjjjjjjgrrddfsyy811z",
"zzzzzzzzzzzzzzzzzzhjjp8,                                                     X58pyjljji8jjjjjjjjjjjjjjljjjljjjjjjjjjr0ggfdyy8w2z",
"zzzzzzzzzzzzzzzzzzfjjp9,                                                     X58pyjjjji5gjjjjjjjjjjjjjjjjjjjljjjjjjjrwgggfyyqe2z",
"zzzzzzzzzzzzzzzzzzhjjp8,                                                     X55pijjjjp8jljjjljjljjjjjjjjjljjjjjjjjjwwguwfyyqe2z",
"zzzzzzzzzzzzzzzzzzhjjp8,                                                     X58pyjjjji8gjjjjjjjjjjljjjjjjjjjjjjjjjjwwg41fyyqe2z",
"zzzzzzzzzzzzzzzzzzhjja8,                                                     X58pykjjjy8jjjjjkjjjjjjjjjjjjjjjjljjjjjwqjiwhyy0r2z",
"zzzzzzzzzzzzzzzzzzhjjp8,                                                     X58ayjjkjp6hjjjjjjjjkkjjjjkjjjjjljjjjjjwwhgdguy8r2z",
"zzzzzzzzzzzzzzzzzzfjjp9,                                                     X58aykjjjp8jjjjjjjjjjkjjjjjjljjjjjjjjjjewjkkguy8r2z",
"zzzzzzzzzzzzzzzzzzhjjp8,                                                     X58pyjjjjp6hjjjkjjjjjjjkjjjjjjjjjjjjjjjeqjklhuyqr2z",
"zzzzzzzzzzzzzzzzzzhjjp8,                                                     X55pyjjjjp6hjjjjjkjkjjjjjjjjljjjjljjjjjewhhhayy8e2z",
"zzzzzzzzzzzzzzzzzzhjjp8,                                                     X58pyjjjjy8hjjjjjjjjjjjjjjjjjjjjjjjjjjjwwjhfddyqe2z",
"zzzzzzzzzzzzzzzzzzfjjp8,                                                     X58pyjjjjp8hjjjjjkjjjjjjjkjjjjjjjjjjjjjwwjjjjdy8e2z",
"zzzzzzzzzzzzzzzzzzfjjp8>               .                                     X58pyjjjju8hjjjjjjjjjkjjjjjjjjjljjjjjjjewjjjjdyqe2z",
"zzzzzzzzzzzzzzzzzzgjjp8,                                   .                 X58pyjjlju8hjjjjjjjjkjjjjjjjjjjjjjjjhjjwwjjjjpy9e2z",
"zzzzzzzzzzzzzzzzzzfjjp8,                                                     X55dyjjjju8hjkljjjjjjjjjjjjjjjjjjljjjjjwwjjjjfy9w2z",
"zzzzzzzzzzzzzzzzzzhjjp8,                                                     X58pyjjjjp8hkjjjjjjjjjjjjjjjjjjjjjjjjjjtwjjjjfyqe2z",
"zzzzzzzzzzzzzzzzzzhjjp9,                                                     X58ayjkjjy9hjjjjjjjkjjjjjjjjljjjjjjjjjjtwjjjjpyqe2z",
"zzzzzzzzzzzzzzzzzzfjjp8,                                                     X58pykjjjp8hjjjjjjjjjjjjjjjjjjjjjjjjjjjtwjjjjpy8w2z",
"zzzzzzzzzzzzzzzzzzhjjp8,                                                     X58ayjjjjiw8wwwwwwteyyyypppfffjjjjjjjjjtwjjjjayqt2z",
"zzzzzzzzzzzzzzzzzzfjjp8,                                                     X58pyjjjja8qwqq9wwweeeewwwwwqq888889q8wqwjjjjfyqe2z",
"zzzzzzzzzzzzzzzzzzhjja8,                                                     X55ayjjkjjjjjjjjhhfffapppyyywww88888888wtjjjjpyqe2z",
"zzzzzzzzzzzzzzzzzzhjjp8,                                                     X58pyjjjjjjjjjjjjjjjjjljjjjjjjjjljjjjjhgjjjjjay9w2z",
"zzzzzzzzzzzzzzzzzzhjjp8,                                                     X55pyjjjjjjjjjjjjjjjjjjjjjjjjjljjjjjjjjjjjjjjpy9t2z",
"zzzzzzzzzzzzzzzzzzfjjp9,                                                     X58ppjjjjjjjjjjjjjjjjjjjjjjjljjjjjjjjjjjjjjjjpyqw2z",
"zzzzzzzzzzzzzzzzzzfjjp8,                                                     X58pyjjjjjjjjjjjjjjjjjjjjjjjjjjjjjjjjjjjjjjjjay9y2z",
"zzzzzzzzzzzzzzzzzzhjjd8,                                                     X58dyjjjjjjjjjjjjjjjjjjjjjjjjjjjjjjjjjjljjljjpy9t2z",
"zzzzzzzzzzzzzzzzzzhjjp8,                                                     X58pyjjjjjjjjjjjjjjjjjljjjjjjjjjjjjjjjjjjjjjjpy9w2z",
"zzzzzzzzzzzzzzzzzzhjjp8,                                                     X58pyjjjjjjjjjjjjjjjjjjjjjjjjjljjjjjjjjjjjjjjpyqw2z",
"zzzzzzzzzzzzzzzzzzfjjp8,                                                     X55dyjjjjp58899wtyyidfjjjjjjjjjjjjjjjjjjjjjjjfy8y2z",
"zzzzzzzzzzzzzzzzzzhjjp8,                                                     X58pyjjjjp557656655555455558wwtyppaffjjjjjjjjay9w2z",
"zzzzzzzzzzzzzzzzzzhjjpq,                                                     X58pyjjjjp4jjjhhgfaitww85554555668655555yjjjjay9t2z",
"zzzzzzzzzzzzzzzzzzfjjp8,                                                     X58dyjjjjp4hjjjjjjjjjjjjjjjjgffpyytw9886wjjjjfyqw2z",
"zzzzzzzzzzzzzzzzzzfjjp8,               .                                     X55pyjjjjp5jjjjjjjjjjjjjjjjjjjjjjjjjjjj8wjjjjpy9y2z",
"zzzzzzzzzzzzzzzzzzhjjp8,                                                     X58pyjjjjp4hjjjjjjjjjjljjjjljjjjjjjjjjj8wjjjjay9t2z",
"zzzzzzzzzzzzzzzzzzhjjp8,                                                     X58dyjjjjy5hjjjjjjjjjjjjjjjjjjjjjjjjjjj9wjjjjay9w2z",
"zzzzzzzzzzzzzzzzzzhjjp8,                                                     X88pyjjjjp5jjjjjjjjjjjjjjjjjjjjjjjjjjjj9wjjjjayqw2z",
"zzzzzzzzzzzzzzzzzzgjjp8,                                                     X58pyjjjjy5hjjjjjjjjljjjjjjjjjjjjjjjjjh0wjjjjay9y2z",
"zzzzzzzzzzzzzzzzzzhjjp8,                                                     X58pyjjjjy5gjjjjljjjjjjjljjjjjjjjjjjjjj0wjjjjdy8w2z",
"zzzzzzzzzzzzzzzzzzhjja8,                                                     X55pyhjjjp5gjljjjjjjjjjjjjjjjjjjjljjjjj8wjjjjdy0w2z",
"zzzzzzzzzzzzzzzzzzfjjp9,                                                     X58pyjjjji5gjjjjjjljljjljjjjjjjjjjjjjjj0wjjjjdyqw2z",
"zzzzzzzzzzzzzzzzzzfjjp8,                                                     X58pyjjjjp5gjjjljjjjjjjjjjjjjjjjjjjjjjjwwjjjjdy9y2z",
"zzzzzzzzzzzzzzzzzzgjjp8,                                                     X58pyjjjji5gjjjjjljjjljjjjjljjjjjjjjjjgwwjjjjay9w2z",
"zzzzzzzzzzzzzzzzzzfjjp8,                                   .                 X58ppjjjji5jjjljjjjjjjjjjjjjjjjjjjjjjjj0wjjjjayww2z",
"zzzzzzzzzzzzzzzzzzhjjp8,                                                     X55pyjjjjp5jjjjjjjljjjjjjjjjjjjjjljjjjjw0jjjjayqw2z",
"zzzzzzzzzzzzzzzzzzhjjp8,                                                     X58pyjjjjp5gjjjjjjjjjjjjjjljjjjjljjjjjjwwjjjjay9y2z",
"zzzzzzzzzzzzzzzzzzfjjp8,                                                     X58ppjjjjp7jjjjjjjjjjjjjjjjjjljjjjjjjjjqwkjjjay9w2z",
"zzzzzzzzzzzzzzzzzzhjjp8,                                                     X58pyjjjjp5gjjjjjjjjljjjljjjjjjjjjjjjjjwwjjjjpy9t2z",
"zzzzzzzzzzzzzzzzzzfjja8,                                                     X58pyjjjjp5gjjjjjjjjljjjjjjjjjjjjjjjjjjwwjjjjfyqw2z",
"zzzzzzzzzzzzzzzzzzhjjp8,                                                     X58pyjjjly7gjjjjjjjjjjjjjjjjjjjjjjjjjjjwwjjjjpy8y2z",
"zzzzzzzzzzzzzzzzzzhjjp8,                                                     X57pyjjjjy8gjjjjgjjjjjjjjjjljjjjljjjjjjwwjjjjfyqw2z",
"zzzzzzzzzzzzzzzzzzhjjp8,                                                     X58pyjjjjp7jjjjjjjjjjjjjjjjjjjjjjjjjjhjewjjjjpy9t2z",
"zzzzzzzzzzzzzzzzzzfjjp8,                                                     X57pujjjji8rigjjjjjjjjjjjjjjjjjjjjjjjjjewjjjjpyqw2z",
"zzzzzzzzzzzzzzzzzzfjhp8,                                                     X58pyjjjjp808000wwypsjjjjjjjjjjjjjjjjjjeejjjjfy8y2z",
"zzzzzzzzzzzzzzzzzzhjjp8,                                                     X58pyjjjjjjfir0800wwq888qwppfhjjjjjjjhjewjjkjay9e2z",
"zzzzzzzzzzzzzzzzzzhjjp8,                                                     X58pyjjjjjljjjjjjgfdyeq88qwwww889wpfhjjwwjjjjay9e2z",
"zzzzzzzzzzzzzzzzzzfjjp8,                                                     X58ppjjjjjjjjjjjjjjjjjjjjfyywww9ww9qw9qwwhjjjpyqe2z",
"zzzzzzzzzzzzzzzzzzfjja8,                                                     X55pyjjjjjjjhjjhjjjjjjjjjjjjjjjjhfyeqwqwwjjjjayqe2z",
"zzzzzzzzzzzzzzzzzzgjjp8,                                                     X58pyjjjjjjjjjjjjjjjjjjjjjjjjjjhjjjjjkjhhjjjjfy8w2z",
"zzzzzzzzzzzzzzzzzzfjjp8,                                                     X58pwjjjjjjjjjjjjjjjjjjjjjjjjjjjjjjjjjjjjjjjjpyqt2z",
"zzzzzzzzzzzzzzzzzzhjjp8,                                                     X58pyqqweyigjjjjjjjjjjjjjjjjjjjjjjjjjjjjjjjjjpyqw2z",
"zzzzzzzzzzzzzzzzzzhjjp82#####################################################$55ffffffaptw0wyifjhjjjjjjjjjjjjjjjjjjjjjjjjjfy8y2z",
"zzzzzzzzzzzzzzzzzzfjjfqwwwwwwwwwwwwwwwwwwwwwwwwwwwwwwqwwwwwwwrwwwwwwwwwwwwwwwww0eqwyddffffffppywtwwypjjjjjjjjjjhjjjjjjjjjjay9w2z",
"zzzzzzzzzzzzzzzzzzfjjjjjjjjjjjjjjjjjjjjjjjjjjjjjjjjjjjjjjjjjjjjjjjjjjjjjjhjjjjjjjjh4z;,58wdffdfffffay9wwwyyfjjjhjjjjjjjjjjpy9t2z",
"zzzzzzzzzzzzzzzzzzhjjjjjjjjjjjjjjjjjjjjjjjjjjjjjjjjjjjjjjjjjjjjjjjjjjjjjjjjjjjjjjjj6zzzzzz@*>37eipffaffafppyq8wypffjjjjjjjpyqw2z",
"zzzzzzzzzzzzzzzzzzfhhjjjhjfjjhjhhjhjhhjhhjhhjhjjjhhjhjhhfjjjhhjhhjhjhhhjhjhjfjjfhjj8zzzzzzzzzzzz%;>25wpffdffffffppyqwwyphjay9y2z",
"zzzzzzzzzzzzzzzzzz->zzzzzzzz;;zzzzz>zzz;;-;;;;;;;>zzzzz>;;>;;;;;;;---=----=;---====%zzzzzzzzzzzzzzzzzz+=,24qydfdpfafffayyq8p8w2z",
"zzzzzzzzzzzzzzzzzzzzzzzzzzzzzzzzzzzzzzzzzzzzzzzzzzzzzzzzzzzzzzzzzzzzzzzzzzzzzzzzzzzzzzzzzzzzzzzzzzzzzzzzzzzXo$>35qypfdffpfffww2z",
"zzzzzzzzzzzzzzzzzzzzzzzzzzzzzzzzzzzzzzzzzzzzzzzzzzzzzzzzzzzzzzzzzzzzzzzzzzzzzzzzzzzzzzzzzzzzzzzzzzzzzzzzzzzzzzzzzz+%=,4qppff8y2z",
"zzzzzzzzzzzzzzzzzzzzzzzzzzzzzzzzzzzzzzzzzzzzzzzzzzzzzzzzzzzzzzzzzzzzzzzzzzzzzzzzzzzzzzzzzzzzzzzzzzzzzzzzzzzzzzzzzzzzzzzz.%->><-z"
};
