/* XPM */
static char *result[] = {
/* columns rows colors chars-per-pixel */
"128 128 7 1 ",
"  c #CD4334",
". c #CE4334",
"X c #D04435",
"o c #D84737",
"O c #758C8E",
"+ c #8B9496",
"@ c #819A9C",
/* pixels */
"OOOO@@@@@@@@@@@@@@@@@@@@@@@@@@@@@@@@@@@@@@@@@@@@@@@@@@@@@@@@@@@@@@@@@@@@@@@@@@@@@@@@@@@@@@@@@@@@@@@@@@@@@@@@@@@@@@@@@@@@@@@@OOOO",
"OOOO@@@@@@@@@@@@@@@@@@@@@@@@@@@@@@@@@@@@@@@@@@@@@@@@@@@@@@@@@@@@@@@@@@@@@@@@@@@@@@@@@@@@@@@@@+@@@@@@@@@@@@@@@@@@@@@@@@@@@@@@OOOO",
"OO                                                            OOOO                                                            OO",
"OO                                                            OOOO                                                            OO",
"OO                                                            OOOO                                                            OO",
"OO                                                            OOOO                                                    .       OO",
"OO     .                                                      OOOO                                                            OO",
"OO    .                                                       OOOO                                                            OO",
"OO                                                            OOOO                                                            OO",
"OO                                                            OOOO                                                            OO",
"OO                                                            OOOO                                                            OO",
"OO                                                            OOOO                                                            OO",
"OO                                                            OOOO                                                            OO",
"OO                                                            OOOO                                                            OO",
"OO                                                            OOOO                                                            OO",
"OO                                                            OOOO                                                            OO",
"OO                                                            OOOO                                                            OO",
"OO                                                            OOOO                                                            OO",
"OO                                                            OOOO                                                            OO",
"OO                                                            OOOO                                                            OO",
"OO                                                            OOOO                                                            OO",
"OO                                                            OOOO                                                            OO",
"OO                                                            OOOO                                                            OO",
"OO                                                            OOOO                                                            OO",
"OO                                                            OOOO                                                            OO",
"OO                                                            OOOO                                                            OO",
"OO                                                            OOOO                                                            OO",
"OO                                                            OOOO                                                            OO",
"OO                                                            OOOO                                                            OO",
"OO                                                            OOOO                                                            OO",
"OOOO@@@@@@@@@@@@@@@@@@@@@@@@@@@@@@@@@@@@@@@@@@@@@@@@@@@@@@@@@@@@@@@@@@@@@@@@@@@@@@@@@@@@@@@@@@@@@@@@@@@@@@@@@@@@@@@@@@@@@@@@OOOO",
"OOOO@@@@@@@@@@@@@@@@@@@@@@@@@@@@@@@@@@@@@@@@@@@@@@@@@@@@@@@@@@@@@@@@@@@@@@@@@@@@@@@@@@@@@@@@@@@@@@@@@@@@@@@@@@@@@@@@@@@@@@@@OOOO",
"OOOO@@@@@@@@@@@@@@@@@@@@@@@@@@@@@@@@@@@@@@@@@@@@@@@@@@@@@@@@@@@@@@@@@@@@@@@@@@@@@@@@@@@@@@@@@@@@@@@@@@@@@@@@@@@@@@@@@@@@@@@@OOOO",
"OOOO@@@@@@@@@@@@@@@@@@@@@@@@@@@@@@@@@@@@@@@@@@@@@@@@@@@@@@@@@@@@@@@@@@@@@@@@@@@@@@@@@@@@@@@@@@@@@@@@@@@@@@@@@@@@@@@@@@@@@@@@OOOO",
"                              OOOO                                                            OOOO                              ",
"                              OOOO                                                            OOOO                              ",
"                              OOOO                                                            OOOO                              ",
"                              OOOO                                                            OOOO                              ",
"                              OOOO                                                            OOOO                              ",
"                              OOOO                                                            OOOO                              ",
"                              OOOO                                                            OOOO                              ",
"                              OOOO                                                            OOOO                              ",
"                              OOOO                                                            OOOO                              ",
"                              OOOO                                                            OOOO                              ",
"                              OOOO                                                            OOOO                              ",
"                              OOOO                                                            OOOO                              ",
"                              OOOO                                                            OOOO                              ",
"                              OOOO                                                            OOOO                              ",
"                              OOOO                                                            OOOO                              ",
"                              OOOO                                                            OOOO                              ",
"                              OOOO                                                            OOOO                              ",
"                              OOOO                                                            OOOO                              ",
"                              OOOO                                                            OOOO                              ",
"                              OOOO                                                            OOOO                              ",
"                              OOOO                                                            OOOO                              ",
"                              OOOO                                                            OOOO                              ",
"                              OOOO                                                            OOOO                              ",
"                              OOOO                                                            OOOO                              ",
"                              OOOO                                                            OOOO                              ",
"                              OOOO                                                            OOOO                              ",
"                              OOOO                                                            OOOO                              ",
"                              OOOO                                                            OOOO                              ",
"OOOO@@@@@@@@@@@@@@@@@@@@@@@@@@@@@@@@@@@@@@@@@@@@@@@@@@@@@@@@@@@@@@@@@@@@@@@@@@@@@@@@@@@@@@@@@@@@@@@@@@@@@@@@@@@@@@@@@@@@@@@@OOOO",
"OOOO@@@@@@@@@@@@@@@@@@@@@@@@@@@@@@@@@@@@@@@@@@@@@@@@@@@@@@@@@@@@@@@@@@@@@@@@@@@@@@@@@@@@@@@@@@@@@@@@@@@@@@@@@@@@@@@@@@@@@@@@OOOO",
"OOOO@@@@@@@@@@@@@@@@@@@@@@@@@@@@@@@@@@@@@@@@@@@@@@@@@@@@@@@@@@@@@@@@@@@@@@@@@@@@@@@@@@@@@@@@@@@@@@@@@@@@@@@@@@@@@@@@@@@@@@@@OOOO",
"OOOO@@@@@@@@@@@@@@@@@@@@@@@@@@@@@@@@@@@@@@@@@@@@@@@@@@@@@@@@@@@@@@@@@@@@@@@@@@@@@@@@@@@@@@@@@@@@@@@@@@@@@@@@@@@@@@@@@@@@@@@@OOOO",
"OO                                                            OOOO                                                            OO",
"OO                                                            OOOO                                                            OO",
"OO                                                            OOOO                                                            OO",
"OO                                                            OOOO                                                            OO",
"OO                                                            OOOO                                                            OO",
"OO                                                            OOOO                                                            OO",
"OO                                                            OOOO                                                            OO",
"OO                                                            OOOO                                                            OO",
"OO                                                            OOOO                                                            OO",
"OO                                                            OOOO                                                            OO",
"OO                                                            OOOO                                                            OO",
"OO                                                            OOOO                                                            OO",
"OO                                                            OOOO                                                            OO",
"OO                                                            OOOO                                                            OO",
"OO                                                            OOOO                                                            OO",
"OO                                                            OOOO                                                            OO",
"OO                                                            OOOO                                                            OO",
"OO                                                            OOOO                                                            OO",
"OO                                                            OOOO                                                            OO",
"OO                                                            OOOO                                                            OO",
"OO                                                            OOOO                                                            OO",
"OO                                                            OOOO                                                            OO",
"OO                                                            OOOO                                                            OO",
"OO                                                            OOOO                                                            OO",
"OO                                                            OOOO                                                            OO",
"OO                                                            OOOO                                                            OO",
"OO                                                            OOOO                                                            OO",
"OO                                                            OOOO                                                            OO",
"OOOO@@@@@@@@@@@@@@@@@@@@@@@@@@@@@@@@@@@@@@@@@@@@@@@@@@@@@@@@@@@@@@@@@@@@@@@@@@@@@@@@@@@@@@@@@@@@@@@@@@@@@@@@@@@@@@@@@@@@@@@@OOOO",
"OOOO@@@@@@@@@@@@@@@@@@@@@@@@@@@@@@@@@@@@@@@@@@@@@@@@@@@@@@@@@@@@@@@@@@@@@@@@@@@@@@@@@@@@@@@@@@@@@@@@@@@@@@@@@@@@@@@@@@@@@@@@OOOO",
"OOOO@@@@@@@@@@@@@@@@@@@@@@@@@@@@@@@@@@@@@@@@@@@@@@@@@@@@@@@@@@@@@@@@@@@@@@@@@@@@@@@@@@@@@@@@@@@@@@@@@@@@@@@@@@@@@@@@@@@@@@@@OOOO",
"OOOO@@@@@@@@@@@@@@@@@@@@@@@@@@@@@@@@@@@@@@@@@@@@@@@@@@@@@@@@@@@@@@@@@@@@@@@@@@@@@@@@@@@@@@@@@+@@@@@@@@@@@@@@@@@@@@@@@@@@@@@@OOOO",
"                              OOOO                                                            OOOO                              ",
"                              OOOO                                                            OOOO                              ",
"                              OOOO                                                            OOOO                              ",
"                              OOOO                                                            OOOO                              ",
"                              OOOO                                                            OOOO                              ",
"                              OOOO                                                            OOOO                              ",
"                              OOOO                                                            OOOO                              ",
"                              OOOO                                                            OOOO                              ",
"                              OOOO                                                            OOOO                              ",
"                              OOOO                                                            OOOO                              ",
"                              OOOO                                                            OOOO                              ",
"                              OOOO                                                            OOOO                              ",
"                              OOOO                                                            OOOO                              ",
"                              OOOO                                                            OOOO                              ",
"                              OOOO                                                            OOOO                              ",
"                              OOOO                                                            OOOO                              ",
"    .                         OOOO                                                            OOOO                              ",
"                              OOOO                                                            OOOO                              ",
"    .                         OOOO                                                            OOOO                              ",
"                              OOOO                                                            OOOO                              ",
"                              OOOO                                                            OOOO                              ",
"                              OOOO                                                            OOOO                              ",
"      .                       OOOO                                                            OOOO                              ",
"       X                      OOOO                                                            OOOO                              ",
"        o                     OOOO                                                            OOOO                              ",
"                              OOOO                                                            OOOO                              ",
"                              OOOO                                                            OOOO                              ",
"                              OOOO                                                            OOOO                              ",
"OOOO@@@@@@@@@@@@@@@@@@@@@@@@@@@@@@@@@@@@@@@@@@@@@@@@@@@@@@@@@@@@@@@@@@@@@@@@@@@@@@@@@@@@@@@@@@@@@@@@@@@@@@@@@@@@@@@@@@@@@@@@OOOO",
"OOOO@@@@@@@@@@@@@@@@@@@@@@@@@@@@@@@@@@@@@@@@@@@@@@@@@@@@@@@@@@@@@@@@@@@@@@@@@@@@@@@@@@@@@@@@@@@@@@@@@@@@@@@@@@@@@@@@@@@@@@@@OOOO"
};
