/* XPM */
static char *result[] = {
/* columns rows colors chars-per-pixel */
"128 128 8 1 ",
"  c #F07707",
". c #CD4334",
"X c #CE4334",
"o c #D04435",
"O c #D84737",
"+ c #758C8E",
"@ c #8B9496",
"# c #819A9C",
/* pixels */
"++++########################################################################################################################++++",
"++++#########################################################################################@##############################++++",
"++                                                            ++++                                                            ++",
"++                                                            ++++                                                            ++",
"++                                                            ++++                                                            ++",
"++   ......................................................   ++++   .................................................X....   ++",
"++   ..X...................................................   ++++   ......................................................   ++",
"++   .X....................................................   ++++   ......................................................   ++",
"++   ......................................................   ++++   ......................................................   ++",
"++   ......................................................   ++++   ......................................................   ++",
"++   ......................................................   ++++   ......................................................   ++",
"++   ......................................................   ++++   ......................................................   ++",
"++   ......................................................   ++++   ......................................................   ++",
"++   ......................................................   ++++   ......................................................   ++",
"++   ......................................................   ++++   ......................................................   ++",
"++   ......................................................   ++++   ......................................................   ++",
"++   ......................................................   ++++   ......................................................   ++",
"++   ......................................................   ++++   ......................................................   ++",
"++   ......................................................   ++++   ......................................................   ++",
"++   ......................................................   ++++   ......................................................   ++",
"++   ......................................................   ++++   ......................................................   ++",
"++   ......................................................   ++++   ......................................................   ++",
"++   ......................................................   ++++   ......................................................   ++",
"++   ......................................................   ++++   ......................................................   ++",
"++   ......................................................   ++++   ......................................................   ++",
"++   ......................................................   ++++   ......................................................   ++",
"++   ......................................................   ++++   ......................................................   ++",
"++                                                            ++++                                                            ++",
"++                                                            ++++                                                            ++",
"++                                                            ++++                                                            ++",
"++++########################################################################################################################++++",
"++++########################################################################################################################++++",
"++++########################################################################################################################++++",
"++++########################################################################################################################++++",
"                              ++++                                                            ++++                              ",
"                              ++++                                                            ++++                              ",
"                              ++++                                                            ++++                              ",
"...........................   ++++   ......................................................   ++++   ...........................",
"...........................   ++++   ......................................................   ++++   ...........................",
"...........................   ++++   ......................................................   ++++   ...........................",
"...........................   ++++   ......................................................   ++++   ...........................",
"...........................   ++++   ......................................................   ++++   ...........................",
"...........................   ++++   ......................................................   ++++   ...........................",
"...........................   ++++   ......................................................   ++++   ...........................",
"...........................   ++++   ......................................................   ++++   ...........................",
"...........................   ++++   ......................................................   ++++   ...........................",
"...........................   ++++   ......................................................   ++++   ...........................",
"...........................   ++++   ......................................................   ++++   ...........................",
"...........................   ++++   ......................................................   ++++   ...........................",
"...........................   ++++   ......................................................   ++++   ...........................",
"...........................   ++++   ......................................................   ++++   ...........................",
"...........................   ++++   ......................................................   ++++   ...........................",
"...........................   ++++   ......................................................   ++++   ...........................",
"...........................   ++++   ......................................................   ++++   ...........................",
"...........................   ++++   ......................................................   ++++   ...........................",
"...........................   ++++   ......................................................   ++++   ...........................",
"...........................   ++++   ......................................................   ++++   ...........................",
"...........................   ++++   ......................................................   ++++   ...........................",
"...........................   ++++   ......................................................   ++++   ...........................",
"                              ++++                                                            ++++                              ",
"                              ++++                                                            ++++                              ",
"                              ++++                                                            ++++                              ",
"++++########################################################################################################################++++",
"++++########################################################################################################################++++",
"++++########################################################################################################################++++",
"++++########################################################################################################################++++",
"++                                                            ++++                                                            ++",
"++                                                            ++++                                                            ++",
"++                                                            ++++                                                            ++",
"++   ......................................................   ++++   ......................................................   ++",
"++   ......................................................   ++++   ......................................................   ++",
"++   ......................................................   ++++   ......................................................   ++",
"++   ......................................................   ++++   ......................................................   ++",
"++   ......................................................   ++++   ......................................................   ++",
"++   ......................................................   ++++   ......................................................   ++",
"++   ......................................................   ++++   ......................................................   ++",
"++   ......................................................   ++++   ......................................................   ++",
"++   ......................................................   ++++   ......................................................   ++",
"++   ......................................................   ++++   ......................................................   ++",
"++   ......................................................   ++++   ......................................................   ++",
"++   ......................................................   ++++   ......................................................   ++",
"++   ......................................................   ++++   ......................................................   ++",
"++   ......................................................   ++++   ......................................................   ++",
"++   ......................................................   ++++   ......................................................   ++",
"++   ......................................................   ++++   ......................................................   ++",
"++   ......................................................   ++++   ......................................................   ++",
"++   ......................................................   ++++   ......................................................   ++",
"++   ......................................................   ++++   ......................................................   ++",
"++   ......................................................   ++++   ......................................................   ++",
"++   ......................................................   ++++   ......................................................   ++",
"++   ......................................................   ++++   ......................................................   ++",
"++                                                            ++++                                                            ++",
"++                                                            ++++                                                            ++",
"++                                                            ++++                                                            ++",
"++++########################################################################################################################++++",
"++++########################################################################################################################++++",
"++++########################################################################################################################++++",
"++++#########################################################################################@##############################++++",
"                              ++++                                                            ++++                              ",
"                              ++++                                                            ++++                              ",
"                              ++++                                                            ++++                              ",
"...........................   ++++   ......................................................   ++++   ...........................",
"...........................   ++++   ......................................................   ++++   ...........................",
"...........................   ++++   ......................................................   ++++   ...........................",
"...........................   ++++   ......................................................   ++++   ...........................",
"...........................   ++++   ......................................................   ++++   ...........................",
"...........................   ++++   ......................................................   ++++   ...........................",
"...........................   ++++   ......................................................   ++++   ...........................",
"...........................   ++++   ......................................................   ++++   ...........................",
"...........................   ++++   ......................................................   ++++   ...........................",
"...........................   ++++   ......................................................   ++++   ...........................",
"...........................   ++++   ......................................................   ++++   ...........................",
"...........................   ++++   ......................................................   ++++   ...........................",
"...........................   ++++   ......................................................   ++++   ...........................",
"....X......................   ++++   ......................................................   ++++   ...........................",
"...........................   ++++   ......................................................   ++++   ...........................",
"....X......................   ++++   ......................................................   ++++   ...........................",
"...........................   ++++   ......................................................   ++++   ...........................",
"...........................   ++++   ......................................................   ++++   ...........................",
"...........................   ++++   ......................................................   ++++   ...........................",
"......X....................   ++++   ......................................................   ++++   ...........................",
".......o...................   ++++   ......................................................   ++++   ...........................",
"........O..................   ++++   ......................................................   ++++   ...........................",
"                              ++++                                                            ++++                              ",
"                              ++++                                                            ++++                              ",
"                              ++++                                                            ++++                              ",
"++++########################################################################################################################++++",
"++++########################################################################################################################++++"
};
