/* XPM */
static char *_f129eca7d92464af6566ed2bf604073WxPUTgBkmkaXmf5y[] = {
/* columns rows colors chars-per-pixel */
"128 128 23 1 ",
"  c None",
". c #CD4334",
"X c #D04434",
"o c #D34535",
"O c #D64636",
"+ c #D94737",
"@ c #DC4838",
"# c #DF4939",
"$ c #E24A3A",
"% c #E64B3B",
"& c #E94C3B",
"* c #EC4D3C",
"= c #EF4E3D",
"- c #F24F3E",
"; c #F5503F",
": c #F85140",
"> c #FB5241",
", c #FF5241",
"< c #FF5341",
"1 c #FF5242",
"2 c #FF5342",
"3 c #758C8E",
"4 c #819A9C",
/* pixels */
"            2222222222222222222222222222222222222222222222222233332222222222222222222222222222222222222222222222222;            ",
"        2222222222222222222222222222222222222222222222222222223333222222222222222222222222222222222222222222222222222222        ",
"      ,,222222222222222222222222222222222222222222222222222222333322222222222222222222222222222222222222222222222222222222      ",
"    ,22222222222222222222222222222222222222222222222222222222233332222222222222222222222222222222222222222222222222222222222    ",
"   ,2222,,:%#+++..............................................3333..............................................+++#&;2222222   ",
"   22222:+....................................................3333....................................................+;22222   ",
"  ,2222$......................................................3333......................................................$2222,  ",
"  2222#.......................................................3333.......................................................#2222  ",
" ,222=........................................................3333........................................................=222, ",
" 2222o........................................................3333........................................................o2222 ",
"2222=.........................................................3333.........................................................=222,",
",222#.........................................................3333.........................................................#2222",
",222O.........................................................3333.........................................................O222,",
"2222..........................................................3333..........................................................2222",
"2222..........................................................3333..........................................................2222",
"2222..........................................................3333..........................................................2222",
"2222..........................................................3333..........................................................2222",
"2222..........................................................3333..........................................................2222",
"2222..........................................................3333..........................................................2222",
"2222..........................................................3333..........................................................2222",
"2222..........................................................3333..........................................................2222",
"2222..........................................................3333..........................................................2222",
"2222..........................................................3333..........................................................2222",
"2222..........................................................3333..........................................................2222",
"2222..........................................................3333..........................................................2222",
"2222..........................................................3333..........................................................2222",
"2222..........................................................3333..........................................................2222",
"2222..........................................................3333..........................................................2222",
"2222..........................................................3333..........................................................2222",
"2222..........................................................3333..........................................................2222",
"33334444444444444444444444444444444444444444444444444444444444444444444444444444444444444444444444444444444444444444444444443333",
"33334444444444444444444444444444444444444444444444444444444444444444444444444444444444444444444444444444444444444444444444443333",
"33334444444444444444444444444444444444444444444444444444444444444444444444444444444444444444444444444444444444444444444444443333",
"33334444444444444444444444444444444444444444444444444444444444444444444444444444444444444444444444444444444444444444444444443333",
"2222..........................3333............................................................3333..........................2222",
"2222..........................3333............................................................3333..........................2222",
"2222..........................3333............................................................3333..........................2222",
"2222..........................3333............................................................3333..........................2222",
"2222..........................3333............................................................3333..........................2222",
"2222..........................3333............................................................3333..........................2222",
"2222..........................3333............................................................3333..........................2222",
"2222..........................3333............................................................3333..........................2222",
"2222..........................3333............................................................3333..........................2222",
"2222..........................3333............................................................3333..........................2222",
"2222..........................3333............................................................3333..........................2222",
"2222..........................3333............................................................3333..........................2222",
"2222..........................3333............................................................3333..........................2222",
"2222..........................3333............................................................3333..........................2222",
"2222..........................3333............................................................3333..........................2222",
"2222..........................3333............................................................3333..........................2222",
"2222..........................3333............................................................3333..........................2222",
"2222..........................3333............................................................3333..........................2222",
"2222..........................3333............................................................3333..........................2222",
"2222..........................3333............................................................3333..........................2222",
"2222..........................3333............................................................3333..........................2222",
"2222..........................3333............................................................3333..........................2222",
"2222..........................3333............................................................3333..........................2222",
"2222..........................3333............................................................3333..........................2222",
"2222..........................3333............................................................3333..........................2222",
"2222..........................3333............................................................3333..........................2222",
"2222..........................3333............................................................3333..........................2222",
"2222..........................3333............................................................3333..........................2222",
"33334444444444444444444444444444444444444444444444444444444444444444444444444444444444444444444444444444444444444444444444443333",
"33334444444444444444444444444444444444444444444444444444444444444444444444444444444444444444444444444444444444444444444444443333",
"33334444444444444444444444444444444444444444444444444444444444444444444444444444444444444444444444444444444444444444444444443333",
"33334444444444444444444444444444444444444444444444444444444444444444444444444444444444444444444444444444444444444444444444443333",
"2222..........................................................3333..........................................................2222",
"2222..........................................................3333..........................................................2222",
"2222..........................................................3333..........................................................2222",
"2222..........................................................3333..........................................................2222",
"2222..........................................................3333..........................................................2222",
"2222..........................................................3333..........................................................2222",
"2222..........................................................3333..........................................................2222",
"2222..........................................................3333..........................................................2222",
"2222..........................................................3333..........................................................2222",
"2222..........................................................3333..........................................................2222",
"2222..........................................................3333..........................................................2222",
"2222..........................................................3333..........................................................2222",
"2222..........................................................3333..........................................................2222",
"2222..........................................................3333..........................................................2222",
"2222..........................................................3333..........................................................2222",
"2222..........................................................3333..........................................................2222",
"2222..........................................................3333..........................................................2222",
"2222..........................................................3333..........................................................2222",
"2222..........................................................3333..........................................................2222",
"2222..........................................................3333..........................................................2222",
"2222..........................................................3333..........................................................2222",
"2222..........................................................3333..........................................................2222",
"2222..........................................................3333..........................................................2222",
"2222..........................................................3333..........................................................2222",
"2222..........................................................3333..........................................................2222",
"2222..........................................................3333..........................................................2222",
"2222..........................................................3333..........................................................2222",
"2222..........................................................3333..........................................................2222",
"33334444444444444444444444444444444444444444444444444444444444444444444444444444444444444444444444444444444444444444444444443333",
"33334444444444444444444444444444444444444444444444444444444444444444444444444444444444444444444444444444444444444444444444443333",
"33334444444444444444444444444444444444444444444444444444444444444444444444444444444344434444444444444444444444444444444444443333",
"33334444444444444444444444444444444444444444444444444444444444444444444444444443444344434443444344444444444444444444444444443333",
"2222..........................3333..........................................@...$+..#O..+o..OX3333..........................2222",
"2222..........................3333.......................................................o....3333..........................2222",
"2222..........................3333............................................................3333..........................2222",
"2222..........................3333............................................................3333..........................2222",
"2222..........................3333............................................................3333..........................2222",
"2222..........................3333............................................................3333..........................2222",
"2222..........................3333............................................................3333..........................2222",
"2222..........................3333............................................................3333..........................2222",
"2222..........................3333............................................................3333..........................2222",
"2222..........................3333............................................................3333..........................2222",
"2222..........................3333............................................................3333..........................2222",
"2222..........................3333............................................................3333..........................2222",
"2222..........................3333............................................................3333..........................2222",
"2222..........................3333............................................................3333..........................2222",
"2222..........................3333............................................................3333..........................2222",
"2222..........................3333............................................................3333..........................2222",
"2222O.........................3333............................................................3333.........................o2222",
"22>>+.........................3333............................................................3333.........................+2222",
"2222$.........................3333............................................................3333.........................%2222",
" 222:.........................3333............................................................3333.........................;222 ",
" 222>+........................3333............................................................3333........................o2222 ",
" 222>-........................3333............................................................3333........................=222, ",
"  2222=O......................3333............................................................3333.......................#2222  ",
"  2222>$......................3333............................................................3333......................#2222,  ",
"   222>2%O.+..................3333............................................................3333....................o%22222   ",
"   22222>>-%..................3333............................................................3333.................o+=>22222,   ",
"    222222222222222222222222223333222222222222222222222222222222222222222222222222222222222222333322222222222222,2222222222,    ",
"      2222222222222222222222223333222222222222222222222222222222222222222222222222222222222222333322222222222222222222222,      ",
"       22222222222222222222222333322222222222222222222222222222222222222222222222222222222222233332222222222222222222222,       ",
"          2222222222222222222233332222222222222222222222222222222222222222222222222222222222223333222222222222222222,2          "
};
